<svg width="58" height="58" viewBox="0 0 58 58" fill="none" xmlns="http://www.w3.org/2000/svg">
<path d="M48.4565 50.2209H38.6342C38.303 50.2209 37.9855 50.0894 37.7513 49.8552C37.5171 49.621 37.3856 49.3035 37.3856 48.9723V27.9825C35.9958 26.9113 34.9092 25.4962 34.2331 23.8769C33.557 22.2576 33.3148 20.49 33.5302 18.7485C33.7457 17.007 34.4115 15.3518 35.4618 13.9461C36.5122 12.5404 37.9109 11.4329 39.5199 10.7327C39.7099 10.6497 39.9176 10.6154 40.1242 10.6328C40.3308 10.6502 40.5298 10.7188 40.7033 10.8324C40.8767 10.946 41.0192 11.101 41.1178 11.2834C41.2163 11.4658 41.2679 11.6699 41.2679 11.8772V17.5284C41.2683 17.8498 41.3963 18.158 41.6237 18.3852C41.851 18.6124 42.1593 18.7401 42.4807 18.7403H44.6142C44.9354 18.7399 45.2433 18.6121 45.4704 18.3848C45.6974 18.1576 45.8251 17.8496 45.8253 17.5284V11.8772C45.8253 11.6699 45.8769 11.4658 45.9754 11.2834C46.074 11.101 46.2165 10.946 46.3899 10.8324C46.5634 10.7188 46.7624 10.6502 46.969 10.6328C47.1756 10.6154 47.3833 10.6497 47.5733 10.7327C49.1824 11.4328 50.5812 12.5403 51.6316 13.9459C52.682 15.3516 53.3479 17.0068 53.5634 18.7483C53.779 20.4898 53.5368 22.2574 52.8608 23.8767C52.1848 25.4961 51.0983 26.9112 49.7084 27.9825V48.9723C49.7084 49.1366 49.676 49.2992 49.6131 49.4509C49.5501 49.6026 49.4579 49.7404 49.3416 49.8564C49.2253 49.9724 49.0872 50.0643 48.9354 50.1268C48.7835 50.1894 48.6208 50.2213 48.4565 50.2209ZM39.8828 47.7237H47.2079V27.3432C47.2075 27.1377 47.2578 26.9354 47.3544 26.754C47.451 26.5726 47.5908 26.4179 47.7615 26.3035C48.7519 25.6422 49.5729 24.7572 50.1583 23.72C50.7437 22.6828 51.077 21.5226 51.1314 20.3329C51.1858 19.1431 50.9596 17.9573 50.4713 16.8711C49.9829 15.7849 49.246 14.8287 48.32 14.0797V17.5259C48.3191 18.5092 47.9282 19.452 47.2329 20.1474C46.5377 20.8428 45.595 21.234 44.6117 21.2351H42.4782C41.4947 21.234 40.5519 20.8428 39.8564 20.1475C39.1609 19.4522 38.7695 18.5094 38.7682 17.5259V14.0797C37.8424 14.8288 37.1056 15.785 36.6173 16.8712C36.1291 17.9574 35.903 19.1432 35.9574 20.3328C36.0117 21.5225 36.345 22.6827 36.9303 23.7199C37.5156 24.757 38.3365 25.642 39.3267 26.3035C39.4972 26.4176 39.637 26.5719 39.7337 26.7528C39.8304 26.9337 39.881 27.1356 39.8811 27.3407L39.8828 47.7237Z" fill="black"/>
<path d="M33.6056 50.221H10.5248C10.1936 50.221 9.87602 50.0895 9.64186 49.8553C9.4077 49.6211 9.27615 49.3036 9.27615 48.9724V31.1465H5.61359C5.28244 31.1465 4.96485 31.015 4.7307 30.7808C4.49654 30.5467 4.36499 30.2291 4.36499 29.8979V26.6757C4.36506 26.4887 4.40713 26.3041 4.4881 26.1356C4.56907 25.967 4.68687 25.8188 4.8328 25.7018L11.2564 20.5509V11.0982C11.2564 10.767 11.388 10.4494 11.6221 10.2153C11.8563 9.98113 12.1739 9.84958 12.505 9.84958H18.6856C19.0168 9.84958 19.3343 9.98113 19.5685 10.2153C19.8027 10.4494 19.9342 10.767 19.9342 11.0982V13.5954L26.6142 8.24055C26.8357 8.06304 27.1111 7.96631 27.395 7.96631C27.6789 7.96631 27.9543 8.06304 28.1758 8.24055L32.5251 11.7275C32.7631 11.9405 32.9103 12.2367 32.9366 12.555C32.9629 12.8733 32.8661 13.1896 32.6663 13.4388C32.4665 13.688 32.1788 13.8511 31.8624 13.8947C31.5459 13.9382 31.2249 13.8588 30.9652 13.6728L27.3975 10.8118L19.4689 17.1689C19.2853 17.3162 19.0639 17.4087 18.83 17.4356C18.5962 17.4625 18.3595 17.4228 18.1472 17.321C17.935 17.2192 17.7559 17.0594 17.6305 16.8602C17.5051 16.661 17.4386 16.4304 17.4387 16.195V12.3468H13.7528V21.1503C13.7528 21.3372 13.7109 21.5217 13.6301 21.6903C13.5492 21.8589 13.4316 22.0071 13.2858 22.1242L6.86136 27.2751V28.6493H10.5239C10.8551 28.6493 11.1727 28.7809 11.4068 29.0151C11.641 29.2492 11.7725 29.5668 11.7725 29.8979V47.7238H33.6056C33.9367 47.7238 34.2543 47.8554 34.4884 48.0895C34.7226 48.3237 34.8542 48.6413 34.8542 48.9724C34.8542 49.3036 34.7226 49.6211 34.4884 49.8553C34.2543 50.0895 33.9367 50.221 33.6056 50.221Z" fill="black"/>
<path d="M32.8047 41.9659H21.9835C21.6523 41.9659 21.3347 41.8343 21.1006 41.6002C20.8664 41.366 20.7349 41.0484 20.7349 40.7173V29.8961C20.7349 29.5649 20.8664 29.2473 21.1006 29.0132C21.3347 28.779 21.6523 28.6475 21.9835 28.6475H32.8047C33.1358 28.6475 33.4534 28.779 33.6876 29.0132C33.9217 29.2473 34.0533 29.5649 34.0533 29.8961V40.7173C34.0533 41.0484 33.9217 41.366 33.6876 41.6002C33.4534 41.8343 33.1358 41.9659 32.8047 41.9659ZM23.2321 39.4687H31.5561V31.1447H23.2321V39.4687Z" fill="black"/>
</svg>
