<svg width="58" height="58" viewBox="0 0 58 58" fill="none" xmlns="http://www.w3.org/2000/svg">
<path d="M41.3001 40.9071C40.3157 40.5604 39.2984 40.2025 38.4023 39.7845C37.214 39.2317 36.5049 38.1192 36.5049 36.8063V36.1912C38.1169 34.9746 39.2814 33.1972 39.7085 31.1513H40.3009C41.8665 31.1513 43.1398 29.8792 43.1398 28.3159V25.8531C43.1398 25.2448 43.1511 24.6524 43.1613 24.0792C43.2043 21.766 43.2417 19.7688 42.5337 18.1863C41.7305 16.3908 40.1265 15.4222 37.4984 15.1503L38.3491 13.945C38.7127 13.4239 38.7569 12.776 38.4635 12.2039C38.1667 11.6386 37.6105 11.301 36.9739 11.301H29.887C27.1331 11.301 24.5435 12.1801 22.5962 13.7774C20.4711 15.5196 19.2997 18.0073 19.2997 20.7804V28.317C19.2997 29.8803 20.573 31.1524 22.1386 31.1524H22.7344C23.1649 33.2176 24.3475 35.0097 25.9822 36.2274V36.8074C25.9822 38.1192 25.2742 39.2328 24.087 39.7856C23.1909 40.2036 22.1737 40.5616 21.1893 40.9071C17.6991 42.1351 13.7444 43.5261 13.7444 48.2421V53.7588C13.7444 54.6832 14.4966 55.4354 15.421 55.4354H47.0661C47.9905 55.4354 48.7427 54.6832 48.7427 53.7588V48.2421C48.7415 43.5261 44.788 42.1351 41.3001 40.9071ZM41.3273 28.3159C41.3273 28.8812 40.8662 29.3399 40.2998 29.3399H39.8852V24.8257H40.2998C40.8662 24.8257 41.3273 25.2867 41.3273 25.8531V28.3159ZM29.8859 13.1113H36.719L35.8875 14.2894C35.5363 14.7856 35.4786 15.4109 35.7357 15.9682C35.9929 16.5165 36.506 16.8767 37.1132 16.9322C41.0588 17.2744 41.4088 19.028 41.3624 23.2216C41.0339 23.0891 40.6759 23.0143 40.2998 23.0143H39.6507C39.1647 21.7999 37.9764 20.9401 36.591 20.9401H35.9645C35.4604 20.9401 35.0481 20.8155 34.6312 20.538L33.5618 19.8221C32.1175 18.8546 30.322 18.8546 28.8777 19.8221L27.8105 20.5369C27.3914 20.8155 26.9791 20.9401 26.4727 20.9401H25.8496C24.4642 20.9401 23.2759 21.7999 22.7899 23.0143H22.1374C21.7749 23.0143 21.4283 23.0834 21.11 23.208V20.7804C21.11 15.7451 25.5257 13.1113 29.8859 13.1113ZM21.11 28.3159V25.8531C21.11 25.2867 21.571 24.8257 22.1374 24.8257H22.5543V29.3399H22.1374C21.571 29.3399 21.11 28.8812 21.11 28.3159ZM24.3668 29.4204V24.2344C24.3668 23.4165 25.0318 22.7515 25.8508 22.7515H26.4738C27.3359 22.7515 28.1017 22.5204 28.8176 22.0424L29.887 21.3264C30.723 20.7668 31.7199 20.7668 32.5559 21.3264L33.6264 22.0435C34.3412 22.5193 35.1059 22.7515 35.9657 22.7515H36.5921C37.41 22.7515 38.0761 23.4165 38.0761 24.2344V29.4204C38.0761 29.6447 38.0648 29.8667 38.0432 30.0865C38.0376 30.1193 38.0342 30.1522 38.0319 30.185C37.8054 32.155 36.719 33.8667 35.1557 34.9326C35.1229 34.9519 35.0911 34.9723 35.0605 34.9949C34.0093 35.686 32.7541 36.0892 31.405 36.0892H31.0391C29.7012 36.0892 28.454 35.6916 27.4084 35.0108C27.3925 34.9995 27.3755 34.9893 27.3586 34.9791C25.5551 33.784 24.3668 31.7392 24.3668 29.4204ZM31.0357 37.9017H31.4016C32.574 37.9017 33.6921 37.6627 34.7094 37.23C34.7943 38.3322 35.2078 39.3279 35.892 40.1209C35.0583 41.921 33.2537 43.0979 31.2441 43.0979C29.2322 43.0979 27.4231 41.9164 26.5882 40.1107C27.2634 39.3189 27.6825 38.3265 27.7732 37.2492C28.8067 37.6806 29.9157 37.9024 31.0357 37.9017ZM46.9313 53.6229H40.711V50.9767C40.711 50.476 40.3055 50.0715 39.8059 50.0715C39.3063 50.0715 38.9008 50.4771 38.9008 50.9767V53.6229H23.5863V50.9767C23.5863 50.476 23.1807 50.0715 22.6812 50.0715C22.1816 50.0715 21.7761 50.4771 21.7761 50.9767V53.6229H15.5558V48.2409C15.5558 44.8085 18.4456 43.7912 21.7908 42.6142C22.816 42.254 23.8763 41.8802 24.8516 41.4259C24.9536 41.3783 25.0521 41.3285 25.1484 41.2753C26.3504 43.4865 28.6737 44.9082 31.2441 44.9082C33.8156 44.9082 36.139 43.4865 37.3375 41.2753C37.4349 41.3285 37.5346 41.3783 37.6366 41.4259C38.613 41.8813 39.6722 42.254 40.6974 42.6154C44.0415 43.7924 46.9302 44.8096 46.9302 48.2421V53.6229H46.9313ZM48.4277 15.7315C52.0573 15.7315 55.0105 12.7782 55.0105 9.14869C55.0105 5.51916 52.0573 2.56592 48.4277 2.56592C44.7982 2.56592 41.845 5.51916 41.845 9.14869C41.845 12.7782 44.7971 15.7315 48.4277 15.7315ZM48.4277 4.37729C51.0593 4.37729 53.1991 6.5183 53.1991 9.14869C53.1991 11.7791 51.0581 13.9201 48.4277 13.9201C45.7973 13.9201 43.6563 11.7791 43.6563 9.14869C43.6563 6.5183 45.7962 4.37729 48.4277 4.37729ZM47.5215 9.14869V6.21697C47.5215 5.71627 47.927 5.31186 48.4266 5.31186C48.9262 5.31186 49.3317 5.7174 49.3317 6.21697V8.24357H51.3606C51.8613 8.24357 52.2657 8.64912 52.2657 9.14869C52.2657 9.64826 51.8602 10.0538 51.3606 10.0538H48.4277C47.927 10.0549 47.5215 9.64939 47.5215 9.14869ZM7.41539 15.7315H18.2405C19.5648 15.7315 20.6421 14.6542 20.6421 13.3299V4.96861C20.6421 3.64436 19.5648 2.56705 18.2405 2.56705H7.41539C6.09113 2.56705 5.01383 3.64436 5.01383 4.96861V13.3299C5.0127 14.6542 6.09 15.7315 7.41539 15.7315ZM6.82406 4.96861C6.82406 4.64803 7.0948 4.37729 7.41539 4.37729H18.2405C18.5668 4.37729 18.8307 4.64236 18.8307 4.96861V13.3299C18.8307 13.6562 18.5657 13.9201 18.2405 13.9201H7.41539C7.08914 13.9201 6.82406 13.655 6.82406 13.3299V4.96861ZM11.3485 12.162C11.3519 12.1642 11.3553 12.1665 11.3587 12.1676C11.5898 12.2968 11.8424 12.3613 12.0962 12.3613C12.3533 12.3613 12.6093 12.2945 12.8438 12.1608L15.8141 10.4458C15.8163 10.4446 15.8175 10.4435 15.8197 10.4424C16.2853 10.1694 16.5629 9.68564 16.5629 9.14756C16.5629 8.60947 16.2853 8.12576 15.8141 7.84936L12.8495 6.14107C12.3816 5.86693 11.8209 5.8658 11.3485 6.13768C10.8795 6.40842 10.5997 6.89326 10.5997 7.43588V10.8638C10.5997 11.4064 10.8795 11.8912 11.3485 12.162ZM12.4111 7.97963L14.44 9.14869L12.4111 10.32V7.97963ZM17.3592 32.1595V27.2431C17.3592 26.1794 16.4915 25.3128 15.4255 25.3128H13.7365C12.6728 25.3128 11.8062 26.1783 11.8062 27.2431V27.3485H5.54965V27.2431C5.54965 26.1794 4.68418 25.3128 3.61934 25.3128H1.93031C0.866602 25.3139 0 26.1794 0 27.2442V32.1606C0 33.2244 0.865469 34.091 1.93031 34.091H3.61934C4.68305 34.091 5.54965 33.2255 5.54965 32.1606V32.0542H11.8084V32.1606C11.8084 33.2244 12.6739 34.091 13.7387 34.091H15.4278C16.4926 34.0898 17.3592 33.2244 17.3592 32.1595ZM3.73828 32.1595C3.73828 32.2252 3.68504 32.2785 3.61934 32.2785H1.93031C1.86688 32.2785 1.81137 32.223 1.81137 32.1595V27.2431C1.81137 27.1797 1.86688 27.1242 1.93031 27.1242H3.61934C3.68504 27.1242 3.73828 27.1774 3.73828 27.2431V32.1595ZM5.54965 30.2428V29.161H11.8084V30.2428H5.54965ZM13.6187 32.1595V27.2431C13.6187 27.1797 13.6742 27.1242 13.7376 27.1242H15.4266C15.4923 27.1242 15.549 27.1785 15.549 27.2431V32.1595C15.549 32.2241 15.4935 32.2785 15.4266 32.2785H13.7376C13.6742 32.2785 13.6187 32.223 13.6187 32.1595ZM57.6454 18.6745C57.5352 18.5901 57.4072 18.5322 57.2711 18.5051C57.135 18.478 56.9945 18.4825 56.8604 18.5182L50.1134 20.3228C49.7169 20.4292 49.4416 20.7872 49.4416 21.1973V27.9658H48.1898C46.502 27.9658 45.1301 29.3399 45.1301 31.029C45.1301 32.7169 46.5031 34.0887 48.1898 34.0887C49.8789 34.0887 51.253 32.7157 51.253 31.029V25.5167L56.1886 24.1947V26.1579H54.9369C53.249 26.1579 51.8772 27.532 51.8772 29.221C51.8772 30.91 53.249 32.2853 54.9357 32.2853C56.6248 32.2853 57.9989 30.9112 57.9989 29.2221V19.3927C57.9993 19.2539 57.9677 19.1168 57.9064 18.9922C57.845 18.8676 57.7557 18.7589 57.6454 18.6745ZM49.4416 31.0301C49.4416 31.7188 48.8797 32.2796 48.1898 32.2796C47.5011 32.2796 46.9403 31.7188 46.9403 31.0301C46.9403 30.3391 47.5011 29.7783 48.1898 29.7783H49.4416V31.0301ZM51.253 21.8917L56.1886 20.572V22.3199L51.253 23.6419V21.8917ZM56.1886 29.2221C56.1886 29.9131 55.6268 30.4739 54.9369 30.4739C54.2481 30.4739 53.6874 29.912 53.6874 29.2221C53.6874 28.5322 54.2481 27.9704 54.9369 27.9704H56.1886V29.2221Z" fill="black"/>
</svg>
