<svg width="58" height="58" viewBox="0 0 58 58" fill="none" xmlns="http://www.w3.org/2000/svg">
<path d="M23.3863 52.2986C23.335 52.2988 23.2839 52.2922 23.2343 52.2788C13.8105 49.7292 7.22925 41.1202 7.22925 31.3426C7.22925 21.5661 13.8105 12.9566 23.2343 10.4075C23.3085 10.3854 23.3864 10.3783 23.4634 10.3868C23.5403 10.3952 23.6148 10.419 23.6824 10.4567C23.75 10.4944 23.8094 10.5452 23.8571 10.6062C23.9047 10.6672 23.9397 10.7371 23.9599 10.8119C23.9801 10.8866 23.9852 10.9646 23.9748 11.0413C23.9644 11.118 23.9387 11.1919 23.8993 11.2585C23.8599 11.3252 23.8075 11.3832 23.7453 11.4293C23.6831 11.4754 23.6123 11.5086 23.5371 11.5269C14.6184 13.9397 8.38983 22.0887 8.38983 31.3432C8.38983 40.5982 14.619 48.7478 23.5371 51.16C23.673 51.1964 23.791 51.281 23.8691 51.3979C23.9472 51.5149 23.9801 51.6563 23.9616 51.7958C23.9432 51.9352 23.8746 52.0632 23.7688 52.1558C23.6629 52.2484 23.527 52.2988 23.3863 52.2986Z" fill="black"/>
<path d="M15.1705 53.8727C12.4271 53.8727 10.2828 51.3921 10.1929 51.2865C10.1037 51.1816 10.0547 51.0484 10.0547 50.9107C10.0547 50.773 10.1037 50.6397 10.1929 50.5348C10.2828 50.4287 12.4271 47.951 15.1705 47.951C17.9122 47.951 20.0564 50.4287 20.1457 50.5348C20.235 50.6397 20.284 50.773 20.284 50.9107C20.284 51.0484 20.235 51.1816 20.1457 51.2865C20.0558 51.3921 17.9116 53.8727 15.1705 53.8727ZM11.4411 50.9107C12.0924 51.5336 13.5413 52.7133 15.1705 52.7133C16.8049 52.7133 18.2486 51.5359 18.8981 50.9124C18.2468 50.2895 16.798 49.111 15.1705 49.111C13.5337 49.111 12.0907 50.2878 11.4411 50.9107ZM7.68153 45.6217C7.18679 45.6217 6.67929 45.5579 6.17817 45.4001C3.56063 44.5777 2.25853 41.5692 2.20401 41.4416C2.1503 41.3146 2.14357 41.1727 2.18502 41.0412C2.22647 40.9098 2.3134 40.7973 2.43021 40.7241C2.54737 40.6511 5.33775 38.9285 7.95355 39.7509C10.5688 40.5716 11.8709 43.5789 11.9254 43.7065C11.979 43.8333 11.9859 43.975 11.9446 44.1063C11.9034 44.2376 11.8168 44.35 11.7004 44.4234C11.6058 44.4831 9.76489 45.6217 7.68095 45.6217H7.68153ZM6.52617 44.2935C8.08753 44.7847 9.81651 44.0928 10.6221 43.6926C10.1871 42.9038 9.15879 41.3447 7.60613 40.857C6.04651 40.3669 4.31521 41.0565 3.50785 41.4561C3.94343 42.2461 4.97235 43.8051 6.52617 44.294V44.2935ZM7.72213 34.1191C7.31033 34.1191 4.25779 34.0518 2.53461 32.0943C0.722691 30.0347 1.16871 26.7867 1.18843 26.6487C1.20837 26.5125 1.27608 26.3879 1.37946 26.297C1.48285 26.2062 1.61516 26.1551 1.75277 26.1528C1.89313 26.1516 5.16897 26.1227 6.98147 28.1822C8.79223 30.2395 8.34795 33.4852 8.32881 33.6226C8.30898 33.759 8.24124 33.8839 8.13773 33.9748C8.03421 34.0658 7.90169 34.117 7.76389 34.1191H7.72213ZM3.40461 31.3276C4.48457 32.5543 6.32259 32.8599 7.22043 32.9353C7.25697 32.034 7.18447 30.1687 6.10973 28.9478C5.03441 27.7258 3.19349 27.4166 2.29449 27.3383C2.25679 28.2396 2.32929 30.1049 3.40461 31.3276ZM10.0508 22.4756C9.93831 22.4756 9.82463 22.4425 9.72545 22.3758C9.61119 22.2981 6.90781 20.4421 6.60447 17.7184C6.30113 14.9924 8.52949 12.5872 8.62461 12.4868C8.71897 12.3864 8.84604 12.3228 8.98304 12.3074C9.12005 12.2921 9.25802 12.3261 9.37223 12.4033C9.48707 12.4811 12.1875 14.337 12.4909 17.0636C12.7936 19.7873 10.5682 22.192 10.4725 22.2929C10.4185 22.3507 10.3532 22.3967 10.2807 22.4282C10.2081 22.4596 10.1299 22.4758 10.0508 22.4756ZM9.13675 13.6851C8.58923 14.4026 7.57771 15.9721 7.75809 17.5908C7.93789 19.2061 9.26899 20.5146 9.96151 21.094C10.5085 20.3766 11.5194 18.8083 11.339 17.1918C11.1592 15.5736 9.82927 14.2651 9.13675 13.6851ZM19.9288 12.5095C19.794 12.5096 19.6635 12.4626 19.5596 12.3768C19.4557 12.2909 19.3851 12.1715 19.3598 12.0391C19.3332 11.9034 18.7346 8.67857 20.4462 6.53837C22.1601 4.39701 25.4365 4.27173 25.5751 4.26709H25.5931C25.7279 4.26709 25.8585 4.31404 25.9624 4.39988C26.0664 4.48573 26.1372 4.60509 26.1627 4.73747C26.1888 4.87377 26.785 8.09567 25.0723 10.2382C23.3595 12.3778 20.0854 12.5048 19.9468 12.5089H19.9288V12.5095ZM21.3521 7.26395C20.3313 8.53995 20.3499 10.4029 20.4317 11.2996C21.3249 11.1795 23.1496 10.7845 24.1651 9.51377C25.1871 8.23719 25.1697 6.37481 25.0897 5.47813C24.1953 5.59761 22.3695 5.99143 21.3521 7.26395ZM34.5437 52.2986C34.4036 52.2978 34.2686 52.2463 34.1635 52.1537C34.0584 52.0611 33.9904 51.9336 33.9721 51.7948C33.9537 51.6559 33.9862 51.5151 34.0635 51.3983C34.1408 51.2816 34.2578 51.1967 34.3929 51.1595C43.3115 48.7467 49.5413 40.5977 49.5413 31.3427C49.5413 22.0882 43.3121 13.9392 34.3929 11.5258C34.3194 11.506 34.2505 11.4718 34.1903 11.4254C34.13 11.379 34.0794 11.3211 34.0415 11.2551C34.0036 11.1891 33.9791 11.1163 33.9693 11.0409C33.9595 10.9654 33.9647 10.8888 33.9845 10.8153C34.0042 10.7416 34.0382 10.6726 34.0846 10.6122C34.131 10.5517 34.189 10.501 34.2551 10.4631C34.3212 10.4251 34.3941 10.4006 34.4697 10.391C34.5453 10.3814 34.6221 10.3868 34.6956 10.407C44.1194 12.9567 50.7013 21.5662 50.7013 31.3427C50.7013 41.1203 44.1189 49.7298 34.695 52.2783C34.646 52.2924 34.5952 52.2994 34.5442 52.2992L34.5437 52.2986Z" fill="black"/>
<path d="M42.7599 53.8727C40.0189 53.8727 37.874 51.392 37.7841 51.2864C37.695 51.1815 37.6461 51.0482 37.6462 50.9105C37.6463 50.7728 37.6954 50.6396 37.7847 50.5348C37.8746 50.4286 40.0194 47.9509 42.7599 47.9509C45.5033 47.9509 47.6476 50.4286 47.7375 50.5348C47.8268 50.6396 47.8759 50.7728 47.876 50.9105C47.8762 51.0482 47.8273 51.1815 47.7381 51.2864C47.6482 51.392 45.5028 53.8727 42.7599 53.8727ZM39.0329 50.9112C39.6854 51.5347 41.1336 52.7132 42.7599 52.7132C44.388 52.7132 45.8363 51.5347 46.4893 50.9112C45.8363 50.2883 44.388 49.1109 42.7599 49.1109C41.1336 49.1109 39.6854 50.2883 39.0329 50.9112ZM50.2489 45.6216C48.165 45.6216 46.324 44.483 46.2295 44.4239C46.1128 44.3507 46.026 44.2384 45.9846 44.107C45.9431 43.9757 45.9498 43.8339 46.0033 43.707C46.0578 43.5794 47.3605 40.5721 49.9763 39.7514C52.5921 38.9278 55.3819 40.651 55.4985 40.7246C55.6153 40.7978 55.7022 40.9102 55.7437 41.0417C55.7851 41.1732 55.7784 41.3151 55.7247 41.4421C55.6702 41.5697 54.3686 44.5782 51.7511 45.4006C51.2645 45.5501 50.7579 45.625 50.2489 45.6216ZM47.3072 43.6902C48.1163 44.0898 49.8516 44.7812 51.4037 44.2934C52.9575 43.8056 53.9853 42.2471 54.4203 41.4572C53.6112 41.0581 51.8764 40.3691 50.3243 40.8569C48.7641 41.3464 47.7404 42.9014 47.3072 43.6902ZM50.2089 34.119H50.1671C50.0294 34.1167 49.8969 34.0654 49.7935 33.9743C49.6901 33.8833 49.6225 33.7583 49.6028 33.622C49.5831 33.4851 49.1382 30.2394 50.9484 28.1816C52.7621 26.122 56.0466 26.1533 56.1777 26.1527C56.3154 26.1548 56.4478 26.2059 56.5513 26.2968C56.6548 26.3876 56.7226 26.5123 56.7426 26.6486C56.7629 26.7861 57.2083 30.0341 55.3958 32.0937C53.6721 34.0517 50.6207 34.119 50.2089 34.119ZM55.6354 27.3388C54.7364 27.4165 52.8955 27.7257 51.8201 28.9472C50.7402 30.1744 50.67 32.0345 50.7089 32.9341C51.6073 32.8564 53.4499 32.549 54.5241 31.3275C55.6006 30.1054 55.6725 28.2401 55.6354 27.3388ZM47.879 22.4755C47.7998 22.4757 47.7214 22.4595 47.6486 22.4281C47.5759 22.3967 47.5104 22.3506 47.4562 22.2928C47.3611 22.1919 45.1345 19.7872 45.4378 17.0635C45.7412 14.337 48.4422 12.481 48.5571 12.4032C48.6713 12.326 48.8092 12.292 48.9462 12.3074C49.0832 12.3227 49.2103 12.3863 49.3047 12.4868C49.3998 12.5877 51.6287 14.9924 51.3254 17.7184C51.0215 20.442 48.3181 22.298 48.2038 22.3758C48.1079 22.4407 47.9948 22.4754 47.879 22.4755ZM48.7937 13.6845C48.1029 14.2639 46.7712 15.5729 46.5909 17.1917C46.4111 18.8082 47.4214 20.3765 47.9684 21.094C48.6603 20.5145 49.992 19.2061 50.1723 17.5908C50.3533 15.9644 49.3424 14.399 48.7937 13.6845ZM38.0022 12.5094L37.9842 12.5088C37.8456 12.5047 34.5704 12.3777 32.8582 10.2381C31.1455 8.09616 31.7417 4.87368 31.7678 4.73738C31.8223 4.45898 32.045 4.27338 32.3559 4.26758C32.4939 4.27164 35.7709 4.39692 37.4848 6.53828C39.1958 8.67848 38.5984 11.9033 38.5718 12.039C38.5462 12.1713 38.4753 12.2905 38.3714 12.3762C38.2675 12.462 38.1369 12.5088 38.0022 12.5088V12.5094ZM32.8414 5.47688C32.7619 6.3753 32.7463 8.24232 33.7642 9.51368C34.7797 10.7839 36.6038 11.1789 37.4982 11.3001C37.5782 10.4005 37.5945 8.53348 36.5783 7.26386C35.5564 5.98612 33.734 5.59462 32.8414 5.47688Z" fill="black"/>
<path d="M37.2697 24.3445C37.1935 24.3446 37.1181 24.3297 37.0477 24.3005C36.9774 24.2713 36.9134 24.2285 36.8597 24.1746C32.8588 20.1755 26.3501 20.1755 22.3481 24.1746C22.2949 24.2313 22.2309 24.2767 22.1598 24.3082C22.0888 24.3397 22.0121 24.3565 21.9344 24.3578C21.8567 24.3591 21.7795 24.3447 21.7075 24.3155C21.6354 24.2864 21.57 24.2431 21.515 24.1881C21.46 24.1332 21.4166 24.0678 21.3875 23.9958C21.3583 23.9237 21.3438 23.8466 21.345 23.7689C21.3462 23.6912 21.3631 23.6145 21.3945 23.5434C21.4259 23.4723 21.4713 23.4083 21.5279 23.3551C25.9812 18.9018 33.2265 18.9018 37.6798 23.3551C37.7609 23.4361 37.8162 23.5394 37.8387 23.6519C37.8611 23.7644 37.8496 23.881 37.8057 23.987C37.7618 24.0929 37.6874 24.1835 37.592 24.2471C37.4966 24.3108 37.3844 24.3447 37.2697 24.3445Z" fill="black"/>
<path d="M35.2015 24.9055C35.0524 24.9063 34.9087 24.8496 34.8003 24.7473C34.6919 24.645 34.627 24.5048 34.6192 24.356C34.6114 24.2071 34.6612 24.0609 34.7582 23.9478C34.8553 23.8347 34.9922 23.7632 35.1406 23.7484L37.094 23.539L36.8794 21.5873C36.8625 21.4342 36.907 21.2807 37.0033 21.1605C37.0996 21.0403 37.2396 20.9633 37.3927 20.9464C37.5458 20.9295 37.6993 20.974 37.8195 21.0703C37.9396 21.1666 38.0167 21.3066 38.0336 21.4597L38.3114 23.9902C38.3195 24.0661 38.3126 24.1427 38.2911 24.2159C38.2696 24.2891 38.2339 24.3573 38.186 24.4166C38.1381 24.476 38.079 24.5253 38.0121 24.5618C37.9451 24.5983 37.8716 24.6213 37.7958 24.6294L35.2641 24.9008C35.2433 24.9036 35.2224 24.9055 35.2015 24.9055ZM32.3148 41.3386C32.1741 41.3385 32.0382 41.2873 31.9325 41.1945C31.8267 41.1017 31.7583 40.9736 31.74 40.8341C31.7217 40.6946 31.7548 40.5532 31.833 40.4362C31.9112 40.3193 32.0292 40.2347 32.1652 40.1983C33.4683 39.8531 34.6899 39.2529 35.7595 38.4323C36.829 37.6117 37.7252 36.5872 38.3961 35.418C39.0733 34.2527 39.5127 32.9646 39.6889 31.6284C39.865 30.2921 39.7743 28.9342 39.4221 27.6332C39.3823 27.4846 39.4031 27.3263 39.48 27.193C39.5569 27.0598 39.6836 26.9626 39.8322 26.9227C39.9808 26.8829 40.1391 26.9037 40.2724 26.9806C40.4056 27.0575 40.5028 27.1842 40.5427 27.3328C40.9348 28.7808 41.0358 30.2923 40.8397 31.7796C40.6435 33.2669 40.1542 34.7005 39.4001 35.9974C38.6536 37.2986 37.6564 38.4389 36.4663 39.3522C35.2762 40.2655 33.9168 40.9338 32.4668 41.3183C32.4176 41.3319 32.3669 41.3387 32.316 41.3386H32.3148Z" fill="black"/>
<path d="M34.1633 42.6201C34.0832 42.6202 34.004 42.6034 33.9308 42.5708L31.5997 41.5466C31.5298 41.5159 31.4666 41.4718 31.4138 41.4166C31.361 41.3614 31.3197 41.2963 31.2922 41.2251C31.2647 41.1539 31.2516 41.0779 31.2536 41.0016C31.2556 40.9252 31.2727 40.8501 31.3039 40.7804L32.334 38.4523C32.3649 38.3826 32.4091 38.3197 32.4643 38.2672C32.5194 38.2146 32.5844 38.1734 32.6555 38.146C32.7265 38.1186 32.8023 38.1054 32.8785 38.1072C32.9546 38.1091 33.0297 38.1259 33.0993 38.1567C33.169 38.1876 33.2319 38.2319 33.2844 38.287C33.337 38.3422 33.3781 38.4071 33.4056 38.4782C33.433 38.5493 33.4462 38.625 33.4444 38.7012C33.4425 38.7774 33.4257 38.8524 33.3948 38.9221L32.5997 40.7183L34.3977 41.5083C34.5201 41.5616 34.6205 41.6555 34.6817 41.7742C34.743 41.8929 34.7614 42.0291 34.7339 42.1597C34.7063 42.2904 34.6345 42.4076 34.5306 42.4915C34.4266 42.5754 34.2969 42.6208 34.1633 42.6201ZM28.0084 42.1063C27.9689 42.1063 27.9283 42.1022 27.8883 42.0941C21.7258 40.7984 17.7656 34.7316 19.0613 28.5696C19.077 28.4951 19.1073 28.4244 19.1503 28.3616C19.1934 28.2987 19.2484 28.245 19.3122 28.2034C19.376 28.1618 19.4474 28.1332 19.5223 28.1192C19.5972 28.1053 19.6741 28.1061 19.7486 28.1219C19.8231 28.1376 19.8938 28.1679 19.9567 28.2109C20.0195 28.254 20.0732 28.309 20.1148 28.3728C20.1564 28.4366 20.185 28.508 20.199 28.5829C20.213 28.6577 20.2121 28.7346 20.1964 28.8092C19.0323 34.3447 22.59 39.7955 28.1273 40.9596C28.2667 40.99 28.3899 41.0707 28.4736 41.1863C28.5572 41.3019 28.5953 41.4442 28.5806 41.5861C28.5659 41.728 28.4994 41.8595 28.3938 41.9555C28.2883 42.0514 28.151 42.1051 28.0084 42.1063Z" fill="black"/>
<path d="M21.2281 30.6937C21.142 30.6939 21.057 30.675 20.9793 30.6381C20.9015 30.6013 20.8329 30.5476 20.7786 30.4809L19.5356 28.9595L18.0184 30.2054C17.9595 30.2537 17.8917 30.29 17.8189 30.3122C17.746 30.3344 17.6695 30.342 17.5937 30.3346C17.5179 30.3271 17.4443 30.3049 17.3771 30.269C17.3099 30.2332 17.2504 30.1844 17.202 30.1256C17.1536 30.0668 17.1173 29.999 17.0952 29.9261C17.073 29.8532 17.0654 29.7767 17.0728 29.7009C17.0802 29.6251 17.1025 29.5515 17.1383 29.4843C17.1742 29.4171 17.2229 29.3576 17.2818 29.3093L19.2497 27.694C19.3692 27.5965 19.5281 27.5519 19.6748 27.5646C19.7508 27.5721 19.8245 27.5945 19.8918 27.6305C19.9591 27.6665 20.0186 27.7155 20.0669 27.7746L21.6776 29.746C21.7473 29.8309 21.7915 29.9339 21.8049 30.0429C21.8183 30.152 21.8004 30.2626 21.7534 30.3619C21.7063 30.4612 21.632 30.545 21.5391 30.6037C21.4462 30.6623 21.3385 30.6933 21.2287 30.6931L21.2281 30.6937ZM29.8359 35.7101C27.4091 35.7101 25.4342 33.7335 25.4342 31.3033C25.4342 28.8772 27.4091 26.9028 29.8364 26.9028C32.2626 26.9028 34.2369 28.8772 34.2369 31.3033C34.2369 33.7335 32.2626 35.7101 29.8359 35.7101ZM29.8359 28.0628C28.9766 28.0638 28.1528 28.4054 27.5451 29.0129C26.9374 29.6204 26.5955 30.444 26.5942 31.3033C26.5942 33.0938 28.0489 34.5501 29.8364 34.5501C31.6228 34.5501 33.0769 33.0943 33.0769 31.3033C33.076 30.4441 32.7342 29.6203 32.1266 29.0128C31.5189 28.4052 30.6951 28.0636 29.8359 28.0628Z" fill="black"/>
</svg>
