<svg width="58" height="58" viewBox="0 0 58 58" fill="none" xmlns="http://www.w3.org/2000/svg">
<g clip-path="url(#clip0_2001_6332)">
<path d="M56.6964 51.8287C55.8002 50.7779 54.4794 50.1847 53.107 50.1446C50.859 49.9654 49.5406 47.3485 50.7621 45.4352L56.6602 36.1957C58.169 33.8327 57.2374 30.7176 54.8248 29.4023C55.2089 28.7995 55.4599 28.3932 55.5433 28.2347C56.5772 26.2713 55.8005 23.7716 53.8368 22.7387C51.8508 21.6939 49.3841 22.459 48.3387 24.4442C48.2702 24.5743 48.1248 24.892 47.9162 25.3643L46.221 24.3971C45.0684 23.745 44.5566 22.3144 45.2343 21.1159C45.7716 20.1649 44.3012 19.3335 43.7634 20.2843C42.6571 22.2414 43.4176 24.8214 45.3953 25.8714L47.2385 26.923C46.2413 29.2399 44.6972 32.8966 43.0283 36.8702C41.8472 34.7461 40.6503 32.6273 40.1167 30.232C38.758 24.1345 41.8597 18.3788 45.0731 13.5526C45.9497 12.236 46.1341 11.0103 45.6212 9.90942C44.405 7.29955 39.5657 6.4416 35.4856 5.98566C33.1007 5.71916 32.998 4.15184 32.998 2.1591C32.998 -0.725496 25.0009 -0.713895 25.0009 2.1591C25.0009 4.07108 24.9686 5.71601 22.6229 5.97C18.3752 6.42888 13.3481 7.2893 12.1667 9.89219C11.8464 10.5977 11.6813 11.7483 12.7136 13.222C14.6915 16.0458 16.0894 18.5917 16.9871 21.0051C17.4667 22.2942 17.8025 23.5541 17.9984 24.7804L16.5664 24.812C16.5555 24.8122 16.5445 24.8127 16.5335 24.8133C10.0189 25.2108 5.3422 27.0872 2.6332 30.3907C0.67639 32.7767 -0.158013 35.909 0.27935 39.2165V51.1764C0.27935 52.7147 1.30985 54.4158 3.03588 55.7267C4.96566 57.1925 7.57001 57.9998 10.369 57.9998C16.488 57.9998 22.0911 53.0331 22.3266 52.8217C22.4148 52.7425 22.4854 52.6455 22.5337 52.5372C22.5821 52.4289 22.607 52.3117 22.6071 52.1931V52.1717H26.2858V57.0861C26.2858 58.1783 27.9754 58.1783 27.9754 57.0861V52.1717H30.0233V57.0861C30.0233 58.1783 31.7128 58.1783 31.7128 57.0861V52.1717H36.6296C35.558 54.7426 34.8235 56.5081 34.7041 56.7952C34.3274 57.7008 35.6467 58.3976 36.1868 57.5884C36.389 57.2854 37.8088 55.157 39.7958 52.1717H44.2003C45.4932 52.1717 46.5451 51.1156 46.5451 49.8175C46.5451 47.3926 46.2845 45.2269 45.7496 43.2113C48.8921 38.4721 52.0512 33.689 53.9088 30.8246C55.4775 31.756 56.3196 33.589 55.2359 35.2866L49.3378 44.526C47.437 47.5036 49.4666 51.5491 52.9725 51.8287C54.9239 51.8947 56.1317 53.3542 56.1317 55.2265V57.1196C56.1317 58.2119 57.8213 58.2119 57.8213 57.1196V55.2586C57.9125 54.0039 57.5137 52.7871 56.6964 51.8287ZM2.54028 33.8134V36.5975C2.54028 37.6897 4.22981 37.6897 4.22981 36.5975V31.1262C4.75469 30.5431 5.35864 30.0134 6.04132 29.5376V30.9669C6.04132 32.0592 7.73085 32.0592 7.73085 30.9669V28.5478C8.38639 28.2256 9.09442 27.9401 9.85336 27.6908V32.5486C9.85336 33.6408 11.5429 33.6408 11.5429 32.5486V27.2157C12.2015 27.0593 12.8928 26.9265 13.6152 26.8161V28.7167C13.6152 29.8089 15.3047 29.8089 15.3047 28.7167V26.6059C16.2654 26.512 17.216 26.4875 18.1796 26.4664C18.3858 30.3297 16.8106 33.5625 14.9859 36.8417C9.03776 37.4091 5.24984 39.8295 3.83446 42.1936C2.59975 41.1782 1.96888 40.0019 1.96888 39.1643C1.96888 39.1599 1.96832 39.1558 1.9682 39.1514C1.96798 39.1366 1.96697 39.1217 1.96595 39.1069C1.96494 39.092 1.96392 39.0771 1.96212 39.0625C1.96156 39.0582 1.96156 39.0539 1.961 39.0497C1.76524 37.6201 1.76794 35.7231 2.54028 33.8134ZM10.369 44.2982C8.27702 44.2982 6.5644 43.8168 5.24319 43.1221C5.74712 42.2257 6.74237 41.3202 8.07304 40.5655C9.25875 39.8931 11.199 39.0658 14.0131 38.6578C13.2227 40.2217 12.5031 41.9556 12.0267 44.1313C11.479 44.2381 10.9247 44.2982 10.369 44.2982ZM1.96888 51.1765V42.7649C2.51246 43.3352 3.14051 43.8311 3.81047 44.2452V46.5926C3.81047 47.6848 5.5 47.6848 5.5 46.5926V45.091C6.16973 45.3575 6.87922 45.5655 7.61664 45.7147V50.8002C7.61664 51.8924 9.30617 51.8924 9.30617 50.8002V45.9482C10.0103 46.0006 10.7199 46.0041 11.4228 45.9291V47.7845C11.4228 48.8768 13.1123 48.8768 13.1123 47.7845V45.616C13.8676 45.4177 14.6013 45.1499 15.3041 44.8375V55.2152C13.7801 55.8491 12.0839 56.3103 10.369 56.3103C4.85392 56.3103 1.96888 52.9681 1.96888 51.1765ZM20.9175 51.8025C20.3346 52.2833 18.8886 53.4093 16.9937 54.4156V43.9762C18.6034 43.0514 19.9652 41.9772 20.9175 41.1401V51.8025ZM22.6071 50.4821V39.1643C22.6071 38.4112 21.6539 38.0387 21.1423 38.5904C21.1011 38.6349 17.8811 42.0677 13.8997 43.5875C14.5931 41.0115 15.6725 39.0754 16.723 37.1961C17.8169 35.2391 18.9481 33.2154 19.5311 30.5992C20.2341 27.4447 19.9109 24.0186 18.5707 20.4159C17.622 17.8661 16.1589 15.1958 14.0975 12.2527C13.4015 11.2591 13.63 10.7558 13.7051 10.5903C14.1315 9.65115 16.0561 8.37848 22.8044 7.64962C26.0593 7.29797 26.6904 4.97971 26.6904 2.15898C26.6904 1.77321 31.3085 1.8008 31.3085 2.15898C31.3085 5.06295 31.97 7.292 35.2979 7.6646C36.404 7.78816 38.4629 8.01827 40.3328 8.51578C42.951 9.21243 43.821 10.0462 44.0898 10.623C44.1818 10.8205 44.4619 11.4218 43.6666 12.6162C40.2558 17.7389 36.9707 23.8817 38.4676 30.5992C39.139 33.6122 40.7704 36.1729 42.1904 38.8667C40.568 42.737 38.9492 46.6089 37.3341 50.4823H22.6071V50.4821ZM44.8557 49.8175C44.8557 50.184 44.5617 50.4821 44.2004 50.4821H40.9202C42.0127 48.8399 43.219 47.025 44.4569 45.16C44.7244 46.6026 44.8557 48.1415 44.8557 49.8175ZM39.6243 49.3796C44.0258 38.8326 49.3318 26.184 49.8335 25.2312C50.4325 24.0938 51.9132 23.6356 53.0504 24.2338C54.1766 24.8261 54.647 26.3109 54.0485 27.4472C53.9734 27.5899 53.7332 27.9774 53.3606 28.5607L52.0879 27.8294L52.4134 27.2339C52.9372 26.2755 51.4548 25.4649 50.9309 26.4235L49.4968 29.047C48.986 29.9816 50.4614 30.8047 50.9793 29.8574L51.2774 29.3122L52.4435 29.9823C49.7318 34.1569 44.146 42.5811 39.6243 49.3796Z" fill="black"/>
</g>
<defs>
<clipPath id="clip0_2001_6332">
<rect width="58" height="58" fill="white"/>
</clipPath>
</defs>
</svg>
