<svg width="58" height="58" viewBox="0 0 58 58" fill="none" xmlns="http://www.w3.org/2000/svg">
<path d="M27.7175 8.94974C27.534 8.9537 27.3534 8.99799 27.1888 9.07944L2.12084 21.6134C1.50243 21.9243 1.2531 22.6777 1.56394 23.2961C1.68494 23.5368 1.88021 23.732 2.12084 23.853L10.2052 27.8964V40.2836C10.2052 41.8761 10.8837 43.317 11.9454 44.4371C13.007 45.5571 14.4292 46.4075 16.0695 47.0805C19.3502 48.4264 23.5431 49.0508 27.7444 49.0508C31.9457 49.0508 36.1385 48.4264 39.4193 47.0805C41.0596 46.4075 42.4817 45.5573 43.5434 44.4371C44.6052 43.3171 45.2933 41.8762 45.2933 40.2836V27.8915L51.5567 24.7586V35.5009C50.1062 36.0237 49.0479 37.4035 49.0479 39.023C49.0479 41.0845 50.7533 42.7898 52.8148 42.7898C54.8763 42.7898 56.5694 41.0845 56.5694 39.023C56.5694 37.4007 55.5147 36.0192 54.063 35.4984V22.7345H54.0579C54.0581 22.502 53.9937 22.274 53.8718 22.0761C53.7499 21.8781 53.5754 21.7179 53.3677 21.6134L28.3099 9.07944C28.126 8.98838 27.9226 8.94384 27.7175 8.94974ZM27.7445 11.6054L50.01 22.7345L27.7445 33.8709L5.48619 22.7345L27.7445 11.6054ZM42.7848 29.1471V40.2836C42.7848 41.1973 42.4525 41.947 41.7323 42.7066C41.0122 43.4663 39.8888 44.18 38.4746 44.7602C35.6462 45.9205 31.6887 46.5445 27.7445 46.5445C23.8003 46.5445 19.8525 45.9205 17.0241 44.7602C15.6099 44.18 14.4865 43.4664 13.7664 42.7066C13.0462 41.947 12.7115 41.1973 12.7115 40.2836V29.1496L27.1888 36.387C27.3629 36.474 27.5548 36.5193 27.7494 36.5193C27.9439 36.5193 28.1358 36.474 28.3099 36.387L42.7848 29.1471ZM15.8394 36.5167V39.3388C15.8394 41.747 17.8148 43.7224 20.2231 43.7224H22.7294V41.2161H20.2231C19.16 41.2161 18.3458 40.4018 18.3458 39.3388V36.5167H15.8394ZM52.815 37.7748C53.522 37.7748 54.0632 38.3162 54.0632 39.0231C54.0632 39.7301 53.522 40.2836 52.815 40.2836C52.108 40.2836 51.5569 39.73 51.5569 39.0231C51.5569 38.3162 52.108 37.7748 52.815 37.7748Z" fill="black"/>
</svg>
