<svg width="58" height="58" viewBox="0 0 58 58" fill="none" xmlns="http://www.w3.org/2000/svg">
<path d="M39.9022 30.4502C39.4296 30.4489 38.9614 30.5413 38.5248 30.7222C38.0881 30.903 37.6917 31.1686 37.3584 31.5037L36.2499 32.6124L35.1416 31.5041C34.8075 31.17 34.4109 30.905 33.9744 30.7241C33.5379 30.5433 33.0701 30.4502 32.5976 30.4502C32.1252 30.4502 31.6573 30.5433 31.2208 30.724C30.7843 30.9048 30.3877 31.1698 30.0536 31.5039C29.7195 31.838 29.4545 32.2346 29.2737 32.6711C29.0928 33.1076 28.9998 33.5754 28.9998 34.0478C28.9997 34.5203 29.0928 34.9881 29.2736 35.4247C29.4544 35.8612 29.7194 36.2578 30.0534 36.5919L35.6088 42.1474C35.693 42.2316 35.7929 42.2983 35.9029 42.3439C36.0128 42.3894 36.1307 42.4129 36.2497 42.4129C36.3687 42.4129 36.4865 42.3894 36.5965 42.3439C36.7065 42.2983 36.8064 42.2316 36.8905 42.1474L42.4464 36.5919C42.9496 36.0887 43.2922 35.4476 43.431 34.7497C43.5698 34.0518 43.4986 33.3284 43.2262 32.671C42.9539 32.0136 42.4927 31.4517 41.9011 31.0564C41.3094 30.6611 40.6138 30.4502 39.9022 30.4502ZM41.1646 35.31L36.2499 40.2249L31.3352 35.31C31.008 34.9737 30.8263 34.522 30.8296 34.0528C30.8328 33.5836 31.0206 33.1345 31.3524 32.8027C31.6842 32.4709 32.1333 32.2831 32.6025 32.2799C33.0718 32.2767 33.5234 32.4584 33.8597 32.7856L35.6088 34.5348C35.693 34.619 35.7929 34.6857 35.9029 34.7313C36.0128 34.7768 36.1307 34.8002 36.2497 34.8002C36.3687 34.8002 36.4865 34.7768 36.5965 34.7313C36.7065 34.6857 36.8064 34.619 36.8905 34.5348L38.6401 32.7855C38.9763 32.4573 39.4282 32.2749 39.898 32.2777C40.3677 32.2805 40.8174 32.4683 41.1496 32.8005C41.4818 33.1327 41.6697 33.5824 41.6725 34.0522C41.6753 34.5219 41.4928 34.9739 41.1646 35.31Z" fill="black"/>
<path d="M53.9308 16.4391L29.4621 1.93906C29.3218 1.85595 29.1617 1.81222 28.9986 1.8125C28.8355 1.81278 28.6756 1.85705 28.5355 1.94065L4.0668 16.545C3.93212 16.6254 3.8206 16.7393 3.74317 16.8757C3.66573 17.0121 3.62501 17.1663 3.625 17.3231V55.3856C3.625 55.626 3.72048 55.8565 3.89043 56.0264C4.06039 56.1964 4.2909 56.2919 4.53125 56.2919H4.53318L53.4707 56.1875C53.7107 56.187 53.9407 56.0913 54.1102 55.9214C54.2798 55.7515 54.375 55.5213 54.375 55.2813V17.2188C54.375 17.0614 54.334 16.9068 54.2561 16.7701C54.1782 16.6334 54.0661 16.5193 53.9308 16.4391ZM21.75 30.8882V33.5313C21.75 33.6996 21.7969 33.8645 21.8853 34.0077C21.9738 34.1508 22.1004 34.2665 22.2509 34.3418L25.409 35.9208C25.9966 36.2123 26.5093 36.635 26.9074 37.1562C27.3055 37.6775 27.5784 38.2833 27.705 38.9269L28.1114 40.959C28.1465 41.1345 28.2328 41.2956 28.3593 41.4221L28.4512 41.514C28.7669 41.8292 28.9552 42.2498 28.9799 42.6953C29.0046 43.1408 28.8639 43.5797 28.5848 43.9278L28.2927 44.293L28.0005 44.6582C27.6353 45.1148 27.1778 45.4892 26.658 45.757C26.1382 46.0248 25.5678 46.1799 24.9839 46.2122C24.4001 46.2445 23.816 46.1534 23.2699 45.9446C22.7237 45.7359 22.2277 45.4142 21.8142 45.0008L21.4849 44.6715C21.315 44.5015 21.0844 44.406 20.8441 44.406C20.6037 44.406 20.3732 44.5015 20.2033 44.6715C20.0333 44.8414 19.9378 45.0719 19.9378 45.3123C19.9378 45.5527 20.0333 45.7832 20.2033 45.9531L20.5326 46.2824C21.0871 46.837 21.7454 47.2768 22.4699 47.5769C23.1945 47.8769 23.971 48.0313 24.7552 48.0312C25.5394 48.031 26.3159 47.8764 27.0404 47.576C27.7648 47.2757 28.4229 46.8356 28.9772 46.2809L30.1048 47.6914C30.2224 47.8384 30.3828 47.9451 30.5637 47.9967L30.8076 48.0665C32.2239 48.4763 33.489 49.2923 34.4465 50.4135C35.4039 51.5347 36.0116 52.912 36.1945 54.375H15.1695L14.8183 53.2333C13.8902 50.2241 13.6275 47.049 14.0486 43.9282C14.4696 40.8074 15.5643 37.8154 17.2568 35.1598L17.9836 34.0178C18.0003 33.9916 18.0157 33.9644 18.0296 33.9366L18.2393 33.5175C18.5775 32.8348 19.0715 32.2412 19.6813 31.7845C20.2911 31.3277 20.9997 31.0207 21.75 30.8882ZM31.3395 46.3332L30.1547 44.8522C30.6217 44.1756 30.8446 43.3602 30.7867 42.5401C30.7287 41.72 30.3934 40.944 29.8359 40.3398L29.4822 38.5713C29.3023 37.6568 28.9145 36.7959 28.3488 36.0552C27.7831 35.3145 27.0547 34.7139 26.2197 34.2997L23.5625 32.9712V30.2396L27.2695 29.9025C27.4232 29.8886 27.5708 29.8356 27.6983 29.7486C27.8258 29.6615 27.929 29.5434 27.998 29.4053L28.9043 27.5928C29.0096 27.3781 29.0257 27.1305 28.9492 26.904C28.8727 26.6774 28.7098 26.4903 28.4959 26.3833C28.282 26.2763 28.0346 26.2583 27.8074 26.333C27.5803 26.4077 27.3918 26.5692 27.2832 26.7822L26.6026 28.1433L17.6737 28.9547L16.663 27.4386L16.7816 27.3593C17.4563 26.9077 17.9696 26.253 18.247 25.49C18.5244 24.727 18.5515 23.8955 18.3244 23.1161L21.2491 21.6537C21.4476 21.5545 21.6028 21.3858 21.6852 21.1798L22.7954 18.4044C22.9662 17.9762 23.2285 17.5904 23.5639 17.2741C23.8993 16.9578 24.2997 16.7186 24.7372 16.5732L26.8896 15.8557C27.2205 15.746 27.562 15.6713 27.9085 15.6326C28.2712 16.0495 28.597 16.4971 28.8821 16.9705L29.8051 18.5089C30.4644 19.6077 30.8126 20.8651 30.8125 22.1465V24.0414C30.8125 25.2431 31.2899 26.3957 32.1397 27.2454C32.9894 28.0952 34.142 28.5726 35.3438 28.5726C36.5455 28.5726 37.6981 28.0952 38.5478 27.2454C39.3976 26.3957 39.875 25.2431 39.875 24.0414C39.8748 23.674 39.8518 23.307 39.8059 22.9425C40.1689 23.4113 40.516 23.8937 40.8474 24.3897C43.7979 28.8261 45.6628 33.8946 46.2913 39.1854C46.8363 43.7718 46.4299 48.4214 45.0973 52.8437L44.6328 54.3938L38.0197 54.408C37.8387 52.5493 37.1059 50.7871 35.9154 49.3482C34.725 47.9092 33.1314 46.8592 31.3395 46.3332ZM15.4867 25.6744C15.4154 25.5675 15.3677 25.4467 15.3467 25.3199C15.3257 25.1931 15.3319 25.0633 15.3649 24.9391C15.3978 24.8149 15.4569 24.6992 15.538 24.5995C15.6191 24.4999 15.7205 24.4186 15.8355 24.3612L16.6511 23.9534C16.6942 24.3196 16.6354 24.6906 16.4811 25.0255C16.3268 25.3604 16.083 25.6463 15.7767 25.8515L15.6582 25.9308L15.4867 25.6744ZM35.6754 18.7467C36.4248 19.4104 37.0251 20.2254 37.4365 21.1379C37.848 22.0505 38.0613 23.0399 38.0625 24.0409C38.0642 24.5462 37.9244 25.0418 37.6587 25.4716C37.3931 25.9014 37.0124 26.2482 36.5597 26.4726C36.1819 26.6604 35.7657 26.7581 35.3438 26.7581C34.9219 26.7581 34.5057 26.6604 34.1279 26.4726C33.6752 26.2482 33.2944 25.9014 33.0288 25.4716C32.7631 25.0418 32.6233 24.5462 32.625 24.0409V22.1465C32.6249 20.5371 32.1875 18.958 31.3595 17.5779L30.4365 16.0394C30.4102 15.9957 30.3815 15.9534 30.3546 15.91C31.8713 16.3222 33.3022 17.0017 34.58 17.9167C34.9538 18.1835 35.319 18.4602 35.6754 18.7467ZM52.5625 54.377L46.5261 54.3898L46.8336 53.3646C48.2375 48.705 48.6655 43.8061 48.0911 38.9737C47.4292 33.399 45.4645 28.0584 42.3559 23.3839C40.8383 21.1051 38.9791 19.0733 36.8436 17.3599C36.6238 17.1672 36.3946 16.9853 36.1569 16.8152C36.1292 16.7955 36.1004 16.7774 36.0707 16.7609C35.9261 16.653 35.7805 16.5465 35.6339 16.4414C33.8952 15.1958 31.9105 14.336 29.8127 13.9196C28.6484 13.6871 27.4436 13.7621 26.317 14.1372L24.1647 14.8546C23.4772 15.0831 22.8479 15.459 22.3208 15.956C21.7937 16.453 21.3815 17.0591 21.113 17.7319L20.1301 20.1873L15.0246 22.74C14.6798 22.9124 14.3756 23.1562 14.1322 23.4551C13.8888 23.754 13.7118 24.1013 13.6128 24.4739C13.5139 24.8465 13.4953 25.2359 13.5583 25.6162C13.6213 25.9965 13.7645 26.359 13.9783 26.6798L14.6518 27.6898L16.4643 30.4086C16.5548 30.5443 16.6802 30.653 16.8273 30.7234C16.9745 30.7937 17.1379 30.8231 17.3003 30.8083L18.1072 30.7349C17.4933 31.2945 16.9882 31.9627 16.6175 32.706L16.4286 33.0837L15.7269 34.1862C13.8934 37.0631 12.7075 40.3043 12.2513 43.6852C11.7952 47.0661 12.0797 50.5057 13.0852 53.7657L13.2989 54.4601L5.4375 54.477V17.8376L29.0017 3.7732L52.5625 17.7352V54.377Z" fill="black"/>
<path d="M24.4688 41.1211C25.1569 41.1211 25.7148 40.5632 25.7148 39.875C25.7148 39.1868 25.1569 38.6289 24.4688 38.6289C23.7806 38.6289 23.2227 39.1868 23.2227 39.875C23.2227 40.5632 23.7806 41.1211 24.4688 41.1211Z" fill="black"/>
<path d="M25.0352 22.6562C25.7234 22.6562 26.2812 22.0984 26.2812 21.4102C26.2812 20.722 25.7234 20.1641 25.0352 20.1641C24.347 20.1641 23.7891 20.722 23.7891 21.4102C23.7891 22.0984 24.347 22.6562 25.0352 22.6562Z" fill="black"/>
</svg>
