<svg width="58" height="58" viewBox="0 0 58 58" fill="none" xmlns="http://www.w3.org/2000/svg">
<path d="M8.45825 29.6041C8.45825 29.4439 8.52191 29.2902 8.63521 29.1769C8.74851 29.0636 8.90218 28.9999 9.06242 28.9999H12.6874C12.8477 28.9999 13.0013 29.0636 13.1146 29.1769C13.2279 29.2902 13.2916 29.4439 13.2916 29.6041C13.2916 29.7643 13.2279 29.918 13.1146 30.0313C13.0013 30.1446 12.8477 30.2083 12.6874 30.2083H9.66659V33.8333H12.0833C12.2435 33.8333 12.3972 33.8969 12.5105 34.0102C12.6238 34.1235 12.6874 34.2772 12.6874 34.4374C12.6874 34.5977 12.6238 34.7514 12.5105 34.8647C12.3972 34.978 12.2435 35.0416 12.0833 35.0416H9.66659V38.6666H12.6874C12.8477 38.6666 13.0013 38.7303 13.1146 38.8436C13.2279 38.9569 13.2916 39.1105 13.2916 39.2708C13.2916 39.431 13.2279 39.5847 13.1146 39.698C13.0013 39.8113 12.8477 39.8749 12.6874 39.8749H9.06242C8.90218 39.8749 8.74851 39.8113 8.63521 39.698C8.52191 39.5847 8.45825 39.431 8.45825 39.2708V29.6041ZM27.7916 29.6041C27.7916 29.4439 27.7279 29.2902 27.6146 29.1769C27.5013 29.0636 27.3477 28.9999 27.1874 28.9999H23.5624C23.4022 28.9999 23.2485 29.0636 23.1352 29.1769C23.0219 29.2902 22.9583 29.4439 22.9583 29.6041V39.2708C22.9583 39.431 23.0219 39.5847 23.1352 39.698C23.2485 39.8113 23.4022 39.8749 23.5624 39.8749H27.1874C27.3477 39.8749 27.5013 39.8113 27.6146 39.698C27.7279 39.5847 27.7916 39.431 27.7916 39.2708C27.7916 39.1105 27.7279 38.9569 27.6146 38.8436C27.5013 38.7303 27.3477 38.6666 27.1874 38.6666H24.1666V35.0416H26.5833C26.7435 35.0416 26.8972 34.978 27.0105 34.8647C27.1238 34.7514 27.1874 34.5977 27.1874 34.4374C27.1874 34.2772 27.1238 34.1235 27.0105 34.0102C26.8972 33.8969 26.7435 33.8333 26.5833 33.8333H24.1666V30.2083H27.1874C27.3477 30.2083 27.5013 30.1446 27.6146 30.0313C27.7279 29.918 27.7916 29.7643 27.7916 29.6041ZM30.7037 29.0096C30.843 28.9841 30.9868 29.0084 31.1101 29.0782C31.2333 29.148 31.3281 29.2589 31.3779 29.3914L33.8333 35.9394V29.6041C33.8333 29.4439 33.8969 29.2902 34.0102 29.1769C34.1235 29.0636 34.2772 28.9999 34.4374 28.9999C34.5977 28.9999 34.7513 29.0636 34.8646 29.1769C34.9779 29.2902 35.0416 29.4439 35.0416 29.6041V39.2708C35.0416 39.4123 34.9919 39.5493 34.9013 39.6579C34.8106 39.7665 34.6847 39.8399 34.5455 39.8652C34.4063 39.8905 34.2626 39.8662 34.1395 39.7964C34.0164 39.7266 33.9217 39.6159 33.8719 39.4834L31.4166 32.9355V39.2708C31.4166 39.431 31.3529 39.5847 31.2396 39.698C31.1263 39.8113 30.9727 39.8749 30.8124 39.8749C30.6522 39.8749 30.4985 39.8113 30.3852 39.698C30.2719 39.5847 30.2083 39.431 30.2083 39.2708V29.6041C30.2082 29.4627 30.2578 29.3258 30.3483 29.2171C30.4388 29.1085 30.5646 29.0351 30.7037 29.0096ZM41.6874 30.2083H40.4791V39.2708C40.4791 39.431 40.4154 39.5847 40.3021 39.698C40.1888 39.8113 40.0352 39.8749 39.8749 39.8749C39.7147 39.8749 39.561 39.8113 39.4477 39.698C39.3344 39.5847 39.2708 39.431 39.2708 39.2708V30.2083H38.0624C37.9022 30.2083 37.7485 30.1446 37.6352 30.0313C37.5219 29.918 37.4583 29.7643 37.4583 29.6041C37.4583 29.4439 37.5219 29.2902 37.6352 29.1769C37.7485 29.0636 37.9022 28.9999 38.0624 28.9999H41.6874C41.8477 28.9999 42.0013 29.0636 42.1146 29.1769C42.2279 29.2902 42.2916 29.4439 42.2916 29.6041C42.2916 29.7643 42.2279 29.918 42.1146 30.0313C42.0013 30.1446 41.8477 30.2083 41.6874 30.2083ZM16.9069 29.4929C16.8774 29.3354 16.7866 29.1961 16.6544 29.1056C16.5221 29.015 16.3594 28.9807 16.2019 29.0102C16.0443 29.0397 15.905 29.1305 15.8145 29.2628C15.7239 29.395 15.6896 29.5578 15.7191 29.7153L17.5316 39.3819C17.5582 39.5198 17.6319 39.6442 17.7402 39.7336C17.8484 39.8231 17.9845 39.872 18.1249 39.872C18.2654 39.872 18.4014 39.8231 18.5097 39.7336C18.6179 39.6442 18.6917 39.5198 18.7182 39.3819L20.5307 29.7153C20.5491 29.6359 20.5513 29.5536 20.5371 29.4733C20.5228 29.393 20.4925 29.3165 20.4479 29.2483C20.4033 29.18 20.3454 29.1215 20.2776 29.0763C20.2098 29.031 20.1335 29 20.0534 28.9849C19.9733 28.9699 19.891 28.9713 19.8114 28.9889C19.7318 29.0066 19.6566 29.0401 19.5904 29.0876C19.5241 29.135 19.4681 29.1954 19.4258 29.2651C19.3835 29.3348 19.3557 29.4123 19.3441 29.4929L18.1249 35.9926L16.9069 29.4929ZM48.3333 36.2499V37.4583C48.3333 37.7787 48.2059 38.0861 47.9793 38.3127C47.7527 38.5393 47.4454 38.6666 47.1249 38.6666C46.8045 38.6666 46.4971 38.5393 46.2705 38.3127C46.0439 38.0861 45.9166 37.7787 45.9166 37.4583V36.8541C45.9166 36.6939 45.8529 36.5402 45.7396 36.4269C45.6263 36.3136 45.4727 36.2499 45.3124 36.2499C45.1522 36.2499 44.9985 36.3136 44.8852 36.4269C44.7719 36.5402 44.7083 36.6939 44.7083 36.8541V37.4583C44.7083 38.0992 44.9629 38.7139 45.4161 39.1671C45.8693 39.6203 46.484 39.8749 47.1249 39.8749C47.7659 39.8749 48.3806 39.6203 48.8338 39.1671C49.287 38.7139 49.5416 38.0992 49.5416 37.4583V36.2499C49.5416 35.609 49.287 34.9943 48.8338 34.5411C48.3806 34.0879 47.7659 33.8333 47.1249 33.8333C46.8045 33.8333 46.4971 33.706 46.2705 33.4794C46.0439 33.2528 45.9166 32.9454 45.9166 32.6249V31.4166C45.9166 31.0961 46.0439 30.7888 46.2705 30.5622C46.4971 30.3356 46.8045 30.2083 47.1249 30.2083C47.4454 30.2083 47.7527 30.3356 47.9793 30.5622C48.2059 30.7888 48.3333 31.0961 48.3333 31.4166V32.0208C48.3333 32.181 48.3969 32.3347 48.5102 32.448C48.6235 32.5613 48.7772 32.6249 48.9374 32.6249C49.0977 32.6249 49.2513 32.5613 49.3646 32.448C49.4779 32.3347 49.5416 32.181 49.5416 32.0208V31.4166C49.5416 30.7757 49.287 30.161 48.8338 29.7078C48.3806 29.2546 47.7659 28.9999 47.1249 28.9999C46.484 28.9999 45.8693 29.2546 45.4161 29.7078C44.9629 30.161 44.7083 30.7757 44.7083 31.4166V32.6249C44.7083 33.2659 44.9629 33.8806 45.4161 34.3338C45.8693 34.787 46.484 35.0416 47.1249 35.0416C47.4454 35.0416 47.7527 35.1689 47.9793 35.3955C48.2059 35.6221 48.3333 35.9295 48.3333 36.2499Z" fill="black"/>
<path fillRule="evenodd" clipRule="evenodd" d="M12.6874 9.6665C12.2067 9.6665 11.7457 9.85746 11.4058 10.1974C11.0659 10.5373 10.8749 10.9983 10.8749 11.479V13.2915H7.24992C6.60898 13.2915 5.99429 13.5461 5.54108 13.9993C5.08786 14.4525 4.83325 15.0672 4.83325 15.7082V45.9165C4.83325 46.5574 5.08786 47.1721 5.54108 47.6253C5.99429 48.0786 6.60898 48.3332 7.24992 48.3332H50.7499C51.3909 48.3332 52.0056 48.0786 52.4588 47.6253C52.912 47.1721 53.1666 46.5574 53.1666 45.9165V15.7082C53.1666 15.0672 52.912 14.4525 52.4588 13.9993C52.0056 13.5461 51.3909 13.2915 50.7499 13.2915H47.1249V11.479C47.1249 10.9983 46.934 10.5373 46.5941 10.1974C46.2541 9.85746 45.7931 9.6665 45.3124 9.6665C44.8317 9.6665 44.3707 9.85746 44.0308 10.1974C43.6909 10.5373 43.4999 10.9983 43.4999 11.479V13.2915H36.2499V11.479C36.2499 10.9983 36.059 10.5373 35.719 10.1974C35.3791 9.85746 34.9181 9.6665 34.4374 9.6665C33.9567 9.6665 33.4957 9.85746 33.1558 10.1974C32.8159 10.5373 32.6249 10.9983 32.6249 11.479V13.2915H25.3749V11.479C25.3749 10.9983 25.184 10.5373 24.844 10.1974C24.5041 9.85746 24.0431 9.6665 23.5624 9.6665C23.0817 9.6665 22.6207 9.85746 22.2808 10.1974C21.9409 10.5373 21.7499 10.9983 21.7499 11.479V13.2915H14.4999V11.479C14.4999 10.9983 14.309 10.5373 13.9691 10.1974C13.6291 9.85746 13.1681 9.6665 12.6874 9.6665ZM13.2916 16.3123V11.479C13.2916 11.3188 13.2279 11.1651 13.1146 11.0518C13.0013 10.9385 12.8477 10.8748 12.6874 10.8748C12.5272 10.8748 12.3735 10.9385 12.2602 11.0518C12.1469 11.1651 12.0833 11.3188 12.0833 11.479V16.3123C12.0833 16.4726 12.1469 16.6262 12.2602 16.7395C12.3735 16.8529 12.5272 16.9165 12.6874 16.9165C12.8477 16.9165 13.0013 16.8529 13.1146 16.7395C13.2279 16.6262 13.2916 16.4726 13.2916 16.3123ZM6.04159 45.9165V21.7498H51.9583V45.9165C51.9583 46.237 51.8309 46.5443 51.6043 46.7709C51.3777 46.9975 51.0704 47.1248 50.7499 47.1248H7.24992C6.92945 47.1248 6.6221 46.9975 6.3955 46.7709C6.16889 46.5443 6.04159 46.237 6.04159 45.9165ZM6.04159 20.5415H51.9583V15.7082C51.9583 15.3877 51.8309 15.0804 51.6043 14.8538C51.3777 14.6271 51.0704 14.4998 50.7499 14.4998H47.1249V16.3123C47.1249 16.793 46.934 17.2541 46.5941 17.594C46.2541 17.9339 45.7931 18.1248 45.3124 18.1248C44.8317 18.1248 44.3707 17.9339 44.0308 17.594C43.6909 17.2541 43.4999 16.793 43.4999 16.3123V14.4998H36.2499V16.3123C36.2499 16.793 36.059 17.2541 35.719 17.594C35.3791 17.9339 34.9181 18.1248 34.4374 18.1248C33.9567 18.1248 33.4957 17.9339 33.1558 17.594C32.8159 17.2541 32.6249 16.793 32.6249 16.3123V14.4998H25.3749V16.3123C25.3749 16.793 25.184 17.2541 24.844 17.594C24.5041 17.9339 24.0431 18.1248 23.5624 18.1248C23.0817 18.1248 22.6207 17.9339 22.2808 17.594C21.9409 17.2541 21.7499 16.793 21.7499 16.3123V14.4998H14.4999V16.3123C14.4999 16.793 14.309 17.2541 13.9691 17.594C13.6291 17.9339 13.1681 18.1248 12.6874 18.1248C12.2067 18.1248 11.7457 17.9339 11.4058 17.594C11.0659 17.2541 10.8749 16.793 10.8749 16.3123V14.4998H7.24992C6.92945 14.4998 6.6221 14.6271 6.3955 14.8538C6.16889 15.0804 6.04159 15.3877 6.04159 15.7082V20.5415ZM24.1666 16.3123V11.479C24.1666 11.3188 24.1029 11.1651 23.9896 11.0518C23.8763 10.9385 23.7227 10.8748 23.5624 10.8748C23.4022 10.8748 23.2485 10.9385 23.1352 11.0518C23.0219 11.1651 22.9583 11.3188 22.9583 11.479V16.3123C22.9583 16.4726 23.0219 16.6262 23.1352 16.7395C23.2485 16.8529 23.4022 16.9165 23.5624 16.9165C23.7227 16.9165 23.8763 16.8529 23.9896 16.7395C24.1029 16.6262 24.1666 16.4726 24.1666 16.3123ZM35.0416 11.479V16.3123C35.0416 16.4726 34.9779 16.6262 34.8646 16.7395C34.7513 16.8529 34.5977 16.9165 34.4374 16.9165C34.2772 16.9165 34.1235 16.8529 34.0102 16.7395C33.8969 16.6262 33.8333 16.4726 33.8333 16.3123V11.479C33.8333 11.3188 33.8969 11.1651 34.0102 11.0518C34.1235 10.9385 34.2772 10.8748 34.4374 10.8748C34.5977 10.8748 34.7513 10.9385 34.8646 11.0518C34.9779 11.1651 35.0416 11.3188 35.0416 11.479ZM45.9166 16.3123V11.479C45.9166 11.3188 45.8529 11.1651 45.7396 11.0518C45.6263 10.9385 45.4727 10.8748 45.3124 10.8748C45.1522 10.8748 44.9985 10.9385 44.8852 11.0518C44.7719 11.1651 44.7083 11.3188 44.7083 11.479V16.3123C44.7083 16.4726 44.7719 16.6262 44.8852 16.7395C44.9985 16.8529 45.1522 16.9165 45.3124 16.9165C45.4727 16.9165 45.6263 16.8529 45.7396 16.7395C45.8529 16.6262 45.9166 16.4726 45.9166 16.3123Z" fill="black"/>
</svg>
