<svg width="58" height="58" viewBox="0 0 58 58" fill="none" xmlns="http://www.w3.org/2000/svg">
<g clip-path="url(#clip0_2001_4757)">
<path d="M17.9093 15.4334H19.6127V17.1338H17.9093V15.4334ZM21.3162 15.4334H23.0196V17.1338H21.3162V15.4334ZM48.0234 13.901L49.666 13.4511C49.5078 12.8757 49.3213 12.3085 49.1071 11.7514L47.517 12.3612C47.711 12.8659 47.88 13.3797 48.0234 13.901ZM28.0162 3.5415H29.7196V5.24186H28.0162V3.5415ZM26.1017 30.8681L24.5164 30.2459C23.4435 33.0566 19.3774 33.1111 18.2132 30.3446L16.6484 31.0167C18.3957 35.1673 24.4937 35.0819 26.1017 30.8681ZM36.5817 32.4027C35.9153 32.4031 35.2635 32.2083 34.7069 31.8425C34.1503 31.4767 33.7135 30.9559 33.4505 30.3446L31.8857 31.0167C33.6022 35.1005 39.5618 35.0993 41.2776 31.0171L39.713 30.3449C39.4499 30.956 39.0131 31.4768 38.4565 31.8425C37.8999 32.2083 37.2481 32.4031 36.5817 32.4027ZM42.051 27.2004L43.2183 25.9621C41.8171 24.6459 39.9857 23.921 38.0617 23.921H31.6267V25.6214H38.0617C39.5501 25.6214 40.967 26.1821 42.051 27.2004ZM26.4657 25.6214V23.921H19.9554C18.0314 23.921 16.2001 24.6459 14.7988 25.9621L15.9661 27.2004C17.0502 26.1821 18.467 25.6214 19.9553 25.6214H26.4657ZM24.3887 41.887L23.4106 43.2791C26.4532 45.751 31.5668 45.751 34.6094 43.2791L33.6313 41.887C31.2208 43.7601 26.6184 43.7667 24.3887 41.887Z" fill="black"/>
<path d="M44.8611 42.491C45.7003 40.4781 46.2693 38.3196 46.5847 35.9011C48.8877 34.4732 50.3057 31.9259 50.3057 29.2135V18.3486C50.2746 17.0592 50.2046 15.9243 50.0601 15.2355L48.3802 15.5173C48.7525 17.1166 48.5567 23.7708 48.6025 25.6357H46.8272C46.802 14.1078 39.191 5.968 27.1919 7.00305C25.1495 5.85709 25.128 2.95268 27.1605 1.79222H32.1046C38.3795 1.79222 44.0317 5.2703 46.8557 10.8692L48.3773 10.1046C45.3861 4.05434 38.8791 0.0295664 32.1045 0.0920977C25.493 -0.00453125 19.7008 -0.311863 14.3124 4.26119L11.9777 0L9.3426 4.80947L4.52466 7.43986L9.5101 10.2626C8.368 12.1671 7.8723 15.0231 7.70764 18.0595V29.2138C7.70775 31.9262 9.13242 34.4734 11.4356 35.9013C12.0304 41.9855 15.4909 48.3022 20.4772 52.0741V58H22.1806V53.2808C24.2906 54.6404 26.5775 55.6184 29.0005 56.2013C31.4116 55.6219 33.7251 54.6217 35.8441 53.2575V58H37.5475V52.0496C38.5952 51.2343 39.5723 50.3325 40.4685 49.3537L42.6364 53.3103L45.2714 48.5008L50.0894 45.8704L45.2714 43.24L44.8611 42.491ZM48.6089 27.3361C48.6783 29.7756 48.6949 31.728 46.8753 33.5661V27.3361H48.6089ZM8.07453 7.43975L10.5977 6.06225L11.9777 3.54355L13.3576 6.06225L15.8808 7.43975L13.3576 8.81725L11.9777 11.3359L10.5977 8.81725L8.07453 7.43975ZM9.41114 18.2674C9.41114 16.1788 9.79222 14.1654 10.5427 12.2604L11.9778 14.8797L14.6129 10.0703L19.4308 7.43986L15.644 5.37248C18.2364 3.31169 21.3915 2.07979 24.6967 1.83788C23.5699 3.44228 23.6952 5.81903 24.99 7.29191C15.9095 8.78757 11.1591 16.8367 11.1047 25.6358H9.41114V18.2674ZM9.41114 29.2135V27.3361H11.0983V33.5723C9.95858 32.4281 9.41114 30.8596 9.41114 29.2135ZM29.0005 54.4474C15.1035 50.6911 12.0105 38.4673 12.804 25.9453L15.2163 23.5372C19.0905 19.7286 22.3007 22.8887 26.6776 19.034L25.5555 17.7546C21.0082 21.5341 18.4654 17.3323 12.9475 23.3971C13.3515 19.8182 14.5491 16.6092 16.3821 14.1928C21.8527 6.4022 37.7588 6.87527 42.398 15.3293C43.4328 16.9988 44.0835 18.7291 44.4932 20.5123C41.0766 15.7648 35.7761 12.6145 29.8522 11.9491V10.2755H28.1488C28.2217 12.6251 28.1247 14.6798 26.6179 16.6151L27.9769 17.6404C28.8785 16.4496 29.4664 15.0899 29.7155 13.6446C36.4678 14.4195 42.3373 18.7238 45.0896 24.9623C45.0434 29.7077 45.5088 36.0911 43.7854 40.5277L42.6364 38.4305L40.0013 43.24L35.1833 45.8704L39.2946 48.115C36.4988 51.2039 32.8847 53.4326 29.0005 54.4474ZM44.0163 47.248L42.6364 49.7667L41.2564 47.248L38.7332 45.8705L41.2564 44.493L42.6364 41.9743L44.0163 44.493L46.5395 45.8705L44.0163 47.248Z" fill="black"/>
<path d="M52.8581 37.4816H51.1547V39.182H49.4512V40.8824H51.1547V42.5828H52.8581V40.8824H54.5616V39.182H52.8581V37.4816ZM3.45853 12.0562H1.75514V13.7565H0.0517578V15.457H1.75514V17.1573H3.45853V15.457H5.16203V13.7565H3.45853V12.0562ZM56.3484 34.0809H58.0518V35.7812H56.3484V34.0809ZM56.3484 44.2796H58.0518V45.9799H56.3484V44.2796Z" fill="black"/>
</g>
<defs>
<clipPath id="clip0_2001_4757">
<rect width="58" height="58" fill="white"/>
</clipPath>
</defs>
</svg>
