<svg width="58" height="58" viewBox="0 0 58 58" fill="none" xmlns="http://www.w3.org/2000/svg">
<path d="M42.9471 55.6889C42.5302 55.6889 42.1586 55.3989 42.059 54.9729C40.1921 46.4633 42.4939 40.8264 44.7143 35.3798C46.6627 30.6039 48.5024 26.0908 47.4783 19.8014C45.7655 9.25264 39.8386 4.13232 29.3533 4.13232C19.8377 4.13232 12.0983 11.8717 12.0983 21.3873C12.0983 23.218 12.3793 25.0123 12.9411 26.7433C13.0046 26.9426 12.9955 27.1601 12.923 27.3505L10.2405 34.1836C10.159 34.3829 10.2315 34.537 10.2858 34.6095C10.3402 34.682 10.449 34.8179 10.6665 34.8179L13.4486 34.9086C13.8655 34.9176 14.219 35.2167 14.3005 35.6245L15.959 43.2279C16.1276 44.0005 16.5768 44.6829 17.2196 45.1433C17.8625 45.6037 18.6533 45.8092 19.439 45.7201L29.1449 44.5964C29.444 44.4695 31.3561 43.5361 32.5343 39.612C32.6072 39.3851 32.7663 39.1959 32.9773 39.0852C33.1883 38.9745 33.4344 38.951 33.6625 39.0199C33.8906 39.0889 34.0826 39.2446 34.197 39.4537C34.3114 39.6627 34.3392 39.9083 34.2743 40.1376C32.6702 45.4483 29.7158 46.3273 29.589 46.3636L29.453 46.3908L19.6474 47.5236C18.4147 47.6701 17.1718 47.3508 16.1624 46.6281C15.1531 45.9055 14.4502 44.8318 14.1918 43.6176L12.6874 36.7029L10.6121 36.6304C9.86895 36.6033 9.18926 36.2226 8.78145 35.6064C8.37364 34.9901 8.29208 34.2108 8.56395 33.522L11.1286 26.9879C10.5758 25.1754 10.2949 23.2904 10.2949 21.3873C10.2949 10.8748 18.8499 2.31982 29.3624 2.31982C40.7268 2.31982 47.424 8.1017 49.2818 19.5114C50.3874 26.2992 48.3574 31.2654 46.3999 36.0595C44.2793 41.2523 42.0861 46.6264 43.8352 54.5833C43.8611 54.6993 43.8638 54.8193 43.8432 54.9364C43.8225 55.0535 43.7789 55.1654 43.715 55.2656C43.6509 55.3658 43.5678 55.4524 43.4702 55.5204C43.3727 55.5884 43.2626 55.6364 43.1465 55.6617C43.074 55.6798 43.0105 55.6889 42.9471 55.6889Z" fill="black"/>
<path d="M26.4895 55.6888C26.3717 55.6888 26.2449 55.6616 26.127 55.6163C25.6649 55.4169 25.4564 54.8822 25.6558 54.42C27.4139 50.3872 24.3961 46.735 24.2692 46.581C23.943 46.2003 23.9974 45.6294 24.378 45.3031C24.7586 44.9769 25.3295 45.0222 25.6558 45.4028C25.8189 45.5931 29.5436 50.061 27.3233 55.136C27.1692 55.4803 26.8339 55.6888 26.4895 55.6888ZM26.5802 27.3775C24.6499 27.3775 22.5745 26.9969 20.6261 26.1994C17.0011 24.7222 14.8624 22.8372 14.2733 20.5988C13.6842 18.3694 14.8895 16.6475 15.0799 16.3938C15.252 16.1491 16.5389 14.4091 18.7502 14.0194C18.9586 11.8716 20.2092 10.1678 22.2845 9.18908C23.363 8.68158 24.9036 8.48221 26.6889 8.55471C26.7524 8.26471 26.843 7.99283 26.9699 7.73002C27.4502 6.73314 28.6102 5.54596 31.4286 5.52783H31.4739C34.0477 5.52783 35.3255 6.74221 35.978 8.58189C36.3405 8.41877 36.712 8.29189 37.1017 8.21033C39.7208 7.67565 41.9411 8.95346 43.0467 11.6178C43.5905 12.9319 43.817 14.4906 43.672 16.0585C44.7324 17.3272 45.4483 18.6956 45.7836 20.1003C46.5902 23.4897 45.6386 25.1663 44.7052 25.9728C43.5814 26.9425 41.8958 27.1056 40.192 26.426C39.2314 26.0453 38.1711 25.3385 37.2649 24.2963C36.0414 24.6769 34.8542 24.7131 33.7124 24.4956L33.5764 24.686C32.2714 26.4441 29.598 27.3775 26.5802 27.3775ZM16.5208 17.4813C16.4845 17.5356 15.6236 18.6866 16.0224 20.1638C16.4664 21.786 18.288 23.2903 21.3058 24.5228C25.6105 26.281 30.1236 25.6285 31.8364 23.9338C30.7308 23.4806 29.6795 22.8281 28.6645 22.085C28.0392 22.8281 27.3595 23.3628 26.5802 23.5894C25.7645 23.8341 24.9217 23.7072 24.088 23.2178C21.2695 21.5685 19.2486 18.6866 18.7955 15.8591C17.3908 16.2216 16.557 17.4269 16.548 17.436C16.548 17.4541 16.5389 17.4722 16.5208 17.4813ZM39.023 23.526C39.6211 24.106 40.2736 24.5047 40.8717 24.7494C41.9411 25.1753 42.938 25.121 43.5361 24.6044C44.3155 23.9247 44.4967 22.4838 44.0345 20.5263C43.8714 19.8285 43.5814 19.1306 43.1827 18.46C42.5574 20.2997 41.3702 22.0125 39.5667 23.1997C39.3764 23.3085 39.1952 23.4263 39.023 23.526ZM34.3739 22.7647C34.963 22.8372 35.5611 22.8191 36.1683 22.7013C35.6265 21.6704 35.2909 20.5437 35.1805 19.3844C35.0174 17.7531 34.963 16.1672 34.9086 14.7625C34.8724 13.82 34.8361 12.9772 34.7817 12.2341C34.7002 12.1978 34.6095 12.1706 34.528 12.1344C33.4858 13.4575 32.5705 15.2156 31.7095 16.8922C32.0177 17.3181 32.353 17.7622 32.7064 18.1972C34.2017 20.0641 34.5189 21.5956 34.3739 22.7647ZM29.7158 20.6169C30.6583 21.3056 31.6099 21.8947 32.5886 22.2844C32.6067 21.2331 31.9633 20.1547 31.3017 19.321C31.1477 19.1306 30.9845 18.9131 30.8033 18.6866C30.4317 19.3753 30.0783 20.0278 29.7158 20.6169ZM36.6577 13.0678C36.6849 13.6025 36.703 14.1553 36.7211 14.6991C36.7755 16.14 36.8208 17.6353 36.9839 19.2031C37.0927 20.3269 37.428 21.2875 37.8902 22.076C38.1077 21.9581 38.3252 21.8313 38.5517 21.6863C40.3733 20.481 41.4064 18.5778 41.7599 16.6294C40.4911 15.3153 38.7783 14.101 36.6577 13.0678ZM20.6624 15.9044C21.1336 18.0975 22.8011 20.3541 25.0124 21.65C25.5289 21.9581 25.8733 21.9128 26.0727 21.8494C26.4624 21.7406 26.852 21.4235 27.2417 20.9703C26.4624 20.3178 25.7102 19.6472 24.9852 19.0038C24.2783 18.3694 23.5895 17.7531 22.9099 17.1913C22.1395 16.5478 21.3874 16.1128 20.6624 15.9044ZM20.5627 14.0194C21.7227 14.2278 22.8917 14.8169 24.0699 15.7866C24.7677 16.3666 25.4745 17.001 26.1995 17.6535C26.8883 18.2697 27.577 18.895 28.2839 19.4841C28.728 18.741 29.172 17.8891 29.6161 17.0372C28.3111 15.0978 26.9245 12.5966 26.6345 10.3763C25.0939 10.3128 23.8342 10.4669 23.0549 10.8385C21.6139 11.5091 20.762 12.6056 20.5627 14.0194ZM28.4924 10.5485C28.7461 11.8172 29.462 13.4213 30.5586 15.1794C31.2202 13.9016 31.9361 12.6238 32.7427 11.5091C31.2655 11.0469 29.8155 10.7297 28.4924 10.5485ZM36.4945 10.9835C36.7664 11.1013 37.0474 11.2281 37.3102 11.3641C39.0683 12.216 40.5908 13.1766 41.8414 14.2369C41.7749 13.5737 41.6132 12.9236 41.3611 12.3066C40.917 11.2281 39.8114 9.49721 37.4552 9.97752C37.0927 10.05 36.7392 10.195 36.4039 10.3853C36.4402 10.5847 36.4674 10.7841 36.4945 10.9835ZM28.5105 8.71783C30.2505 8.94439 32.1355 9.37939 33.9933 10.0138C34.1292 9.87783 34.2742 9.74189 34.4192 9.61502C33.9842 7.99283 33.1686 7.34033 31.4649 7.34033H31.4286C29.9152 7.34939 28.9636 7.73908 28.592 8.50939C28.5649 8.58189 28.5377 8.64533 28.5105 8.71783Z" fill="black"/>
</svg>
