<svg width="244" height="59" viewBox="0 0 244 59" fill="none" xmlns="http://www.w3.org/2000/svg">
<g id="Logo">
<path id="Vector" d="M46.6194 30.3497C45.6007 30.6031 44.6698 30.5788 43.7535 30.5788C39.2207 30.5983 34.6879 30.5934 30.16 30.5983C29.8871 30.5983 29.6093 30.6129 29.3315 30.5983C28.8587 30.569 28.7271 30.8127 28.732 31.2416C28.7466 32.348 28.732 33.4544 28.732 34.5559C28.732 36.1741 28.7125 37.7922 28.7417 39.4055C28.7563 39.9855 28.5321 40.1561 27.9814 40.1463C25.9977 40.1073 26.3632 40.3364 26.3096 38.5477C26.2852 37.724 26.412 36.8905 26.2219 36.0766C25.9246 34.4779 26.061 32.8452 25.8271 31.2465V31.2368C25.9489 31.2368 26.0659 31.2368 26.1829 31.2368C26.2462 28.9265 26.2462 26.6114 26.1829 24.306H25.8222V24.2963C25.7832 22.8097 25.7832 21.3231 25.8222 19.8317H26.1829C26.2706 17.77 26.2609 15.7035 26.2219 13.6369C26.1195 13.6369 26.0172 13.6369 25.9148 13.6369C26.1439 12.511 26.0367 11.3705 26.0562 10.2398C26.061 9.76701 26.0562 9.30399 26.2219 8.85071C26.4363 7.55911 26.2706 6.25289 26.3145 4.96129C26.3486 3.9865 26.3389 3.97188 27.299 3.97188C28.9513 3.97188 28.7222 3.83542 28.7368 5.43894C28.7417 6.14567 28.7368 6.85726 28.7368 7.56886C28.7417 9.0018 28.654 8.86533 29.9894 8.86533C31.8025 8.86533 33.6157 8.87995 35.4288 8.85558C35.9698 8.85071 36.2671 9.00667 36.4767 9.54768C38.4165 14.4557 40.3856 19.3492 42.3498 24.2524C42.3888 24.3547 42.4619 24.4668 42.2523 24.7252C40.7073 24.7252 39.0257 24.7252 37.354 24.7252C36.7935 24.7252 36.7691 24.2573 36.6424 23.921C35.8918 21.9324 35.1656 19.9341 34.4247 17.9406C34.0251 16.8684 33.6254 15.801 33.1234 14.4655C31.6222 18.3305 30.2136 21.9665 28.8051 25.6025C29.3315 25.8218 29.7652 25.7389 30.1893 25.7389C34.722 25.7536 39.2548 25.7731 43.7827 25.7584C44.5041 25.7584 44.9232 25.9144 45.1669 26.6699C45.5666 27.8981 46.1076 29.0776 46.6242 30.3643L46.6194 30.3497Z" fill="#1B70A6"/>
<path id="Vector_2" d="M26.1828 31.2319C26.3046 32.8452 26.4313 34.4584 26.2218 36.0766C23.6629 36.0766 21.0992 36.0961 18.5404 36.0522C16.43 36.0181 14.4999 35.4186 12.9256 33.9418C9.28966 30.5154 10.2742 24.4571 14.807 22.3808C15.0555 22.2687 15.3139 22.1663 15.5624 22.0591C15.5917 21.7423 15.3285 21.6789 15.1481 21.562C11.2002 18.9544 11.8826 12.8035 15.2164 10.4591C16.6834 9.42583 18.287 8.87507 20.0708 8.86045C22.1228 8.84582 24.165 8.84583 26.2169 8.84583C26.3826 10.4396 26.3826 12.0383 26.2169 13.632C26.1145 13.632 26.0122 13.632 25.9098 13.632C24.3258 13.6223 22.7466 13.6077 21.1626 13.6077C20.1098 13.6077 19.2666 14.0658 18.633 14.8846C17.8824 15.8546 17.6582 16.9512 18.17 18.0868C18.6623 19.1786 19.5834 19.7781 20.7727 19.8122C22.4542 19.861 24.1357 19.8317 25.8172 19.8268H26.1779C26.2754 21.3183 26.2754 22.8097 26.1779 24.3011H25.8172C23.8579 24.306 21.8937 24.3694 19.9344 24.2719C17.8483 24.1647 16.2984 26.1142 16.2789 27.9468C16.2594 29.8184 17.746 31.227 19.8223 31.2562C21.8206 31.2855 23.8238 31.2514 25.827 31.2416C25.9488 31.2416 26.0658 31.2416 26.1828 31.2416V31.2319Z" fill="#64B445"/>
<path id="Vector_3" d="M69.0104 22.2297C68.9032 22.1809 68.8008 22.1224 68.5766 22.0006C69.5514 21.289 70.2922 20.5384 70.5847 19.4564C71.423 16.3858 69.4588 13.4127 66.2712 13.1251C63.5613 12.8863 60.8368 13.0764 58.1171 13.0472C57.7077 13.0472 57.5566 13.2324 57.5664 13.6174C57.581 14.2072 57.5664 14.8018 57.5664 15.3915C57.5664 20.475 57.5664 25.5635 57.5664 30.647C57.5664 31.6169 57.581 31.6218 58.5217 31.6315C59.862 31.6413 61.1975 31.6364 62.5427 31.6315C64.039 31.6315 65.5401 31.6656 67.0316 31.6023C69.4149 31.4999 71.3694 29.9646 71.7544 27.8493C72.1638 25.5976 71.7739 23.4725 69.0055 22.2199L69.0104 22.2297ZM61.2413 16.8001C61.2413 16.4004 61.446 16.2542 61.8262 16.2591C62.8448 16.2688 63.8684 16.2201 64.8822 16.2835C65.9106 16.3517 66.6514 17.0145 66.9146 17.9601C67.2606 19.1981 66.5149 20.3483 65.199 20.5043C64.58 20.5774 63.9464 20.5189 63.3176 20.5189V20.553C62.8107 20.553 62.299 20.553 61.7921 20.553C61.3973 20.5579 61.2316 20.3678 61.2364 19.9779C61.2462 18.9203 61.2462 17.8626 61.2364 16.805L61.2413 16.8001ZM65.7692 28.3221C65.1405 28.3367 64.5117 28.3221 63.7173 28.3221C63.0398 28.2295 61.9627 28.6974 61.4022 28.1125C60.8904 27.5861 61.2559 26.5382 61.2462 25.7243C61.2462 25.0663 60.9586 24.2475 61.3875 23.7893C61.8652 23.2776 62.723 23.6285 63.4102 23.5944C64.1949 23.5554 64.9796 23.5603 65.7643 23.5944C67.0852 23.648 68.0746 24.7203 68.0843 26.0703C68.0941 27.4009 67.1875 28.2831 65.7643 28.3172L65.7692 28.3221Z" fill="#64B445"/>
<path id="Vector_4" d="M157.736 13.0471C157.76 13.2518 157.779 13.2957 157.77 13.3298C157.433 14.2948 157.292 15.4938 156.556 16.0933C155.888 16.6343 154.733 16.2493 153.792 16.2542C150.639 16.2737 147.486 16.259 144.332 16.2639C143.006 16.2639 143.075 16.1372 143.075 17.5653C143.075 18.155 143.075 18.7496 143.075 19.3394C143.08 20.8308 142.948 20.6992 144.381 20.6992C147.417 20.6992 150.449 20.6992 153.485 20.6992C153.875 20.6992 154.27 20.6992 154.738 20.6992C154.524 21.7812 154.022 22.6683 153.68 23.6187C153.515 24.0866 153.13 23.9891 152.793 23.994C150.585 23.9989 148.378 23.994 146.17 23.994C145.341 23.994 144.512 24.0086 143.689 23.994C143.226 23.9843 143.06 24.1792 143.07 24.6276C143.089 25.5732 143.07 26.5187 143.075 27.4643C143.084 28.3075 143.094 28.3269 143.923 28.3269C146.053 28.3367 148.178 28.3269 150.308 28.3269C150.741 28.3269 151.17 28.3269 151.677 28.3269C151.473 29.4041 150.956 30.2911 150.624 31.2416C150.464 31.7046 150.088 31.6315 149.747 31.6315C148.485 31.6364 147.222 31.6315 145.965 31.6315C144.113 31.6315 142.261 31.6315 140.409 31.6315C139.307 31.6315 139.297 31.6217 139.297 30.5543C139.297 27.0061 139.297 23.4579 139.297 19.9096C139.297 18.0575 139.297 16.2054 139.297 14.3485C139.297 13.0471 139.297 13.0422 140.56 13.0422C144.108 13.0422 147.656 13.0422 151.204 13.0422H157.74L157.736 13.0471Z" fill="#64B445"/>
<path id="Vector_5" d="M119.573 20.0218C118.895 16.4248 115.917 13.4663 112.51 12.9253C108.29 12.2527 104.736 13.9001 102.806 17.424C101.832 19.203 101.525 21.1331 101.646 23.1363C101.958 28.0833 105.716 32.0263 110.678 31.8801C113.246 31.885 115.235 31.1247 116.892 29.487C119.573 26.8405 120.245 23.609 119.568 20.0267L119.573 20.0218ZM115.917 24.2621C115.264 26.7235 113.363 28.2149 110.863 28.2588C108.26 28.3026 106.291 26.9087 105.531 24.462C105.058 22.9511 105.107 21.4353 105.619 19.939C106.413 17.6384 108.221 16.42 110.77 16.4297C113.31 16.4346 115.099 17.7554 115.854 20.1924C116.273 21.5425 116.278 22.9121 115.917 24.267V24.2621Z" fill="#64B445"/>
<path id="Vector_6" d="M228.393 24.6228C228.544 24.501 228.627 24.4132 228.73 24.3645C231.527 22.9852 232.765 20.246 231.917 17.2924C231.264 15.026 229.256 13.1593 227.165 13.0959C224.411 13.0131 221.653 13.0667 218.894 13.0618C218.816 13.0618 218.738 13.0667 218.655 13.0715C218.372 13.0862 218.221 13.2226 218.217 13.5053C218.212 13.8221 218.207 14.1389 218.207 14.4509C218.207 19.7342 218.207 25.0127 218.207 30.2961C218.207 30.5349 218.221 30.7689 218.207 31.0077C218.178 31.4512 218.348 31.651 218.811 31.6413C219.596 31.6218 220.385 31.6121 221.175 31.6462C221.779 31.6754 222.004 31.461 221.989 30.8371C221.95 29.3408 221.965 27.8445 221.979 26.3433C221.999 24.5253 221.74 24.8178 223.524 24.7495C224.236 24.7203 224.675 24.9299 225.045 25.5635C225.961 27.128 226.936 28.6536 227.921 30.1791C229.081 31.9776 228.398 31.6023 230.591 31.6364C231.342 31.651 232.112 31.7144 232.989 31.5536C231.391 29.1507 229.899 26.8941 228.393 24.6326V24.6228ZM226.444 21.8349C225.186 21.8593 223.929 21.83 222.671 21.8495C222.174 21.8593 221.95 21.6887 221.969 21.1721C221.994 20.4653 221.974 19.7586 221.974 19.0519C221.974 18.3452 221.994 17.6336 221.969 16.9317C221.955 16.4151 222.169 16.2445 222.671 16.2542C223.885 16.2786 225.108 16.2542 226.327 16.2689C227.336 16.2786 228.042 16.7757 228.437 17.6921C228.827 18.6035 228.822 19.5344 228.452 20.441C228.086 21.3183 227.409 21.8154 226.449 21.8349H226.444Z" fill="#1B70A6"/>
<path id="Vector_7" d="M134.614 27.9858C133.863 26.8599 133.117 25.7291 132.362 24.5935C135.51 22.9607 136.758 20.3385 135.91 17.3411C135.272 15.0649 133.298 13.1787 131.212 13.1007C128.419 12.9984 125.621 13.0666 122.828 13.052C122.395 13.052 122.166 13.208 122.205 13.6759C122.229 13.9488 122.205 14.2266 122.205 14.5044C122.205 19.3101 122.2 24.1159 122.209 28.9216C122.209 29.7794 121.844 30.8906 122.365 31.4317C122.941 32.036 124.076 31.6071 124.963 31.6315C125.948 31.6607 125.953 31.6315 125.953 30.5787C125.958 28.8875 125.977 27.1913 125.948 25.4952C125.938 24.9249 126.133 24.7007 126.698 24.7641C126.932 24.7885 127.176 24.7933 127.405 24.7641C128.2 24.652 128.682 24.9493 129.096 25.6658C130.139 27.4691 131.29 29.214 132.401 30.9832C132.606 31.3147 132.766 31.6607 133.268 31.651C134.443 31.6266 135.613 31.6412 137.051 31.6412C136.129 30.2668 135.369 29.1311 134.614 27.9906V27.9858ZM130.412 21.8348C129.15 21.8495 127.893 21.8202 126.63 21.8446C126.118 21.8543 125.938 21.6594 125.948 21.1574C125.972 19.7391 125.972 18.3207 125.948 16.9024C125.938 16.3517 126.201 16.2396 126.669 16.259C127.259 16.2834 127.849 16.2639 128.443 16.2639C129.077 16.2639 129.706 16.2542 130.334 16.2639C131.402 16.2883 132.108 16.8488 132.494 17.809C132.825 18.6473 132.82 19.5148 132.494 20.3483C132.128 21.2695 131.441 21.8153 130.417 21.83L130.412 21.8348Z" fill="#64B445"/>
<path id="Vector_8" d="M169.599 25.3052C168.088 21.5425 166.582 17.7847 165.076 14.022C164.642 12.94 164.715 13.0667 163.628 13.0618C162.878 13.057 162.132 13.1008 161.386 13.0472C160.699 12.9985 160.348 13.2324 160.08 13.905C157.872 19.5052 155.62 25.0859 153.388 30.6763C153.276 30.959 153.052 31.2173 153.208 31.6413C154.236 31.6413 155.294 31.6121 156.351 31.656C156.936 31.6803 157.185 31.4269 157.351 30.9054C157.619 30.0865 157.965 29.2872 158.247 28.4684C158.394 28.0444 158.618 27.8445 159.095 27.8445C161.337 27.8689 163.584 27.8689 165.826 27.8445C166.353 27.8397 166.606 28.0444 166.782 28.5123C167.098 29.3603 167.479 30.184 167.8 31.0272C167.956 31.4464 168.185 31.6608 168.663 31.6511C169.76 31.6218 170.861 31.6413 172.133 31.6413C171.232 29.3896 170.408 27.3474 169.589 25.3101L169.599 25.3052ZM159.607 24.5741C160.582 22.0494 161.508 19.6465 162.449 17.2193C162.99 17.8139 164.842 22.5417 165.334 24.5741H159.612H159.607Z" fill="#1B70A6"/>
<path id="Vector_9" d="M73.7381 22.3905C73.7381 19.5928 73.7332 16.7952 73.7381 13.9975C73.7381 13.0764 73.7576 13.0569 74.63 13.052C78.1344 13.0422 81.6436 13.0422 85.148 13.052C86.0009 13.052 86.0253 13.0764 86.0155 13.8806C86.0107 14.6214 86.3226 15.5474 85.8888 16.0592C85.4307 16.6002 84.4802 16.2347 83.7492 16.2493C81.936 16.2834 80.1229 16.2834 78.3147 16.2493C77.6957 16.2396 77.4813 16.4443 77.5056 17.0584C77.5446 18.0039 77.5446 18.9495 77.5056 19.895C77.4813 20.5043 77.686 20.7187 78.3098 20.709C80.2009 20.6748 82.092 20.6943 83.9831 20.6992C85.0115 20.6992 85.031 20.709 85.0164 21.7179C85.0066 22.4197 85.3088 23.3019 84.8848 23.7795C84.3974 24.3303 83.4713 23.955 82.7402 23.9745C81.2439 24.0135 79.7476 24.0086 78.2513 23.9745C77.686 23.9648 77.4861 24.15 77.5105 24.7202C77.5495 25.6658 77.5641 26.6162 77.5105 27.5569C77.4715 28.2343 77.7834 28.3318 78.3488 28.3269C80.5567 28.3074 82.7597 28.3172 84.9676 28.3221C86.0886 28.3221 86.035 28.2392 86.035 29.4333C86.035 29.9451 86.0058 30.4617 86.0399 30.9686C86.074 31.4999 85.8352 31.6364 85.3478 31.6315C81.7216 31.6169 78.1002 31.6071 74.474 31.6412C73.7819 31.6461 73.7283 31.3098 73.7332 30.7737C73.7478 27.976 73.7381 25.1784 73.7381 22.3807V22.3905Z" fill="#64B445"/>
<path id="Vector_10" d="M203.068 22.2491C203.068 19.4905 203.063 16.7367 203.068 13.9781C203.068 13.0812 203.087 13.0618 203.984 13.0618C207.489 13.052 210.993 13.052 214.497 13.0618C215.331 13.0618 215.336 13.091 215.355 13.9244C215.365 14.4362 215.321 14.9528 215.365 15.4597C215.419 16.0885 215.155 16.2737 214.556 16.2639C212.548 16.2396 210.54 16.2542 208.532 16.2542C207.404 16.2542 206.84 16.8147 206.84 17.9357C206.84 18.5644 206.831 19.1981 206.84 19.8268C206.855 20.6651 206.865 20.6846 207.688 20.6895C209.419 20.7041 211.154 20.6895 212.884 20.6895C213.162 20.6895 213.435 20.7041 213.713 20.6895C214.127 20.67 214.273 20.8893 214.254 21.2695C214.254 21.3085 214.254 21.3475 214.254 21.3865C214.21 22.2053 214.58 23.2142 214.083 23.7893C213.605 24.3401 212.592 23.955 211.817 23.9745C210.398 24.0086 208.98 24.0038 207.567 23.9745C206.996 23.9648 206.806 24.1695 206.831 24.73C206.865 25.5927 206.831 26.4602 206.84 27.3278C206.85 28.2977 206.855 28.3123 207.796 28.3123C209.882 28.3221 211.968 28.3123 214.054 28.3123C215.419 28.3123 215.37 28.1612 215.345 29.5601C215.331 30.2132 215.638 31.032 215.165 31.4853C214.746 31.8849 213.961 31.6169 213.337 31.6169C210.345 31.6315 207.352 31.6266 204.36 31.6169C202.868 31.6169 203.068 31.729 203.063 30.2668C203.053 27.591 203.063 24.9103 203.063 22.2345L203.068 22.2491Z" fill="#1B70A6"/>
<path id="Vector_11" d="M226.585 37.3974C226.122 37.1439 225.757 37.3535 225.377 37.5826C224.061 38.3575 222.745 39.1227 221.175 40.039C221.633 38.5622 222.014 37.334 222.389 36.1058C222.574 35.4916 222.447 35.1505 221.965 34.9458C221.419 34.7118 221.302 35.1505 221.107 35.4868C220.322 36.8369 219.255 37.9335 218.017 38.8644C217.603 39.1764 217.169 39.4883 216.579 39.5858C216.526 38.8449 216.852 38.3332 217.135 37.8311C217.442 37.2804 217.802 36.7589 218.153 36.2374C218.407 35.8669 218.309 35.5891 217.973 35.3308C217.627 35.0676 217.325 35.0725 217.062 35.4332C216.599 36.0716 216.15 36.7199 215.819 37.4364C215.463 38.1967 215.127 38.957 215.556 39.8002C215.687 40.0585 215.585 40.2437 215.409 40.4241C213.679 42.1495 212.071 43.9967 210.141 45.5076C209.99 45.6295 209.814 45.8732 209.517 45.6343C209.951 44.5328 210.613 43.558 211.184 42.5296C211.525 41.9058 211.915 41.3063 212.115 40.6239C212.349 39.8197 211.832 39.2007 211.003 39.2836C210.638 39.3226 210.282 39.4444 209.853 39.5468C209.936 39.2007 210.009 38.9765 210.048 38.7426C210.189 37.9189 209.887 37.3291 209.171 37.0172C208.547 36.7443 207.933 36.9587 207.445 37.6264C207.236 37.9189 207.012 38.2503 207.065 38.6012C207.231 39.6443 206.495 39.9562 205.769 40.2779C205.301 40.4874 204.828 40.6775 204.272 40.7458C204.112 40.5216 204.224 40.3753 204.238 40.2291C204.409 38.2406 202.83 37.0562 200.944 37.7483C200.563 37.8896 200.13 38.0943 200.076 38.4745C199.983 39.1471 199.481 39.4639 199.101 39.9026C198.794 40.2584 198.516 40.6434 198.316 41.0772C197.615 42.6076 198.399 43.8748 200.081 43.9382C201.338 43.9869 202.259 43.3631 203.03 42.4614C203.312 42.1348 203.522 41.7839 204.058 41.8034C205.237 41.8424 206.3 41.4379 207.309 40.8579C207.543 40.7263 207.772 40.4826 208.059 40.5947C208.873 40.9212 209.707 40.775 210.648 40.6727C210.082 41.6816 209.575 42.5686 209.088 43.4654C208.771 44.0552 208.508 44.6742 208.362 45.3321C208.254 45.8342 208.376 46.268 208.786 46.6043C209.224 46.9601 209.687 47.038 210.209 46.7797C210.672 46.5506 211.096 46.2728 211.5 45.956C212.719 45.0105 213.777 43.8943 214.849 42.7928C215.848 41.7644 216.735 40.6337 218.236 40.2048C218.86 40.0293 219.382 39.4834 219.991 39.0789C219.879 40.5167 219.26 41.472 218.09 42.2128C216.321 43.3338 214.742 44.7132 213.387 46.3216C212.748 47.0819 212.202 47.9007 211.959 48.8804C211.652 50.1184 212.222 51.3515 213.372 51.9656C214.284 52.453 215.18 52.2483 216.126 51.3076C217.091 50.3474 217.72 49.1679 218.3 47.9543C219.06 46.3508 219.689 44.6937 220.196 42.9975C220.4 42.3103 220.766 41.8375 221.39 41.4769C222.92 40.5898 224.421 39.6443 225.932 38.7231C226.2 38.5574 226.488 38.4111 226.727 38.2162C227.078 37.9189 227.005 37.6264 226.59 37.3974H226.585ZM199.803 43.0901C199.286 43.2217 199.062 42.9585 199.199 42.4468C199.408 41.6718 199.861 41.048 200.505 40.4338C201.012 40.7994 201.455 41.1162 201.948 41.472C201.47 42.3347 200.739 42.8562 199.803 43.0901ZM202.913 40.0244C202.757 40.3169 202.747 40.7896 202.289 40.7555C201.899 40.7263 201.397 40.5216 201.343 40.1658C201.28 39.7271 201.421 39.1861 201.655 38.8059C201.792 38.5866 202.289 38.5525 202.63 38.5086C203.073 38.4501 203.127 38.7767 203.117 39.1179C203.117 39.4347 203.059 39.7417 202.908 40.0244H202.913ZM215.531 49.9234C215.219 50.3767 214.854 50.7958 214.396 51.1029C213.752 51.5367 213.289 51.3758 213.06 50.6301C212.894 50.0891 212.958 49.5481 213.177 49.0217C213.455 48.3637 213.855 47.7789 214.313 47.2427C215.502 45.8732 216.852 44.6888 218.397 43.7238C217.686 45.9365 216.837 48.0323 215.531 49.9185V49.9234Z" fill="#64B445"/>
<path id="Vector_12" d="M88.8764 22.3758C88.8764 19.5782 88.8716 16.7806 88.8764 13.9829C88.8764 13.0715 88.8959 13.052 89.7781 13.0471C93.2045 13.0374 96.6309 13.0374 100.057 13.0471C100.9 13.0471 100.93 13.0715 100.92 13.8854C100.915 14.6263 101.227 15.5523 100.788 16.0592C100.325 16.5953 99.3798 16.2298 98.6487 16.2444C96.9184 16.2785 95.1833 16.2785 93.4482 16.2444C92.8292 16.2347 92.6148 16.4442 92.6391 17.0584C92.6781 18.0039 92.6781 18.9495 92.6391 19.895C92.6148 20.5091 92.8243 20.7187 93.4433 20.709C95.2954 20.6748 97.1475 20.6895 98.9948 20.6992C99.8964 20.6992 99.9208 20.7187 99.9111 21.6009C99.9013 22.3417 100.218 23.258 99.7795 23.7795C99.3116 24.3352 98.3709 23.955 97.6398 23.9794C96.2215 24.0184 94.8032 24.0135 93.3848 23.9794C92.8243 23.9696 92.6294 24.15 92.6391 24.7202C92.6684 26.6503 92.6537 28.5804 92.6489 30.5105C92.6489 31.7095 92.7756 31.6266 91.4791 31.6315C90.8504 31.6315 90.2168 31.6022 89.588 31.6412C89.0032 31.6753 88.8569 31.4316 88.8569 30.8809C88.8764 28.0442 88.8667 25.2076 88.8667 22.371L88.8764 22.3758Z" fill="#64B445"/>
<path id="Vector_13" d="M173.669 22.2735C173.669 19.5149 173.664 16.7562 173.669 13.9976C173.669 13.0861 173.693 13.0666 174.585 13.0618C177.972 13.052 181.365 13.052 184.752 13.0618C185.649 13.0618 185.668 13.0861 185.668 13.9927C185.668 14.6945 185.956 15.567 185.532 16.0544C185.083 16.571 184.192 16.2347 183.499 16.2444C181.725 16.2737 179.951 16.2786 178.182 16.2444C177.519 16.2298 177.383 16.5369 177.397 17.0974C177.417 18.0039 177.387 18.9105 177.407 19.817C177.422 20.6651 177.436 20.6846 178.265 20.6895C180.039 20.7041 181.813 20.6895 183.582 20.6944C184.65 20.6944 184.674 20.7041 184.65 21.8007C184.635 22.4928 184.962 23.3604 184.464 23.8381C184.021 24.2621 183.187 23.9745 182.525 23.9843C181.106 24.0038 179.688 23.9843 178.27 23.994C177.426 24.0038 177.407 24.0184 177.402 24.847C177.387 26.777 177.402 28.712 177.397 30.6421C177.397 31.6169 177.383 31.6218 176.432 31.6315C175.803 31.6413 175.17 31.6413 174.541 31.6315C173.698 31.612 173.678 31.6071 173.674 30.7834C173.659 28.6145 173.674 26.4456 173.674 24.2816C173.674 23.6138 173.674 22.9412 173.674 22.2735H173.669Z" fill="#1B70A6"/>
<path id="Vector_14" d="M192.063 29.0044L192.039 17.7748C192.039 17.497 192.024 17.2241 192.039 16.9463C192.068 16.4491 191.863 16.2444 191.351 16.2493C190.089 16.2688 188.831 16.2298 187.569 16.2639C186.96 16.2785 186.702 16.0787 186.765 15.4548C186.838 14.714 186.477 13.8074 186.916 13.2762C187.389 12.7059 188.325 13.0715 189.051 13.0666C192.672 13.0374 196.298 13.052 199.925 13.0568C201.007 13.0568 201.007 13.0666 201.016 14.1632C201.016 14.636 200.992 15.1088 201.021 15.5816C201.05 16.0982 200.831 16.2737 200.329 16.259C199.189 16.2347 198.043 16.2493 196.903 16.2542C195.782 16.2542 195.777 16.259 195.777 17.4385C195.777 21.1037 195.777 24.7689 195.777 28.4342C194.602 29.0629 193.384 29.37 192.058 28.9995L192.063 29.0044Z" fill="#1B70A6"/>
<path id="Vector_15" d="M197.41 35.2578C194.778 35.5404 192.268 35.984 189.758 36.4519C188.836 36.6225 188.788 36.5981 188.261 35.7305C189.494 35.2821 190.791 35.1798 192.053 34.9604C193.759 34.6631 195.475 34.4292 197.195 34.244C197.809 34.1757 198.072 33.9223 198.253 33.3667C198.75 31.8752 199.291 30.3936 199.847 28.9216C199.968 28.5951 200.007 28.0687 200.612 28.2783C201.104 28.4488 201.265 28.8241 201.06 29.4139C200.67 30.53 200.241 31.6267 199.861 32.7477C199.739 33.1083 199.486 33.4544 199.598 33.9077C200.217 34.0051 200.836 33.8736 201.46 33.8394C204.452 33.6689 207.44 33.5421 210.399 34.2098C210.896 34.3219 211.378 34.5023 211.851 34.6826C212.144 34.7947 212.412 34.9604 212.46 35.3114C212.275 35.6379 212.036 35.4625 211.837 35.3894C210.33 34.863 208.776 34.6778 207.192 34.6485C204.75 34.6047 202.308 34.6826 199.876 34.9312C199.359 34.9848 199.008 35.0969 198.818 35.6574C197.263 40.1999 195.504 44.6694 194.256 49.3142C194.012 50.2208 193.905 51.1468 193.759 52.0778C192.726 51.7512 192.648 51.6732 192.706 50.8105C192.775 49.865 193.038 48.9536 193.291 48.0421C194.354 44.2063 195.767 40.4875 197.059 36.7297C197.21 36.291 197.478 35.8768 197.41 35.2578Z" fill="#64B445"/>
<path id="Vector_16" d="M198.116 30.6762C197.936 31.1198 197.653 31.4902 197.341 31.8411C196.561 32.7233 196.323 32.6989 195.616 31.6608C195.552 31.4853 195.606 31.3342 195.704 31.188C195.733 31.149 195.762 31.1051 195.796 31.0661C195.796 31.1782 195.801 31.2855 195.806 31.3976C196.079 31.305 196.269 31.0905 196.449 30.8907C196.781 30.5203 197.458 30.1693 197.239 29.6819C196.971 29.0971 196.279 29.4431 195.752 29.5211C195.752 29.6137 195.757 29.7063 195.757 29.794C195.718 29.794 195.679 29.794 195.64 29.794C194.417 29.8866 193.276 30.5349 192.014 30.3643C188.422 31.3488 185.2 32.9962 182.544 35.6623C182.432 35.7744 182.334 35.9011 182.242 36.0278C181.057 37.5875 181.306 38.65 183.061 39.4883C184.06 39.966 185.127 40.2438 186.175 40.5947C187.257 40.9603 188.344 41.3161 189.319 41.9204C191.634 43.3582 191.941 45.5564 189.982 47.4085C187.798 49.4799 185.151 50.4742 182.125 50.3182C181.018 50.2598 180.068 49.8211 179.405 48.8756C179.298 48.7196 179.127 48.5344 179.288 48.354C179.503 48.1055 179.785 48.2858 179.902 48.4369C180.989 49.8308 182.437 49.475 183.811 49.2118C185.454 48.895 186.945 48.1835 188.281 47.1599C188.914 46.6774 189.47 46.1218 189.821 45.3956C190.337 44.3135 190.123 43.407 189.163 42.6856C188.622 42.2762 188.003 42.0179 187.374 41.7937C186.263 41.394 185.137 41.0334 184.03 40.6288C183.065 40.273 182.144 39.8344 181.379 39.1228C180.18 38.0066 180.044 36.9246 180.936 35.5404C181.477 34.7021 182.203 34.0392 182.987 33.4349C185.322 31.6315 187.944 30.3984 190.732 29.4772C191.176 29.331 191.663 29.292 192.053 29.0045C193.301 28.8631 194.514 28.4878 195.772 28.4391C196.308 28.5414 196.864 28.5122 197.37 28.7656C198.228 29.1897 198.472 29.8038 198.111 30.6762H198.116Z" fill="#64B445"/>
<path id="Vector_17" d="M47.0821 36.0717C45.1618 36.0717 43.4705 36.0717 41.7793 36.0717C41.4625 36.0717 41.1603 36.0863 41.0043 35.7012C40.4828 34.395 39.9467 33.0985 39.3472 31.6364C41.3016 31.6364 43.0952 31.6364 44.8888 31.6364C45.1569 31.6364 45.347 31.7338 45.4445 31.9775C45.9709 33.2838 46.4875 34.59 47.0772 36.0765L47.0821 36.0717Z" fill="#1E70A6"/>
<path id="Vector_18" d="M45.9126 25.7584C47.4771 25.7584 48.8077 25.7633 50.1432 25.7584C50.4892 25.7584 50.7378 25.8413 50.8694 26.2019C51.3812 27.591 51.9076 28.9752 52.4876 30.5154C50.9766 30.5154 49.6119 30.5154 48.2472 30.5154C47.9353 30.5154 47.755 30.3643 47.638 30.0719C47.097 28.6974 46.5413 27.3278 45.9126 25.7633V25.7584Z" fill="#64B445"/>
<path id="Vector_19" d="M195.806 31.3976C195.743 31.4853 195.679 31.5731 195.616 31.6608C194.724 31.651 193.827 31.651 192.935 31.6364C192.082 31.6218 192.082 31.612 192.034 30.7201C192.029 30.6031 192.019 30.4862 192.014 30.3692C193.213 29.8672 194.466 29.6381 195.752 29.5211C195.752 29.6137 195.757 29.7063 195.757 29.7941C195.772 30.2181 195.787 30.6421 195.796 31.0613C195.796 31.1734 195.801 31.2806 195.806 31.3927V31.3976Z" fill="#2071A5"/>
<path id="Vector_20" d="M53.7695 25.1687C53.4625 25.2077 53.3504 25.2272 53.2334 25.2321C51.729 25.2678 50.7461 24.5042 50.2847 22.9413C51.045 22.7658 51.8053 22.8682 52.5559 22.8731C52.7899 22.8731 52.8825 23.0583 52.9605 23.2435C53.2139 23.8527 53.4722 24.462 53.7695 25.1736V25.1687Z" fill="#64B445"/>
<path id="Vector_21" d="M49.0462 23.5212C47.2575 23.7844 47.2526 23.7795 46.814 22.0883C48.7343 21.6691 48.6807 21.9957 49.0462 23.5212Z" fill="#64B445"/>
</g>
</svg>
