<svg width="58" height="58" viewBox="0 0 58 58" fill="none" xmlns="http://www.w3.org/2000/svg">
<path d="M38.9688 20.1024C38.9688 19.8621 38.8733 19.6316 38.7033 19.4616C38.5334 19.2917 38.3029 19.1962 38.0625 19.1962H36.9143C36.7771 18.7709 36.6055 18.3575 36.4013 17.9601L37.2142 17.1472C37.3841 16.9772 37.4796 16.7467 37.4796 16.5064C37.4796 16.2661 37.3841 16.0357 37.2142 15.8657L34.8843 13.5357C34.7143 13.3659 34.4839 13.2704 34.2436 13.2704C34.0033 13.2704 33.7728 13.3659 33.6028 13.5357L32.7899 14.3487C32.3924 14.1445 31.979 13.973 31.5538 13.8357V12.6875C31.5538 12.4471 31.4583 12.2166 31.2884 12.0467C31.1184 11.8767 30.8879 11.7812 30.6476 11.7812H27.3524C27.1121 11.7812 26.8816 11.8767 26.7116 12.0467C26.5417 12.2166 26.4462 12.4471 26.4462 12.6875V13.8357C26.0209 13.9729 25.6075 14.1445 25.2101 14.3487L24.3972 13.5357C24.2272 13.3659 23.9967 13.2704 23.7564 13.2704C23.5161 13.2704 23.2857 13.3659 23.1157 13.5357L20.7858 15.8657C20.6159 16.0357 20.5204 16.2661 20.5204 16.5064C20.5204 16.7467 20.6159 16.9772 20.7858 17.1472L21.5987 17.9601C21.3945 18.3576 21.223 18.771 21.0857 19.1962H19.9375C19.6971 19.1962 19.4666 19.2917 19.2967 19.4616C19.1267 19.6316 19.0312 19.8621 19.0312 20.1024V23.3976C19.0312 23.6379 19.1267 23.8684 19.2967 24.0384C19.4666 24.2083 19.6971 24.3038 19.9375 24.3038H21.0857C21.2229 24.7291 21.3945 25.1425 21.5987 25.5399L20.7858 26.3528C20.6159 26.5228 20.5204 26.7533 20.5204 26.9936C20.5204 27.2339 20.6159 27.4643 20.7858 27.6343L23.1157 29.9642C23.2857 30.1341 23.5161 30.2296 23.7564 30.2296C23.9967 30.2296 24.2272 30.1341 24.3972 29.9642L25.2101 29.1513C25.6076 29.3555 26.021 29.527 26.4462 29.6643V30.8125C26.4462 31.0529 26.5417 31.2834 26.7116 31.4533C26.8816 31.6233 27.1121 31.7188 27.3524 31.7188H30.6476C30.8879 31.7188 31.1184 31.6233 31.2884 31.4533C31.4583 31.2834 31.5538 31.0529 31.5538 30.8125V29.6643C31.9791 29.5271 32.3925 29.3555 32.7899 29.1513L33.6028 29.9642C33.7728 30.1341 34.0033 30.2296 34.2436 30.2296C34.4839 30.2296 34.7143 30.1341 34.8843 29.9642L37.2142 27.6343C37.3841 27.4643 37.4796 27.2339 37.4796 26.9936C37.4796 26.7533 37.3841 26.5228 37.2142 26.3528L36.4013 25.5399C36.6055 25.1424 36.777 24.729 36.9143 24.3038H38.0625C38.3029 24.3038 38.5334 24.2083 38.7033 24.0384C38.8733 23.8684 38.9688 23.6379 38.9688 23.3976V20.1024ZM37.1562 22.4913H36.8409C36.4721 22.4941 36.1139 22.6147 35.8185 22.8354C35.5231 23.0562 35.306 23.3655 35.1987 23.7184C35.0869 24.0696 34.9454 24.4107 34.7755 24.7379C34.601 25.0635 34.5353 25.4363 34.588 25.8019C34.6406 26.1675 34.8089 26.5067 35.0682 26.7697L35.2921 26.9936L34.2436 28.0421L34.0197 27.8182C33.7568 27.5587 33.4177 27.3902 33.052 27.3375C32.6863 27.2849 32.3134 27.3507 31.9879 27.5255C31.6607 27.6953 31.3196 27.8368 30.9684 27.9487C30.6155 28.056 30.3062 28.2731 30.0854 28.5685C29.8647 28.8639 29.7441 29.2221 29.7413 29.5909V29.9062H28.2587V29.5909C28.2559 29.2221 28.1353 28.8639 27.9146 28.5685C27.6938 28.2731 27.3845 28.056 27.0316 27.9487C26.6804 27.8369 26.3393 27.6954 26.0121 27.5255C25.6865 27.3512 25.3137 27.2855 24.9481 27.3382C24.5825 27.3909 24.2434 27.5591 23.9803 27.8182L23.7564 28.0421L22.7079 26.9936L22.9318 26.7697C23.1912 26.5067 23.3596 26.1676 23.4122 25.8019C23.4649 25.4363 23.3991 25.0634 23.2245 24.7379C23.0547 24.4107 22.9132 24.0696 22.8012 23.7184C22.694 23.3655 22.4769 23.0562 22.1815 22.8354C21.8861 22.6147 21.5279 22.4941 21.1591 22.4913H20.8438V21.0087H21.1591C21.5279 21.0059 21.8861 20.8853 22.1815 20.6646C22.4769 20.4438 22.694 20.1345 22.8012 19.7816C22.9131 19.4304 23.0546 19.0893 23.2245 18.7621C23.399 18.4365 23.4647 18.0637 23.412 17.6981C23.3594 17.3325 23.1911 16.9933 22.9318 16.7303L22.7079 16.5064L23.7564 15.4579L23.9803 15.6818C24.2432 15.9413 24.5823 16.1098 24.948 16.1625C25.3137 16.2151 25.6866 16.1493 26.0121 15.9745C26.3393 15.8047 26.6804 15.6632 27.0316 15.5512C27.3845 15.444 27.6938 15.2269 27.9146 14.9315C28.1353 14.6361 28.2559 14.2779 28.2587 13.9091V13.5938H29.7413V13.9091C29.7441 14.2779 29.8647 14.6361 30.0854 14.9315C30.3062 15.2269 30.6155 15.444 30.9684 15.5512C31.3196 15.6631 31.6607 15.8046 31.9879 15.9745C32.3135 16.149 32.6863 16.2147 33.0519 16.162C33.4175 16.1094 33.7567 15.9411 34.0197 15.6818L34.2436 15.4579L35.2921 16.5064L35.0682 16.7303C34.8088 16.9933 34.6404 17.3324 34.5878 17.6981C34.5351 18.0637 34.6009 18.4366 34.7755 18.7621C34.9453 19.0893 35.0868 19.4304 35.1987 19.7816C35.306 20.1345 35.5231 20.4438 35.8185 20.6646C36.1139 20.8853 36.4721 21.0059 36.8409 21.0087H37.1562V22.4913Z" fill="black"/>
<path d="M28.9999 16.3125C27.9245 16.3125 26.8732 16.6314 25.979 17.2289C25.0848 17.8264 24.3879 18.6756 23.9763 19.6692C23.5648 20.6627 23.4571 21.756 23.6669 22.8108C23.8767 23.8656 24.3946 24.8344 25.155 25.5949C25.9155 26.3553 26.8843 26.8732 27.9391 27.083C28.9939 27.2928 30.0872 27.1851 31.0807 26.7736C32.0743 26.362 32.9235 25.6651 33.521 24.7709C34.1185 23.8767 34.4374 22.8254 34.4374 21.75C34.4357 20.3084 33.8623 18.9263 32.8429 17.907C31.8236 16.8876 30.4415 16.3142 28.9999 16.3125ZM28.9999 25.375C28.2829 25.375 27.5821 25.1624 26.986 24.7641C26.3898 24.3658 25.9252 23.7996 25.6508 23.1372C25.3765 22.4748 25.3047 21.746 25.4446 21.0428C25.5844 20.3396 25.9297 19.6937 26.4366 19.1867C26.9436 18.6798 27.5895 18.3345 28.2927 18.1947C28.9959 18.0548 29.7247 18.1266 30.3871 18.4009C31.0495 18.6753 31.6157 19.1399 32.014 19.7361C32.4123 20.3322 32.6249 21.033 32.6249 21.75C32.6237 22.711 32.2414 23.6324 31.5618 24.3119C30.8823 24.9915 29.9609 25.3738 28.9999 25.375ZM2.71865 57.0938H55.2812C55.4311 57.0937 55.5787 57.0565 55.7108 56.9854C55.8428 56.9143 55.9551 56.8115 56.0377 56.6863C56.1202 56.5611 56.1704 56.4174 56.1837 56.268C56.197 56.1186 56.1731 55.9683 56.114 55.8304L50.6765 43.1429C50.6066 42.98 50.4905 42.841 50.3424 42.7434C50.1944 42.6458 50.021 42.5938 49.8437 42.5938H38.9687V44.4062H49.2455L53.9064 55.2812H4.09343L8.75337 44.4062H19.0311V42.5938H8.15615C7.97882 42.5938 7.8054 42.6458 7.65736 42.7434C7.50932 42.841 7.39317 42.98 7.32331 43.1429L1.88581 55.8304C1.82672 55.9683 1.80276 56.1186 1.81608 56.268C1.8294 56.4174 1.87958 56.5611 1.96213 56.6863C2.04467 56.8115 2.15699 56.9143 2.28903 56.9854C2.42106 57.0565 2.56868 57.0937 2.71865 57.0938ZM26.2811 34.4375H28.0936V39.875H26.2811V34.4375Z" fill="black"/>
<path d="M26.2812 41.6875H28.0938V43.5H26.2812V41.6875ZM26.2812 45.3125H28.0938V49.8438H26.2812V45.3125ZM29.9062 34.4375H31.7188V40.7812H29.9062V34.4375ZM29.9062 42.5938H31.7188V49.8438H29.9062V42.5938ZM33.5312 36.25H35.3438V44.4062H33.5312V36.25ZM22.6562 46.2188H24.4688V48.0312H22.6562V46.2188ZM22.6562 35.3438H24.4688V44.4062H22.6562V35.3438ZM33.5312 46.2188H35.3438V48.0312H33.5312V46.2188ZM43.5 3.625C43.2596 3.625 43.0291 3.72048 42.8592 3.89043C42.6892 4.06039 42.5938 4.2909 42.5938 4.53125V9.96875C42.5938 10.2091 42.6892 10.4396 42.8592 10.6096C43.0291 10.7795 43.2596 10.875 43.5 10.875H46.2188V12.6875H44.4062C44.1659 12.6875 43.9354 12.783 43.7654 12.9529C43.5955 13.1229 43.5 13.3534 43.5 13.5938V18.125C43.5 18.3654 43.5955 18.5959 43.7654 18.7658C43.9354 18.9358 44.1659 19.0312 44.4062 19.0312H48.9375C49.1779 19.0312 49.4084 18.9358 49.5783 18.7658C49.7483 18.5959 49.8438 18.3654 49.8438 18.125V16.3125H54.375C54.6154 16.3125 54.8459 16.217 55.0158 16.0471C55.1858 15.8771 55.2812 15.6466 55.2812 15.4062V8.15625C55.2812 7.9159 55.1858 7.68539 55.0158 7.51543C54.8459 7.34548 54.6154 7.25 54.375 7.25H49.8438V4.53125C49.8438 4.2909 49.7483 4.06039 49.5783 3.89043C49.4084 3.72048 49.1779 3.625 48.9375 3.625H43.5ZM44.4062 9.0625V5.4375H48.0312V7.25H47.125C46.8846 7.25 46.6541 7.34548 46.4842 7.51543C46.3142 7.68539 46.2188 7.9159 46.2188 8.15625V9.0625H44.4062ZM48.0312 17.2188H45.3125V14.5H46.2188V15.4062C46.2188 15.6466 46.3142 15.8771 46.4842 16.0471C46.6541 16.217 46.8846 16.3125 47.125 16.3125H48.0312V17.2188ZM53.4688 9.0625V14.5H48.0312V9.0625H53.4688ZM31.7188 8.15625C31.9591 8.15625 32.1896 8.06077 32.3596 7.89082C32.5295 7.72086 32.625 7.49035 32.625 7.25V1.8125C32.625 1.57215 32.5295 1.34164 32.3596 1.17168C32.1896 1.00173 31.9591 0.90625 31.7188 0.90625H26.2812C26.0409 0.90625 25.8104 1.00173 25.6404 1.17168C25.4705 1.34164 25.375 1.57215 25.375 1.8125V7.25C25.375 7.49035 25.4705 7.72086 25.6404 7.89082C25.8104 8.06077 26.0409 8.15625 26.2812 8.15625H31.7188ZM27.1875 2.71875H30.8125V6.34375H27.1875V2.71875ZM3.625 28.0938H9.0625C9.30285 28.0938 9.53336 27.9983 9.70332 27.8283C9.87327 27.6584 9.96875 27.4279 9.96875 27.1875V24.4688H14.5C14.7404 24.4688 14.9709 24.3733 15.1408 24.2033C15.3108 24.0334 15.4062 23.8029 15.4062 23.5625V16.3125C15.4062 16.0721 15.3108 15.8416 15.1408 15.6717C14.9709 15.5017 14.7404 15.4062 14.5 15.4062H7.25C7.00965 15.4062 6.77914 15.5017 6.60918 15.6717C6.43923 15.8416 6.34375 16.0721 6.34375 16.3125V20.8438H3.625C3.38465 20.8438 3.15414 20.9392 2.98418 21.1092C2.81423 21.2791 2.71875 21.5096 2.71875 21.75V27.1875C2.71875 27.4279 2.81423 27.6584 2.98418 27.8283C3.15414 27.9983 3.38465 28.0938 3.625 28.0938ZM8.15625 17.2188H13.5938V22.6562H8.15625V17.2188ZM4.53125 22.6562H6.34375V23.5625C6.34375 23.8029 6.43923 24.0334 6.60918 24.2033C6.77914 24.3733 7.00965 24.4688 7.25 24.4688H8.15625V26.2812H4.53125V22.6562ZM9.0625 12.6875H13.5938C13.8341 12.6875 14.0646 12.592 14.2346 12.4221C14.4045 12.2521 14.5 12.0216 14.5 11.7812V7.25C14.5 7.00965 14.4045 6.77914 14.2346 6.60918C14.0646 6.43923 13.8341 6.34375 13.5938 6.34375H9.0625C8.82215 6.34375 8.59164 6.43923 8.42168 6.60918C8.25173 6.77914 8.15625 7.00965 8.15625 7.25V11.7812C8.15625 12.0216 8.25173 12.2521 8.42168 12.4221C8.59164 12.592 8.82215 12.6875 9.0625 12.6875ZM9.96875 8.15625H12.6875V10.875H9.96875V8.15625ZM42.5938 28.0938C42.3534 28.0938 42.1229 28.1892 41.9529 28.3592C41.783 28.5291 41.6875 28.7596 41.6875 29V32.625C41.6875 32.8654 41.783 33.0959 41.9529 33.2658C42.1229 33.4358 42.3534 33.5312 42.5938 33.5312H46.2188C46.4591 33.5312 46.6896 33.4358 46.8596 33.2658C47.0295 33.0959 47.125 32.8654 47.125 32.625V29C47.125 28.7596 47.0295 28.5291 46.8596 28.3592C46.6896 28.1892 46.4591 28.0938 46.2188 28.0938H42.5938ZM45.3125 31.7188H43.5V29.9062H45.3125V31.7188Z" fill="black"/>
<path d="M10.5966 47.125H17.2186V45.3125H9.96858C9.78399 45.3124 9.60376 45.3686 9.45201 45.4738C9.30026 45.5789 9.18422 45.7278 9.11943 45.9007L6.40068 53.1507C6.34927 53.2878 6.33186 53.4354 6.34996 53.5807C6.36806 53.7261 6.42112 53.8649 6.50459 53.9852C6.58807 54.1056 6.69947 54.2039 6.82926 54.2718C6.95905 54.3397 7.10336 54.3751 7.24983 54.375H50.7498C50.8963 54.3751 51.0406 54.3397 51.1704 54.2718C51.3002 54.2039 51.4116 54.1056 51.4951 53.9852C51.5785 53.8649 51.6316 53.7261 51.6497 53.5807C51.6678 53.4354 51.6504 53.2878 51.599 53.1507L48.8802 45.9007C48.8154 45.7278 48.6994 45.5789 48.5477 45.4738C48.3959 45.3686 48.2157 45.3124 48.0311 45.3125H40.7811V47.125H47.4031L49.4421 52.5625H8.55755L10.5966 47.125Z" fill="black"/>
</svg>
