<svg width="58" height="58" viewBox="0 0 58 58" fill="none" xmlns="http://www.w3.org/2000/svg">
<path d="M56.7711 37.9275C56.371 36.7462 55.4153 35.8884 54.0802 35.512C52.6437 35.1068 50.7752 35.2358 48.5267 35.8955L38.2914 38.8983C38.2482 38.8103 38.202 38.7238 38.153 38.6389C37.5814 37.6489 36.662 36.9417 35.5641 36.6475L28.2925 34.6991C22.9861 30.9808 20.1423 32.0487 15.9603 34.0937C13.9601 35.0716 11.9723 36.0178 10.0929 36.906L9.69878 35.9597C9.17587 34.7041 7.72859 34.1069 6.47207 34.6283L2.54427 36.2594C1.93187 36.5135 1.45643 36.9886 1.20551 37.5968C0.954482 38.2051 0.956634 38.8772 1.21163 39.4893L7.86294 55.4608C8.2575 56.4082 9.17813 56.9808 10.1461 56.9807C10.461 56.9807 10.7812 56.9201 11.0895 56.792L15.0174 55.1609C15.6297 54.9066 16.1052 54.4316 16.3561 53.8233C16.607 53.2151 16.6049 52.543 16.35 51.931L15.9044 50.8611L18.4645 49.6163C19.3995 49.1617 20.3394 49.0816 21.3381 49.3716L29.5083 51.7438C30.1098 51.9185 30.7314 51.9931 31.3621 51.9931C33.5336 51.993 35.8107 51.1071 37.7247 50.3621C37.8933 50.2965 53.554 44.261 53.554 44.261C56.0366 43.3044 57.5698 40.2856 56.7711 37.9275ZM14.8901 53.2185C14.8008 53.4349 14.6301 53.6045 14.4092 53.6962L10.4813 55.3272C10.0317 55.5136 9.51401 55.3003 9.32699 54.851L2.67568 38.8795C2.58369 38.6588 2.58233 38.4181 2.6716 38.2017C2.76086 37.9855 2.93158 37.8159 3.15248 37.7241L7.08028 36.093C7.18722 36.0485 7.30191 36.0255 7.41774 36.0255C7.76404 36.0255 8.09358 36.2304 8.23473 36.5693L14.886 52.5408C14.9779 52.7614 14.9794 53.0021 14.8901 53.2185ZM52.9839 42.781C52.9839 42.781 37.3199 48.8179 37.1497 48.8841C34.9028 49.7587 32.1066 50.8467 29.9505 50.2207L21.7804 47.8485C20.4066 47.4497 19.0576 47.5645 17.7711 48.1902L15.2937 49.3947L10.7031 38.3716C12.6076 37.4717 14.6245 36.5121 16.6567 35.5183C20.5654 33.6071 22.8225 32.7639 27.4921 36.0753C27.5689 36.1297 27.6546 36.1701 27.7456 36.1945L35.1535 38.1794C35.8423 38.3639 36.4197 38.8087 36.7794 39.4318C37.1392 40.055 37.2357 40.7775 37.0511 41.4661C36.8666 42.1548 36.4218 42.7323 35.7985 43.0921C35.1754 43.4519 34.4529 43.5484 33.7642 43.3637L23.9194 40.7259C23.4968 40.613 23.0617 40.8635 22.9483 41.2866C22.8938 41.4897 22.9223 41.7062 23.0275 41.8883C23.1327 42.0704 23.3059 42.2033 23.509 42.2578L33.3538 44.8956C34.4516 45.1896 35.6016 45.037 36.5916 44.4654C37.5817 43.8939 38.2889 42.9744 38.5831 41.8765C38.7103 41.4044 38.755 40.9139 38.7152 40.4266L48.9732 37.4172C52.3625 36.4231 54.7161 36.8039 55.269 38.4362C55.7928 39.9827 54.6609 42.1348 52.9839 42.781ZM47.6363 10.5093C50.2529 10.5093 52.3817 8.38066 52.3817 5.76409C52.3816 3.14797 50.2529 1.01953 47.6363 1.01953C45.0198 1.01953 42.8911 3.14797 42.8911 5.7642C42.8911 8.38066 45.0198 10.5093 47.6363 10.5093ZM47.6363 2.60547C49.3784 2.60547 50.7957 4.0225 50.7957 5.7642C50.7957 7.50624 49.3785 8.9235 47.6363 8.9235C45.8943 8.9235 44.477 7.50624 44.477 5.7642C44.477 4.0225 45.8943 2.60547 47.6363 2.60547ZM17.9291 22.7324C19.6189 24.2625 23.0674 24.8774 26.2333 24.8774C26.811 24.8774 27.3791 24.8564 27.9257 24.8172C28.3296 25.5505 29.1624 26.3108 30.7768 26.9051C32.4132 27.5075 34.5984 27.8394 36.9298 27.8394C40.8361 27.8394 44.7713 26.8938 45.9318 24.8171C46.479 24.8563 47.0476 24.8774 47.6262 24.8774C50.7919 24.8772 54.2408 24.2624 55.9305 22.7324C56.6173 22.1107 56.9802 21.3542 56.9802 20.5449C56.9802 15.3927 52.7886 11.201 47.6363 11.201C44.7503 11.201 42.0467 12.5295 40.28 14.784C39.2113 14.3716 38.0757 14.1603 36.9302 14.1607C35.7846 14.1603 34.6488 14.3716 33.58 14.7841C31.8133 12.5296 29.1099 11.201 26.2239 11.201C21.0714 11.201 16.8794 15.3927 16.8794 20.5449C16.8793 21.3542 17.2424 22.1107 17.9291 22.7324ZM47.6363 12.787C51.9141 12.787 55.3943 16.2672 55.3943 20.5449C55.3943 20.9039 55.2215 21.2349 54.8661 21.5567C53.5072 22.787 49.9038 23.4799 46.2675 23.251C46.1793 19.9643 44.3881 17.0954 41.7437 15.4994C42.4717 14.6485 43.3755 13.9655 44.3927 13.4973C45.4099 13.0291 46.5165 12.7867 47.6363 12.787ZM44.6881 23.5045C44.6881 25.0459 41.2802 26.2535 36.9298 26.2535C32.5793 26.2535 29.1715 25.046 29.1715 23.5045C29.1715 19.2268 32.6519 15.7467 36.9301 15.7467C41.2078 15.7467 44.6881 19.2269 44.6881 23.5045ZM26.2238 12.787C27.3436 12.7868 28.4501 13.0291 29.4673 13.4973C30.4844 13.9655 31.3882 14.6485 32.1162 15.4993C29.4716 17.0954 27.6802 19.9642 27.592 23.2509C23.9557 23.4798 20.3523 22.7869 18.9935 21.5566C18.6381 21.2348 18.4653 20.9038 18.4653 20.5448C18.4653 16.2672 21.9458 12.787 26.2238 12.787ZM26.2238 10.5093C28.8404 10.5093 30.9691 8.38066 30.9691 5.76409C30.9691 3.14797 28.8404 1.01953 26.2238 1.01953C23.6072 1.01953 21.4786 3.14797 21.4786 5.7642C21.4786 8.38066 23.6073 10.5093 26.2238 10.5093ZM26.2238 2.60547C27.9658 2.60547 29.3832 4.0225 29.3832 5.7642C29.3832 7.50624 27.9659 8.9235 26.2238 8.9235C24.4818 8.9235 23.0645 7.50624 23.0645 5.7642C23.0645 4.0225 24.4818 2.60547 26.2238 2.60547ZM36.9301 13.4689C39.5467 13.4689 41.6754 11.3402 41.6754 8.72368C41.6754 6.10745 39.5467 3.979 36.9301 3.979C34.3135 3.979 32.1849 6.10745 32.1849 8.72368C32.1849 11.3402 34.3135 13.4689 36.9301 13.4689ZM36.9301 5.56505C38.6722 5.56505 40.0894 6.98209 40.0894 8.72379C40.0894 10.4658 38.6722 11.8831 36.9301 11.8831C35.1881 11.8831 33.7708 10.4658 33.7708 8.72379C33.7708 6.98209 35.1881 5.56505 36.9301 5.56505Z" fill="black"/>
</svg>
