<svg width="58" height="58" viewBox="0 0 58 58" fill="none" xmlns="http://www.w3.org/2000/svg">
<g clip-path="url(#clip0_2001_3661)">
<path d="M13.7064 18.8052C11.2079 18.8052 9.17508 20.8381 9.17508 23.3365C9.17508 25.8349 11.2079 27.8678 13.7064 27.8678C16.2053 27.8678 18.2376 25.8349 18.2376 23.3365C18.2376 20.8381 16.2053 18.8052 13.7064 18.8052ZM13.7064 25.6021C12.4572 25.6021 11.4407 24.5857 11.4407 23.3365C11.4407 22.0873 12.4572 21.0709 13.7064 21.0709C14.956 21.0709 15.972 22.0873 15.972 23.3365C15.972 24.5857 14.956 25.6021 13.7064 25.6021ZM30.6987 17.6724C30.6987 15.174 28.6663 13.1411 26.1674 13.1411C23.669 13.1411 21.6361 15.174 21.6361 17.6724C21.6361 20.1708 23.669 22.2037 26.1674 22.2037C28.6663 22.2037 30.6987 20.1708 30.6987 17.6724ZM23.9018 17.6724C23.9018 16.4232 24.9182 15.4068 26.1674 15.4068C27.417 15.4068 28.433 16.4232 28.433 17.6724C28.433 18.9216 27.417 19.938 26.1674 19.938C24.9182 19.938 23.9018 18.9216 23.9018 17.6724ZM5.77661 36.9304C5.77661 39.4288 7.80946 41.4616 10.3079 41.4616C12.8068 41.4616 14.8392 39.4288 14.8392 36.9304C14.8392 34.4319 12.8068 32.3991 10.3079 32.3991C7.80946 32.3991 5.77661 34.4319 5.77661 36.9304ZM10.3079 34.6647C11.5575 34.6647 12.5735 35.6812 12.5735 36.9304C12.5735 38.1795 11.5575 39.196 10.3079 39.196C9.05874 39.196 8.04225 38.1795 8.04225 36.9304C8.04225 35.6812 9.05874 34.6647 10.3079 34.6647ZM15.972 45.9929C15.972 48.4914 18.0049 50.5242 20.5033 50.5242C23.0022 50.5242 25.0346 48.4914 25.0346 45.9929C25.0346 43.4945 23.0022 41.4616 20.5033 41.4616C18.0049 41.4616 15.972 43.4945 15.972 45.9929ZM22.7689 45.9929C22.7689 47.2421 21.7529 48.2586 20.5033 48.2586C19.2541 48.2586 18.2376 47.2421 18.2376 45.9929C18.2376 44.7438 19.2541 43.7273 20.5033 43.7273C21.7529 43.7273 22.7689 44.7438 22.7689 45.9929Z" fill="black"/>
<path d="M46.5915 10.7735C46.5915 8.0782 42.6699 1.76397 41.8835 0.525907C41.7812 0.364912 41.64 0.232344 41.4728 0.140495C41.3057 0.0486454 41.118 0.000488281 40.9273 0.000488281C40.7366 0.000488281 40.5489 0.0486454 40.3818 0.140495C40.2146 0.232344 40.0733 0.364912 39.9711 0.525907C39.2838 1.60775 36.2044 6.56384 35.4366 9.59595C28.3167 6.67101 20.8954 6.75065 14.3786 9.8565C7.89886 12.9449 2.67338 18.9524 0.821901 26.5158C0.672709 27.1238 1.04495 27.7366 1.65249 27.8854C1.74311 27.9074 1.83385 27.918 1.92289 27.918C2.43266 27.918 2.89598 27.5716 3.02252 27.0542C4.63181 20.4794 9.24194 14.8144 15.3534 11.9016C21.5329 8.9567 28.6335 9.01459 35.4092 12.0502C35.7646 13.5879 36.7527 14.9083 38.1121 15.688C37.4452 18.1152 36.9257 21.7992 36.6305 26.2402C36.5107 28.0429 36.4297 29.9567 36.3898 31.9382C32.0882 34.4067 29.2553 39.1033 29.6102 44.7131C29.7446 46.8327 29.9478 50.036 26.6105 52.9451C24.2266 55.0236 20.718 55.5947 17.4544 54.4363C9.35386 51.5613 3.49377 44.194 2.52419 35.6669C2.45396 35.0451 1.8914 34.5991 1.27106 34.669C0.649259 34.7398 0.202814 35.3009 0.273163 35.9226C1.3609 45.4919 7.871 53.4389 16.6968 56.5715C20.7317 58.0038 25.1005 57.267 28.0994 54.6527C32.2793 51.0086 32.0138 46.8199 31.871 44.5693C31.6068 40.3889 33.4286 36.8523 36.3628 34.6597V34.6643C36.3628 40.0295 36.7739 50.5441 38.5033 55.4466C38.7492 56.1448 39.4038 58.0003 40.8941 58.0003C42.3849 58.0003 43.0394 56.1448 43.2855 55.4466C45.0041 50.5745 45.4254 40.1376 45.4254 34.6642C45.4254 33.8867 45.4187 33.1216 45.4059 32.3751C45.7555 32.3702 46.11 32.3697 46.4688 32.3755C48.6142 32.4069 50.5628 31.1015 51.3227 29.124C53.4048 23.7006 49.5349 18.2984 44.9704 14.7398C46.0096 13.6812 46.5917 12.2569 46.5915 10.7735ZM40.9274 3.30483C42.5615 6.07141 44.3259 9.52697 44.3259 10.7735C44.3259 12.7404 42.6916 14.2153 40.856 14.1743C39.0303 14.133 37.5289 12.643 37.5289 10.7735C37.5289 9.52697 39.2927 6.07141 40.9274 3.30483ZM40.9274 16.4376C41.1273 16.4376 41.3264 16.4261 41.5233 16.4052C42.0784 18.4798 42.5376 21.6415 42.8239 25.3772C41.5425 25.5407 40.2454 25.5379 38.9648 25.3687C39.2511 21.6335 39.7113 18.4732 40.2671 16.3987C40.4853 16.4243 40.7056 16.4376 40.9273 16.4376H40.9274ZM40.8941 55.3172C39.0639 51.4024 38.6285 39.6113 38.6285 34.6645C38.6285 34.0317 38.6431 32.6382 38.6435 32.6347C38.6696 30.9094 38.728 29.234 38.8161 27.6348C39.5164 27.7217 40.2215 27.7654 40.9273 27.7654C41.6123 27.7654 42.2969 27.7242 42.9735 27.6424C43.0404 28.8751 43.0888 30.1088 43.1185 31.3431C43.146 32.406 43.1597 33.5233 43.1597 34.6645C43.1597 39.7657 42.6991 51.4571 40.8941 55.3172ZM49.2075 28.3119C48.7871 29.4057 47.6994 30.1306 46.5043 30.1107C46.1193 30.1045 45.7342 30.1044 45.3493 30.1102C45.3055 28.7968 45.2418 27.5038 45.1589 26.2533C45.1586 26.2458 45.1572 26.2382 45.1563 26.2306C44.9045 22.4398 44.4887 19.201 43.958 16.8265C48.5429 20.5374 50.543 24.8333 49.2075 28.3119Z" fill="black"/>
<path d="M2.37817 31.2661C2.37817 31.8918 1.87113 32.3989 1.24536 32.3989C0.620049 32.3989 0.112549 31.8918 0.112549 31.2661C0.112549 30.6405 0.620049 30.1333 1.24536 30.1333C1.87113 30.1333 2.37817 30.6405 2.37817 31.2661Z" fill="black"/>
</g>
<defs>
<clipPath id="clip0_2001_3661">
<rect width="58" height="58" fill="white"/>
</clipPath>
</defs>
</svg>
