<svg width="58" height="58" viewBox="0 0 58 58" fill="none" xmlns="http://www.w3.org/2000/svg">
<g clip-path="url(#clip0_2001_3668)">
<path d="M58 21.199C57.9983 20.9001 57.9245 20.6061 57.7848 20.3418C57.6452 20.0776 57.4437 19.851 57.1977 19.6813C56.931 19.5014 56.6255 19.3874 56.3061 19.3488C55.9868 19.3101 55.6629 19.3479 55.361 19.459L45.4333 23.2V17.6513L45.733 17.8543C46.2114 18.1901 46.7822 18.3691 47.3667 18.3667C47.985 18.3661 48.587 18.1679 49.0847 17.8011C49.5825 17.4342 49.9499 16.9178 50.1334 16.3273C50.3169 15.7369 50.3069 15.1032 50.1048 14.5188C49.9027 13.9344 49.5191 13.4299 49.01 13.079L30.6433 0.512333C30.16 0.179173 29.587 0.000523628 29 0C28.413 0.000523628 27.84 0.179173 27.3567 0.512333L8.99 13.079C8.67373 13.2935 8.40297 13.5684 8.19328 13.8878C7.98359 14.2073 7.83911 14.5651 7.76814 14.9406C7.69718 15.3161 7.70112 15.7019 7.77975 16.0758C7.85839 16.4498 8.01015 16.8045 8.22633 17.1197C8.49561 17.5079 8.85566 17.8244 9.27516 18.0417C9.69466 18.2591 10.1609 18.3706 10.6333 18.3667C11.216 18.367 11.7853 18.1919 12.267 17.864L12.5667 17.6513V23.4513L2.65833 19.4783C2.36516 19.3597 2.04737 19.3149 1.73283 19.3477C1.41828 19.3805 1.11659 19.4899 0.854188 19.6665C0.591788 19.843 0.376698 20.0812 0.227774 20.3602C0.0788503 20.6392 0.000640085 20.9504 0 21.2667L0 47.3667C0 47.8794 0.20369 48.3712 0.56626 48.7337C0.928831 49.0963 1.42058 49.3 1.93333 49.3H2.65833C3.18857 49.2967 3.70774 49.148 4.15938 48.8702C4.61103 48.5924 4.97787 48.1961 5.22 47.7243L6.032 46.11L7.73333 46.9027C7.55805 47.3668 7.49807 47.8665 7.55856 48.3589C7.61904 48.8513 7.79817 49.3217 8.08056 49.7296C8.36295 50.1375 8.74016 50.4707 9.17976 50.7007C9.61936 50.9306 10.1082 51.0504 10.6043 51.0497C10.9816 51.0472 11.3552 50.9751 11.7063 50.837C11.952 51.4674 12.3826 52.0088 12.9416 52.3901C13.5005 52.7714 14.1617 52.9747 14.8383 52.9733C15.2414 52.9733 15.6407 52.9018 16.0177 52.7607C16.2525 53.4164 16.6839 53.9836 17.2531 54.385C17.8223 54.7864 18.5015 55.0023 19.198 55.0033C19.546 55.0014 19.8916 54.946 20.2227 54.839V54.8873C20.3542 55.2454 20.5551 55.5741 20.8139 55.8544C21.0727 56.1348 21.3842 56.3613 21.7307 56.521C22.346 56.8024 23.0403 56.8598 23.6935 56.6833C24.3467 56.5068 24.9176 56.1074 25.3073 55.5543L27.5983 57.4007C28.0171 57.7171 28.5084 57.924 29.0274 58.0024C29.5465 58.0808 30.0769 58.0283 30.5705 57.8497C31.0641 57.6711 31.5052 57.372 31.8539 56.9796C32.2026 56.5871 32.4477 56.1139 32.567 55.6027C33.0749 55.7505 33.6137 55.7567 34.1248 55.6203C34.636 55.484 35.1001 55.2105 35.467 54.8293C35.9516 54.3515 36.2527 53.7185 36.3177 53.041C36.4559 53.0507 36.5951 53.0507 36.7333 53.041C37.5869 53.043 38.4125 52.7371 39.0588 52.1796C39.7051 51.6221 40.1287 50.8503 40.252 50.0057C40.6353 50.1351 41.0365 50.2036 41.441 50.2087C41.9276 50.2099 42.4096 50.1151 42.8593 49.9294C43.3091 49.7438 43.7177 49.4712 44.0618 49.1271C44.4058 48.7831 44.6785 48.3744 44.8641 47.9247C45.0497 47.4749 45.1446 46.9929 45.1433 46.5063C45.1405 46.0214 45.042 45.5418 44.8533 45.095L51.0013 42.5333L52.7993 45.8587C53.049 46.3149 53.4167 46.6956 53.8639 46.9609C54.3112 47.2262 54.8216 47.3664 55.3417 47.3667H56.0667C56.5679 47.367 57.0497 47.1726 57.4104 46.8245C57.771 46.4765 57.9825 46.0019 58 45.501V21.199ZM11.1747 16.269C10.9632 16.4138 10.7028 16.4687 10.4508 16.4216C10.1988 16.3745 9.97586 16.2292 9.831 16.0177C9.75918 15.911 9.70937 15.7911 9.68447 15.6649C9.65957 15.5388 9.66009 15.4089 9.686 15.283C9.73389 15.0362 9.87605 14.8177 10.0823 14.674L28.449 2.10733C28.6088 1.99093 28.8023 1.92984 29 1.93333C29.1971 1.9338 29.3894 1.99451 29.551 2.10733L47.9177 14.674C48.1264 14.8187 48.2698 15.0398 48.3169 15.2895C48.3639 15.5391 48.3108 15.7972 48.169 16.008C48.0241 16.2195 47.8012 16.3648 47.5492 16.4119C47.2972 16.4591 47.0368 16.4042 46.8253 16.2593L29.551 4.44667C29.3892 4.33441 29.1969 4.27426 29 4.27426C28.8031 4.27426 28.6108 4.33441 28.449 4.44667L11.1747 16.269ZM29 6.409L43.5 16.3367V24.1667C43.0191 24.5614 42.6918 25.1123 42.5752 25.7234C42.4586 26.3346 42.5601 26.9673 42.862 27.5113L43.8287 29.3093L41.2187 30.276C40.7793 30.4467 40.305 30.5078 39.8367 30.4539C39.3685 30.4 38.9204 30.2327 38.5313 29.9667L33.8333 26.4963V21.2667C33.8333 20.7539 33.6296 20.2622 33.2671 19.8996C32.9045 19.537 32.4128 19.3333 31.9 19.3333H26.1C25.5872 19.3333 25.0955 19.537 24.7329 19.8996C24.3704 20.2622 24.1667 20.7539 24.1667 21.2667V27.579C23.8012 28.0866 23.4779 28.6233 23.2 29.1837C22.1553 29.2792 21.1184 29.4471 20.097 29.6863C19.529 29.8275 18.9502 29.9213 18.3667 29.9667C17.0853 29.8138 15.8378 29.4513 14.674 28.8937L15.138 27.927C15.4305 27.3578 15.5266 26.7079 15.4112 26.0784C15.2958 25.449 14.9754 24.8754 14.5 24.447V16.3367L29 6.409ZM31.9 25.1817C30.9868 24.7136 29.9621 24.5066 28.9388 24.5833C27.9155 24.6601 26.9332 25.0176 26.1 25.6167V21.2667H31.9V25.1817ZM2.65833 47.3667H1.93333V21.2667L12.934 25.7327C13.0607 25.784 13.175 25.8616 13.2695 25.9603C13.3639 26.0591 13.4364 26.1767 13.4821 26.3055C13.5278 26.4343 13.5456 26.5713 13.5344 26.7075C13.5233 26.8437 13.4834 26.976 13.4173 27.0957L3.49933 46.8543C3.41792 47.0073 3.29691 47.1355 3.14896 47.2256C3.00101 47.3158 2.83156 47.3645 2.65833 47.3667ZM10.092 48.981C9.81823 48.8548 9.60558 48.6253 9.50052 48.3427C9.39546 48.0601 9.40654 47.7474 9.53133 47.473L10.6333 45.153C10.7596 44.8792 10.9891 44.6666 11.2717 44.5615C11.5542 44.4565 11.8669 44.4675 12.1413 44.5923C12.4178 44.7141 12.6314 44.9452 12.731 45.2303C12.8465 45.5122 12.8465 45.8282 12.731 46.11L11.6 48.43C11.5376 48.5656 11.449 48.6875 11.3393 48.7886C11.2296 48.8898 11.1009 48.9683 10.9607 49.0195C10.8205 49.0707 10.6716 49.0937 10.5225 49.0871C10.3734 49.0805 10.2271 49.0444 10.092 48.981ZM15.3023 50.9143C15.128 50.9882 14.9407 51.0263 14.7513 51.0263C14.562 51.0263 14.3746 50.9882 14.2003 50.9143C14.0264 50.8369 13.8699 50.725 13.7403 50.5854C13.6107 50.4459 13.5107 50.2816 13.4463 50.1023C13.3018 49.7459 13.3018 49.3471 13.4463 48.9907L15.109 45.4333C15.2692 45.0844 15.5612 44.8133 15.921 44.6793C16.2832 44.552 16.6801 44.5658 17.0327 44.718C17.3826 44.8823 17.6533 45.1772 17.7867 45.5397C17.8608 45.7156 17.8991 45.9046 17.8991 46.0955C17.8991 46.2864 17.8608 46.4754 17.7867 46.6513L16.124 50.17C15.9598 50.5195 15.6647 50.7904 15.3023 50.924V50.9143ZM18.589 52.8477C18.2399 52.6838 17.9692 52.3892 17.8354 52.0275C17.7016 51.6658 17.7153 51.266 17.8737 50.9143L19.0917 48.3333C19.2544 47.9863 19.5455 47.716 19.9037 47.5793C20.0652 47.5224 20.2351 47.493 20.4063 47.4923C20.6172 47.4887 20.8259 47.5351 21.0153 47.6277C21.3662 47.7852 21.6379 48.0781 21.7693 48.4397C21.9047 48.8012 21.8863 49.2033 21.721 49.5513L20.5997 52.0067L20.5223 52.171C20.4432 52.3456 20.3302 52.5028 20.1898 52.6334C20.0495 52.764 19.8847 52.8656 19.7049 52.9321C19.5251 52.9986 19.3339 53.0288 19.1424 53.021C18.9508 53.0131 18.7627 52.9674 18.589 52.8863V52.8477ZM22.5427 54.665C22.3101 54.5582 22.1293 54.3635 22.04 54.1237C21.9908 54.0058 21.9655 53.8793 21.9655 53.7515C21.9655 53.6237 21.9908 53.4972 22.04 53.3793L22.3397 52.7317L23.2387 50.7983C23.3239 50.6282 23.4574 50.487 23.6224 50.3925C23.7875 50.2979 23.9768 50.2541 24.1667 50.2667C24.3067 50.2659 24.4452 50.2956 24.5727 50.3537C24.6904 50.4058 24.7966 50.481 24.8849 50.5747C24.9732 50.6685 25.0419 50.7789 25.0869 50.8996C25.132 51.0203 25.1524 51.1487 25.1471 51.2774C25.1418 51.4061 25.1108 51.5325 25.056 51.649L23.8477 54.2687C23.7929 54.3851 23.7154 54.4895 23.6198 54.5756C23.5241 54.6618 23.4123 54.7279 23.2907 54.7703C23.1692 54.8126 23.0404 54.8302 22.9119 54.8221C22.7835 54.814 22.6579 54.7803 22.5427 54.723V54.665ZM42.688 47.7147C42.3731 48.0325 41.9489 48.2185 41.5017 48.2346C41.0546 48.2508 40.618 48.096 40.281 47.8017L35.583 43.6837L34.4713 42.717C34.3739 42.6288 34.2584 42.5629 34.133 42.5237C34.0848 42.519 34.0362 42.519 33.988 42.5237C33.7923 42.4859 33.5897 42.5095 33.408 42.5913C33.2959 42.6514 33.1946 42.7298 33.1083 42.8233C33.0242 42.9138 32.9593 43.0204 32.9178 43.1368C32.8762 43.2531 32.8588 43.3767 32.8667 43.5C32.8626 43.5289 32.8626 43.5581 32.8667 43.587C32.8984 43.8058 33.0042 44.0071 33.1663 44.1573L37.7773 48.198C38.0864 48.4944 38.2662 48.9005 38.2778 49.3285C38.2895 49.7565 38.1321 50.1719 37.8397 50.4847C37.5473 50.7974 37.1434 50.9824 36.7156 50.9995C36.2878 51.0166 35.8704 50.8644 35.554 50.576L35.4477 50.4697L31.581 46.603C31.399 46.421 31.1521 46.3187 30.8947 46.3187C30.6372 46.3187 30.3904 46.421 30.2083 46.603C30.0263 46.785 29.924 47.0319 29.924 47.2893C29.924 47.5468 30.0263 47.7936 30.2083 47.9757L34.075 51.8423C34.1761 51.9422 34.2564 52.0611 34.3112 52.1921C34.366 52.3232 34.3942 52.4639 34.3942 52.606C34.3942 52.7481 34.366 52.8888 34.3112 53.0199C34.2564 53.151 34.1761 53.2699 34.075 53.3697C33.867 53.5654 33.5921 53.6744 33.3065 53.6744C33.0209 53.6744 32.746 53.5654 32.538 53.3697L31.7067 52.5287L30.624 51.446C30.5341 51.3554 30.4272 51.2835 30.3094 51.2344C30.1916 51.1853 30.0653 51.1601 29.9377 51.1601C29.8101 51.1601 29.6837 51.1853 29.5659 51.2344C29.4481 51.2835 29.3412 51.3554 29.2513 51.446C29.1607 51.5359 29.0888 51.6428 29.0397 51.7606C28.9907 51.8784 28.9654 52.0047 28.9654 52.1323C28.9654 52.2599 28.9907 52.3863 29.0397 52.5041C29.0888 52.6219 29.1607 52.7288 29.2513 52.8187L30.334 53.9013C30.5708 54.1285 30.7042 54.4427 30.7013 54.7713C30.6914 54.9915 30.6229 55.205 30.5029 55.3898C30.3829 55.5746 30.2157 55.724 30.0186 55.8225C29.8215 55.9211 29.6017 55.9652 29.3818 55.9503C29.1619 55.9355 28.95 55.8622 28.768 55.738L26.1967 53.7467L26.796 52.432C26.9583 52.0851 27.0504 51.7095 27.0667 51.3268C27.0831 50.9441 27.0235 50.562 26.8914 50.2025C26.7593 49.843 26.5572 49.5132 26.297 49.2322C26.0367 48.9512 25.7233 48.7246 25.375 48.5653C24.8605 48.3328 24.2894 48.2556 23.7317 48.343C23.6982 48.1494 23.6497 47.9587 23.5867 47.7727C23.3113 47.018 22.775 46.3867 22.0746 45.9931C21.3743 45.5995 20.5562 45.4695 19.7683 45.6267C19.7077 45.121 19.5334 44.6356 19.2584 44.2068C18.9834 43.7781 18.6149 43.4172 18.1806 43.1512C17.7463 42.8853 17.2573 42.721 16.7505 42.671C16.2436 42.6209 15.732 42.6862 15.254 42.862C14.7829 43.0407 14.3571 43.3213 14.007 43.6837C13.7196 43.3173 13.3483 43.0255 12.9243 42.833C12.1846 42.491 11.3394 42.4568 10.5745 42.7377C9.80956 43.0187 9.18748 43.5919 8.845 44.3313L8.48733 45.124L6.902 44.37L13.804 30.624C15.2396 31.31 16.7834 31.7418 18.3667 31.9C19.0747 31.857 19.7771 31.747 20.4643 31.5713C21.0057 31.4553 21.5857 31.3393 22.1947 31.2427L20.6093 34.8C20.2539 35.6104 20.2243 36.5266 20.5267 37.3583C20.8291 38.19 21.4403 38.8732 22.2333 39.266H22.33C23.0033 39.5847 23.7621 39.675 24.4914 39.5232C25.2206 39.3714 25.8805 38.9859 26.3707 38.425L30.189 34.1717L42.6107 45.2013C42.7919 45.3606 42.9385 45.5554 43.0413 45.7737C43.144 45.992 43.2008 46.229 43.2081 46.4702C43.2153 46.7114 43.1729 46.9514 43.0834 47.1755C42.994 47.3996 42.8594 47.6028 42.688 47.7727V47.7147ZM43.6547 43.471L29.638 31.175C29.444 31.0188 29.1972 30.9434 28.949 30.9647C28.7009 30.986 28.4705 31.1022 28.3059 31.2892C28.1414 31.4762 28.0554 31.7195 28.0658 31.9684C28.0763 32.2172 28.1824 32.4525 28.362 32.625L28.71 32.9343L24.9013 37.178C24.6806 37.4301 24.3832 37.6026 24.0548 37.669C23.7264 37.7354 23.3853 37.6919 23.084 37.5453H23.0163C22.6892 37.3594 22.4422 37.0593 22.3227 36.7026C22.2031 36.3458 22.2195 35.9574 22.3687 35.612L24.6113 30.6433C25.1401 29.4697 25.8995 28.4145 26.8443 27.5403C27.4662 26.9638 28.2692 26.6215 29.1158 26.5722C29.9623 26.5228 30.7997 26.7694 31.4843 27.2697L37.3713 31.5617C38.0166 32.0248 38.7661 32.3218 39.5535 32.4263C40.3409 32.5309 41.1419 32.4397 41.8857 32.161L44.7857 31.088L50.0733 40.861L43.6547 43.471ZM55.361 45.4043C55.1909 45.4087 55.0227 45.3681 54.8733 45.2866C54.724 45.2051 54.5987 45.0857 54.5103 44.9403L44.5827 26.5737C44.5298 26.4786 44.498 26.3733 44.4897 26.2648C44.4814 26.1563 44.4966 26.0474 44.5343 25.9453C44.5801 25.829 44.6504 25.7238 44.7405 25.6371C44.8306 25.5503 44.9383 25.484 45.0563 25.4427L56.0667 21.199V45.4333L55.361 45.4043Z" fill="black"/>
<path d="M29 17.3998C30.0255 17.3998 31.009 16.9925 31.7341 16.2673C32.4593 15.5422 32.8666 14.5587 32.8666 13.5332C32.8666 12.5077 32.4593 11.5242 31.7341 10.799C31.009 10.0739 30.0255 9.6665 29 9.6665C27.9745 9.6665 26.991 10.0739 26.2658 10.799C25.5407 11.5242 25.1333 12.5077 25.1333 13.5332C25.1333 14.5587 25.5407 15.5422 26.2658 16.2673C26.991 16.9925 27.9745 17.3998 29 17.3998ZM29 11.5998C29.5127 11.5998 30.0045 11.8035 30.367 12.1661C30.7296 12.5287 30.9333 13.0204 30.9333 13.5332C30.9333 14.0459 30.7296 14.5377 30.367 14.9002C30.0045 15.2628 29.5127 15.4665 29 15.4665C28.4872 15.4665 27.9955 15.2628 27.6329 14.9002C27.2703 14.5377 27.0666 14.0459 27.0666 13.5332C27.0666 13.0204 27.2703 12.5287 27.6329 12.1661C27.9955 11.8035 28.4872 11.5998 29 11.5998Z" fill="black"/>
</g>
<defs>
<clipPath id="clip0_2001_3668">
<rect width="58" height="58" fill="white"/>
</clipPath>
</defs>
</svg>
