<svg width="58" height="58" viewBox="0 0 58 58" fill="none" xmlns="http://www.w3.org/2000/svg">
<g clip-path="url(#clip0_2001_4039)">
<path d="M2.01078 24.1665H2.93878V56.0665C2.93878 56.5792 3.14247 57.071 3.50504 57.4336C3.86761 57.7961 4.35936 57.9998 4.87212 57.9998H37.7388C38.2515 57.9998 38.7433 57.7961 39.1059 57.4336C39.4684 57.071 39.6721 56.5792 39.6721 56.0665V39.1015C39.6721 38.8451 39.5703 38.5992 39.389 38.4179C39.2077 38.2367 38.9618 38.1348 38.7055 38.1348C38.4491 38.1348 38.2032 38.2367 38.0219 38.4179C37.8406 38.5992 37.7388 38.8451 37.7388 39.1015V56.0665H34.834V47.3665C34.834 45.8282 34.2229 44.353 33.1352 43.2653C32.0475 42.1776 30.5722 41.5665 29.034 41.5665C27.4957 41.5665 26.0204 42.1776 24.9327 43.2653C23.845 44.353 23.234 45.8282 23.234 47.3665V56.0665H4.87212V24.1665H18.8791C19.1355 24.1665 19.3814 24.0646 19.5627 23.8834C19.7439 23.7021 19.8458 23.4562 19.8458 23.1998C19.8458 22.9434 19.7439 22.6976 19.5627 22.5163C19.3814 22.335 19.1355 22.2332 18.8791 22.2332H2.00595L21.3006 7.96515L27.7096 12.7115C27.9157 12.864 28.174 12.9284 28.4276 12.8906C28.6813 12.8527 28.9094 12.7156 29.062 12.5095C29.2145 12.3033 29.2789 12.045 29.2411 11.7914C29.2032 11.5378 29.0661 11.3096 28.86 11.1571L22.4519 6.41558C22.1182 6.17065 21.7151 6.03857 21.3011 6.03857C20.8871 6.03857 20.484 6.17065 20.1503 6.41558L0.855617 20.6865C0.531326 20.9297 0.291687 21.2687 0.170578 21.6555C0.0494696 22.0424 0.053019 22.4575 0.180725 22.8422C0.30843 23.227 0.553831 23.5618 0.882233 23.7994C1.21063 24.0371 1.60542 24.1655 2.01078 24.1665ZM25.1673 47.3665C25.1673 46.341 25.5747 45.3575 26.2998 44.6323C27.0249 43.9072 28.0084 43.4998 29.034 43.4998C30.0595 43.4998 31.043 43.9072 31.7681 44.6323C32.4932 45.3575 32.9006 46.341 32.9006 47.3665V56.0665H25.1673V47.3665Z" fill="black"/>
<path d="M8.73405 53.1666H18.4007C18.6571 53.1666 18.903 53.0648 19.0843 52.8835C19.2655 52.7022 19.3674 52.4563 19.3674 52.2V42.5333C19.3674 42.2769 19.2655 42.031 19.0843 41.8498C18.903 41.6685 18.6571 41.5666 18.4007 41.5666H8.73405C8.47767 41.5666 8.2318 41.6685 8.05051 41.8498C7.86923 42.031 7.76738 42.2769 7.76738 42.5333V52.2C7.76738 52.4563 7.86923 52.7022 8.05051 52.8835C8.2318 53.0648 8.47767 53.1666 8.73405 53.1666ZM9.70072 48.3333H12.6007V51.2333H9.70072V48.3333ZM14.5341 51.2333V48.3333H17.4341V51.2333H14.5341ZM17.4341 46.4H14.5341V43.5H17.4341V46.4ZM12.6007 43.5V46.4H9.70072V43.5H12.6007ZM19.3674 28.0333C19.3674 27.7769 19.2655 27.531 19.0843 27.3498C18.903 27.1685 18.6571 27.0666 18.4007 27.0666H8.73405C8.47767 27.0666 8.2318 27.1685 8.05051 27.3498C7.86923 27.531 7.76738 27.7769 7.76738 28.0333V37.7C7.76738 37.9563 7.86923 38.2022 8.05051 38.3835C8.2318 38.5648 8.47767 38.6666 8.73405 38.6666H18.4007C18.6571 38.6666 18.903 38.5648 19.0843 38.3835C19.2655 38.2022 19.3674 37.9563 19.3674 37.7V28.0333ZM17.4341 31.9H14.5341V29H17.4341V31.9ZM12.6007 29V31.9H9.70072V29H12.6007ZM9.70072 33.8333H12.6007V36.7333H9.70072V33.8333ZM14.5341 36.7333V33.8333H17.4341V36.7333H14.5341ZM30.0007 52.2C30.2571 52.2 30.503 52.0981 30.6843 51.9168C30.8655 51.7356 30.9674 51.4897 30.9674 51.2333V49.3C30.9674 49.0436 30.8655 48.7977 30.6843 48.6164C30.503 48.4351 30.2571 48.3333 30.0007 48.3333C29.7443 48.3333 29.4985 48.4351 29.3172 48.6164C29.1359 48.7977 29.034 49.0436 29.034 49.3V51.2333C29.034 51.4897 29.1359 51.7356 29.3172 51.9168C29.4985 52.0981 29.7443 52.2 30.0007 52.2ZM30.3932 13.9364L29.7088 14.6208C29.4545 14.8764 29.2779 15.1989 29.1994 15.5507L23.3133 17.1022C23.1471 17.1456 22.9956 17.2327 22.8745 17.3545C21.6729 18.5551 21.3143 20.9428 21.9136 23.7423C22.0016 24.1502 22.1069 24.5562 22.2336 24.9593V24.9835C22.2336 24.9912 22.2519 25.0173 22.2577 25.0357C23.0425 27.556 24.4283 29.8477 26.2957 31.7134C28.1631 33.5791 30.4561 34.9628 32.9771 35.7454C32.9916 35.7454 33.0012 35.7608 33.0167 35.7657C33.0322 35.7705 33.038 35.7657 33.0496 35.7657C33.4498 35.8875 33.8529 35.9957 34.2579 36.0827C35.0893 36.2654 35.9361 36.3602 36.7867 36.3669C38.1859 36.4683 39.5696 36.0219 40.6457 35.1219C40.7675 35.0008 40.8546 34.8492 40.8979 34.683L42.4446 28.797C42.7965 28.7177 43.1194 28.5408 43.3755 28.2875L44.0589 27.6031C45.0844 26.5771 45.7536 25.249 45.9679 23.8143C46.1823 22.3796 45.9306 20.914 45.2499 19.633L56.1732 9.70047C57.014 8.93628 57.6013 7.93345 57.8565 6.82626C58.1116 5.71907 58.0224 4.56036 57.6008 3.50527C57.1791 2.45019 56.4453 1.54909 55.4974 0.922626C54.5495 0.296164 53.4328 -0.0257571 52.2969 -3.53078e-05C51.5421 0.0152708 50.7985 0.185018 50.1119 0.498739C49.4253 0.81246 48.8102 1.26351 48.3046 1.82406L38.3672 12.7503C37.0863 12.068 35.6201 11.815 34.1846 12.0286C32.7491 12.2421 31.4201 12.9108 30.3932 13.9364ZM39.1038 33.9048C38.404 34.3988 36.8341 34.6598 34.663 34.1948C34.6021 34.1813 34.5247 34.161 34.459 34.1455L35.4256 30.594C35.459 30.4715 35.4678 30.3436 35.4517 30.2177C35.4357 30.0918 35.3949 29.9702 35.3319 29.8601C35.2688 29.7499 35.1847 29.6532 35.0842 29.5755C34.9838 29.4979 34.8691 29.4407 34.7466 29.4074C34.6241 29.3741 34.4962 29.3652 34.3703 29.3813C34.2443 29.3974 34.1228 29.4381 34.0126 29.5012C33.9024 29.5643 33.8058 29.6484 33.7281 29.7488C33.6504 29.8493 33.5933 29.964 33.56 30.0865L32.6107 33.5665C31.0596 32.9584 29.6257 32.0858 28.3729 30.9874L31.616 27.7443C31.7921 27.562 31.8895 27.3178 31.8873 27.0643C31.8851 26.8109 31.7835 26.5684 31.6042 26.3892C31.425 26.2099 31.1826 26.1083 30.9291 26.1061C30.6756 26.1039 30.4315 26.2013 30.2492 26.3774L27.006 29.6206C25.9077 28.3677 25.035 26.9339 24.4269 25.3827L27.9118 24.4334C28.0343 24.4001 28.149 24.343 28.2494 24.2653C28.3498 24.1877 28.434 24.091 28.497 23.9808C28.5601 23.8706 28.6008 23.7491 28.6169 23.6231C28.633 23.4972 28.6242 23.3694 28.5908 23.2468C28.5575 23.1243 28.5004 23.0096 28.4227 22.9092C28.3451 22.8088 28.2484 22.7246 28.1382 22.6616C28.028 22.5985 27.9065 22.5578 27.7805 22.5417C27.6546 22.5256 27.5268 22.5344 27.4043 22.5678L23.8527 23.5344C23.8372 23.4687 23.817 23.3914 23.8034 23.3305C23.3385 21.1584 23.6004 19.5895 24.0934 18.8896L29.7581 17.4L40.6002 28.2421L39.1038 33.9048ZM42.6959 26.2401L42.0135 26.9245L31.0756 15.9877L31.76 15.3042C32.6665 14.3978 33.8958 13.8886 35.1777 13.8886C36.4596 13.8886 37.6889 14.3978 38.5954 15.3042L42.6959 19.4048C43.6024 20.3113 44.1116 21.5406 44.1116 22.8225C44.1116 24.1043 43.6024 25.3337 42.6959 26.2401ZM49.7294 3.1252C50.0612 2.76108 50.4633 2.46804 50.9115 2.26379C51.3598 2.05954 51.8448 1.94833 52.3372 1.93688C52.8297 1.92543 53.3193 2.01398 53.7766 2.19718C54.2338 2.38038 54.6491 2.65442 54.9975 3.00273C55.3458 3.35103 55.6198 3.76637 55.803 4.22361C55.9862 4.68085 56.0748 5.1705 56.0633 5.66295C56.0519 6.15539 55.9406 6.6404 55.7364 7.08864C55.5321 7.53687 55.2391 7.93902 54.875 8.27077L44.0957 18.0699L39.9303 13.9045L49.7294 3.1252ZM43.5002 37.2166C43.5002 38.1139 43.8567 38.9745 44.4912 39.609C45.1257 40.2435 45.9862 40.6 46.8836 40.6C47.7809 40.6 48.6414 40.2435 49.2759 39.609C49.9104 38.9745 50.2669 38.1139 50.2669 37.2166C50.2669 36.3193 49.9104 35.4588 49.2759 34.8243C48.6414 34.1898 47.7809 33.8333 46.8836 33.8333C45.9862 33.8333 45.1257 34.1898 44.4912 34.8243C43.8567 35.4588 43.5002 36.3193 43.5002 37.2166ZM48.3335 37.2166C48.3335 37.4071 48.296 37.5956 48.2232 37.7715C48.1503 37.9474 48.0435 38.1073 47.9089 38.2419C47.7742 38.3766 47.6144 38.4834 47.4384 38.5563C47.2625 38.6291 47.074 38.6666 46.8836 38.6666C46.6931 38.6666 46.5046 38.6291 46.3287 38.5563C46.1527 38.4834 45.9929 38.3766 45.8582 38.2419C45.7236 38.1073 45.6168 37.9474 45.5439 37.7715C45.4711 37.5956 45.4336 37.4071 45.4336 37.2166C45.4336 36.8321 45.5863 36.4633 45.8582 36.1913C46.1302 35.9194 46.499 35.7666 46.8836 35.7666C47.2681 35.7666 47.6369 35.9194 47.9089 36.1913C48.1808 36.4633 48.3335 36.8321 48.3335 37.2166ZM30.4502 7.7333C31.3475 7.7333 32.2081 7.37684 32.8426 6.74234C33.4771 6.10784 33.8336 5.24728 33.8336 4.34996C33.8336 3.45265 33.4771 2.59208 32.8426 1.95759C32.2081 1.32309 31.3475 0.966631 30.4502 0.966631C29.5529 0.966631 28.6923 1.32309 28.0578 1.95759C27.4233 2.59208 27.0669 3.45265 27.0669 4.34996C27.0669 5.24728 27.4233 6.10784 28.0578 6.74234C28.6923 7.37684 29.5529 7.7333 30.4502 7.7333ZM30.4502 2.89996C30.8348 2.89996 31.2036 3.05273 31.4755 3.32466C31.7475 3.59659 31.9002 3.9654 31.9002 4.34996C31.9002 4.73453 31.7475 5.10334 31.4755 5.37527C31.2036 5.6472 30.8348 5.79996 30.4502 5.79996C30.0657 5.79996 29.6968 5.6472 29.4249 5.37527C29.153 5.10334 29.0002 4.73453 29.0002 4.34996C29.0002 3.9654 29.153 3.59659 29.4249 3.32466C29.6968 3.05273 30.0657 2.89996 30.4502 2.89996ZM52.2002 23.2C51.9438 23.2 51.698 23.3018 51.5167 23.4831C51.3354 23.6644 51.2336 23.9103 51.2336 24.1666V26.1C51.2336 26.3563 51.3354 26.6022 51.5167 26.7835C51.698 26.9648 51.9438 27.0666 52.2002 27.0666C52.4566 27.0666 52.7025 26.9648 52.8838 26.7835C53.065 26.6022 53.1669 26.3563 53.1669 26.1V24.1666C53.1669 23.9103 53.065 23.6644 52.8838 23.4831C52.7025 23.3018 52.4566 23.2 52.2002 23.2ZM51.2336 29.9666V31.9C51.2336 32.1563 51.3354 32.4022 51.5167 32.5835C51.698 32.7648 51.9438 32.8666 52.2002 32.8666C52.4566 32.8666 52.7025 32.7648 52.8838 32.5835C53.065 32.4022 53.1669 32.1563 53.1669 31.9V29.9666C53.1669 29.7103 53.065 29.4644 52.8838 29.2831C52.7025 29.1018 52.4566 29 52.2002 29C51.9438 29 51.698 29.1018 51.5167 29.2831C51.3354 29.4644 51.2336 29.7103 51.2336 29.9666ZM56.0669 27.0666H54.1336C53.8772 27.0666 53.6313 27.1685 53.45 27.3498C53.2687 27.531 53.1669 27.7769 53.1669 28.0333C53.1669 28.2897 53.2687 28.5356 53.45 28.7168C53.6313 28.8981 53.8772 29 54.1336 29H56.0669C56.3233 29 56.5691 28.8981 56.7504 28.7168C56.9317 28.5356 57.0336 28.2897 57.0336 28.0333C57.0336 27.7769 56.9317 27.531 56.7504 27.3498C56.5691 27.1685 56.3233 27.0666 56.0669 27.0666ZM51.2336 28.0333C51.2336 27.7769 51.1317 27.531 50.9504 27.3498C50.7691 27.1685 50.5233 27.0666 50.2669 27.0666H48.3335C48.0772 27.0666 47.8313 27.1685 47.65 27.3498C47.4687 27.531 47.3669 27.7769 47.3669 28.0333C47.3669 28.2897 47.4687 28.5356 47.65 28.7168C47.8313 28.8981 48.0772 29 48.3335 29H50.2669C50.5233 29 50.7691 28.8981 50.9504 28.7168C51.1317 28.5356 51.2336 28.2897 51.2336 28.0333ZM12.8501 8.41673C13.0324 8.59282 13.2766 8.69025 13.5301 8.68805C13.7835 8.68585 14.026 8.58418 14.2052 8.40496C14.3844 8.22573 14.4861 7.98328 14.4883 7.72982C14.4905 7.47636 14.3931 7.23218 14.217 7.04986L12.767 5.59986C12.5847 5.42378 12.3405 5.32634 12.087 5.32855C11.8336 5.33075 11.5911 5.43241 11.4119 5.61164C11.2327 5.79087 11.131 6.03332 11.1288 6.28678C11.1266 6.54023 11.224 6.78442 11.4001 6.96673L12.8501 8.41673ZM8.50012 4.06673C8.68243 4.24282 8.92661 4.34025 9.18007 4.33805C9.43353 4.33585 9.67598 4.23418 9.85521 4.05496C10.0344 3.87573 10.1361 3.63328 10.1383 3.37982C10.1405 3.12636 10.0431 2.88218 9.86698 2.69986L8.41698 1.24986C8.23467 1.07378 7.99049 0.976344 7.73703 0.978547C7.48357 0.980749 7.24112 1.08241 7.06189 1.26164C6.88266 1.44087 6.781 1.68332 6.7788 1.93678C6.7766 2.19023 6.87403 2.43442 7.05012 2.61673L8.50012 4.06673ZM7.73355 8.69997C7.98991 8.69991 8.23574 8.59803 8.41698 8.41673L9.86698 6.96673C9.95931 6.87756 10.033 6.77089 10.0836 6.65296C10.1343 6.53502 10.1609 6.40817 10.1621 6.27982C10.1632 6.15147 10.1387 6.02418 10.0901 5.90538C10.0415 5.78658 9.96973 5.67865 9.87897 5.58788C9.7882 5.49712 9.68027 5.42534 9.56147 5.37674C9.44267 5.32813 9.31538 5.30367 9.18703 5.30479C9.05868 5.3059 8.93183 5.33257 8.81389 5.38323C8.69596 5.4339 8.58929 5.50754 8.50012 5.59986L7.05012 7.04986C6.91497 7.18505 6.82294 7.35728 6.78565 7.54477C6.74837 7.73226 6.76751 7.92659 6.84066 8.1032C6.91381 8.27981 7.03768 8.43077 7.19661 8.53699C7.35554 8.64321 7.54239 8.69992 7.73355 8.69997ZM12.0836 4.34996C12.3399 4.34991 12.5857 4.24803 12.767 4.06673L14.217 2.61673C14.3931 2.43442 14.4905 2.19023 14.4883 1.93678C14.4861 1.68332 14.3844 1.44087 14.2052 1.26164C14.026 1.08241 13.7835 0.980749 13.5301 0.978547C13.2766 0.976344 13.0324 1.07378 12.8501 1.24986L11.4001 2.69986C11.265 2.83505 11.1729 3.00728 11.1357 3.19477C11.0984 3.38226 11.1175 3.57659 11.1907 3.7532C11.2638 3.92981 11.3877 4.08076 11.5466 4.18699C11.7055 4.29321 11.8924 4.34992 12.0836 4.34996Z" fill="black"/>
</g>
<defs>
<clipPath id="clip0_2001_4039">
<rect width="58" height="58" fill="white"/>
</clipPath>
</defs>
</svg>
