<svg width="58" height="58" viewBox="0 0 58 58" fill="none" xmlns="http://www.w3.org/2000/svg">
<g clip-path="url(#clip0_2001_2102)">
<path d="M22.2109 29.9007C22.3574 29.9007 22.5014 29.8628 22.629 29.7907C22.7565 29.7187 22.8632 29.6148 22.9387 29.4893L24.4716 26.9433L26.5027 30.1709C26.5808 30.2951 26.6897 30.3969 26.8188 30.4665C26.9479 30.5361 27.0929 30.5711 27.2395 30.568C27.3862 30.565 27.5296 30.524 27.6557 30.449C27.7818 30.3741 27.8863 30.2678 27.9591 30.1404L31.229 24.427L35.6207 32.4303C35.6927 32.5615 35.7981 32.6714 35.9263 32.7488C36.0544 32.8262 36.2008 32.8684 36.3505 32.8711L36.3655 32.8712C36.5127 32.8711 36.6573 32.8329 36.7853 32.7602C36.9132 32.6875 37.0201 32.5828 37.0954 32.4563L39.8315 27.8632H46.4292C46.6545 27.8632 46.8706 27.7737 47.03 27.6144C47.1893 27.4551 47.2788 27.239 47.2788 27.0136C47.2788 26.7883 47.1893 26.5722 47.03 26.4129C46.8706 26.2535 46.6545 26.164 46.4292 26.164H39.3487C39.2015 26.164 39.0568 26.2022 38.9289 26.275C38.8009 26.3477 38.6941 26.4524 38.6188 26.5789L36.3958 30.3106L31.9895 22.2805C31.9168 22.1482 31.8102 22.0375 31.6807 21.9601C31.5511 21.8826 31.4032 21.841 31.2522 21.8396H31.2445C31.0949 21.8396 30.9478 21.8792 30.8184 21.9542C30.6889 22.0293 30.5815 22.1372 30.5072 22.2671L27.1871 28.0683L25.1746 24.8702C25.0981 24.7487 24.992 24.6485 24.8662 24.579C24.7404 24.5096 24.5991 24.4732 24.4555 24.4732H24.4471C24.302 24.4746 24.1597 24.5131 24.0338 24.5851C23.9078 24.6571 23.8024 24.7602 23.7276 24.8845L21.7307 28.2015H16.9021C16.6768 28.2015 16.4607 28.291 16.3013 28.4503C16.142 28.6097 16.0525 28.8258 16.0525 29.0511C16.0525 29.2764 16.142 29.4925 16.3013 29.6519C16.4607 29.8112 16.6768 29.9007 16.9021 29.9007H22.2109ZM47.9288 6.32031C47.7035 6.32031 47.4874 6.40982 47.3281 6.56916C47.1687 6.72849 47.0792 6.94459 47.0792 7.16992V9.67616H44.5732C44.3479 9.67616 44.1318 9.76567 43.9724 9.925C43.8131 10.0843 43.7236 10.3004 43.7236 10.5258C43.7236 10.7511 43.8131 10.9672 43.9724 11.1265C44.1318 11.2859 44.3479 11.3754 44.5732 11.3754H47.0792V13.8817C47.0792 14.1071 47.1687 14.3232 47.3281 14.4825C47.4874 14.6418 47.7035 14.7313 47.9288 14.7313C48.1541 14.7313 48.3702 14.6418 48.5296 14.4825C48.6889 14.3232 48.7784 14.1071 48.7784 13.8817V11.3754H51.2844C51.5098 11.3754 51.7259 11.2859 51.8852 11.1265C52.0445 10.9672 52.134 10.7511 52.134 10.5258C52.134 10.3004 52.0445 10.0843 51.8852 9.925C51.7259 9.76567 51.5098 9.67616 51.2844 9.67616H48.7784V7.16992C48.7784 6.94459 48.6889 6.72849 48.5296 6.56916C48.3702 6.40982 48.1541 6.32031 47.9288 6.32031Z" fill="black"/>
<path d="M50.9267 35.4297C55.0659 31.0046 56.2522 24.3132 53.9769 18.5766C56.4185 16.7365 58 13.8126 58 10.5258C58 4.97221 53.4821 0.454102 47.9288 0.454102C45.6477 0.454102 43.4139 1.23699 41.6388 2.65855C41.4649 2.80004 41.3539 3.00453 41.3302 3.22746C41.3064 3.45039 41.3717 3.67369 41.5118 3.84869C41.6519 4.02369 41.8556 4.1362 42.0783 4.16171C42.301 4.18721 42.5248 4.12364 42.7009 3.98485C44.1971 2.78656 46.0049 2.15332 47.9287 2.15332C52.5449 2.15332 56.3007 5.90927 56.3007 10.5258C56.3007 15.1443 52.5451 18.9016 47.9287 18.9016C43.6305 18.9016 40.0799 15.6461 39.6084 11.4716C39.6075 11.462 39.606 11.4522 39.6047 11.4425C39.571 11.1381 39.5539 10.8321 39.5535 10.5258C39.5535 9.21448 39.8482 7.96046 40.4291 6.79842C40.5298 6.59686 40.5464 6.36355 40.4751 6.14978C40.4039 5.93601 40.2506 5.75929 40.0491 5.65847C39.8476 5.55773 39.6142 5.54117 39.4005 5.61242C39.1867 5.68367 39.01 5.8369 38.9092 6.03841C38.2092 7.43846 37.8543 8.94827 37.8543 10.5257C37.8543 10.6684 37.858 10.8103 37.8639 10.9516C35.7186 11.7184 33.7161 12.9796 32.038 14.63L31.0989 15.5532L31.0864 15.5408L30.1632 14.6311C27.1759 11.6858 23.2655 10.0398 19.4332 10.1191C16.2443 10.1848 13.4225 11.4343 11.2735 13.7317C11.1973 13.8133 11.1378 13.9091 11.0986 14.0137C11.0594 14.1182 11.0412 14.2295 11.045 14.3411C11.0487 14.4527 11.0745 14.5625 11.1207 14.6641C11.1669 14.7658 11.2327 14.8574 11.3143 14.9336C11.6575 15.2531 12.1945 15.2361 12.5151 14.8928C14.3434 12.9376 16.7473 11.8739 19.4683 11.8184C22.8441 11.7493 26.3071 13.2163 28.9703 15.841L29.8947 16.7518C30.341 17.1913 30.7216 17.4099 31.1011 17.4099C31.4772 17.4099 31.8522 17.1947 32.2906 16.7642L33.2297 15.841C34.6408 14.454 36.3053 13.3739 38.0872 12.6812C39.0769 17.2043 43.1133 20.6007 47.9286 20.6007C49.5772 20.6007 51.1345 20.2024 52.5094 19.4969C54.392 24.5607 53.3111 30.3862 49.6917 34.2615L37.495 46.7465L36.4856 46.9436C36.2409 46.9912 36.0246 47.0342 35.8275 47.0739C34.5474 47.3333 34.2415 47.3945 32.7428 47.1634L25.4758 45.8346C24.4857 45.4925 24.5854 44.704 24.6409 44.4673C24.7282 44.0991 25.0703 43.5044 25.8055 43.6154L25.8259 43.6188C26.1532 43.6607 26.5044 43.706 26.8714 43.7525C28.2478 43.9303 29.8066 44.1308 31.1909 44.2724C34.0229 44.559 35.6247 43.0728 35.9577 41.471C36.2964 39.8386 35.3664 37.6681 32.523 36.7607C32.4891 36.7505 32.4539 36.7415 32.4177 36.7347L27.738 35.876C25.1983 35.4104 23.2227 35.7695 20.232 36.3133C19.4413 36.4571 18.5441 36.6191 17.545 36.7834L15.327 37.1482L14.6439 36.4492L12.5085 34.2629C8.51762 29.9843 7.63289 23.2825 10.3607 17.9617C10.5748 17.5448 10.4094 17.0328 9.99254 16.8187C9.57453 16.6046 9.0625 16.7689 8.8484 17.1869C5.79887 23.1364 6.79574 30.6379 11.2737 35.4297C11.2783 35.4342 11.2828 35.4388 11.2862 35.4433L13.28 37.4846L9.56683 38.095V37.998C9.56683 37.342 8.98807 36.8083 8.27667 36.8083H1.28688C0.577281 36.8083 0 37.342 0 37.998V52.9472C0 53.6032 0.577281 54.1368 1.28688 54.1368H8.27678C8.98819 54.1368 9.56694 53.6032 9.56694 52.9472V52.8442L17.2074 54.9231L24.2603 56.8398C25.87 57.3394 27.1671 57.5456 28.3509 57.5456C30.2246 57.5456 31.8162 57.0313 33.9187 56.3516C34.1056 56.2916 34.297 56.2293 34.4941 56.1658L48.3926 51.7093C50.0035 51.1928 51.1499 50.0328 51.458 48.6066C51.697 47.5009 51.364 46.4089 50.5665 45.685C49.9208 45.0994 48.4028 44.2588 45.4768 45.1843L40.4312 46.171L50.9143 35.4433C50.9188 35.4388 50.9222 35.4342 50.9267 35.4297ZM1.69922 52.4376V38.5074H7.86761V39.0912L7.86738 39.0965V51.7319L7.86761 51.7348V52.4376H1.69922ZM45.9469 46.8179C47.5147 46.3149 48.7823 46.3602 49.4257 46.9436C49.7724 47.2585 49.9083 47.7343 49.7973 48.2463C49.6183 49.0722 48.899 49.762 47.8738 50.0905L33.9742 54.5482C33.7759 54.6116 33.5834 54.6739 33.3953 54.7351C30.0705 55.809 28.4019 56.3493 24.7497 55.2131C24.7406 55.2097 24.7304 55.2075 24.7202 55.2041L9.56683 51.083V39.8171L17.8203 38.4611C18.833 38.2946 19.7381 38.1292 20.5368 37.9842C23.4424 37.4563 25.1971 37.138 27.4311 37.548L32.0563 38.3965C33.8598 38.989 34.4817 40.2226 34.2936 41.1255C34.0773 42.1688 32.9263 42.7409 31.363 42.5823C30.0014 42.4429 28.454 42.2436 27.0889 42.068C26.7242 42.0204 26.3741 41.9751 26.049 41.9343C24.4246 41.6941 23.2793 42.8304 22.987 44.0798C22.9247 44.3461 22.8998 44.6293 22.9179 44.9147C22.9802 45.9479 23.5976 47.0195 25.0068 47.4692C25.042 47.4805 25.5109 47.5678 25.5109 47.5678L32.4494 48.8365L32.4721 48.8399C33.9039 49.0631 34.5236 49.0438 35.4015 48.8886C35.6315 48.8479 36.5695 48.6575 36.8107 48.6111L38.34 48.312C38.34 48.312 45.9152 46.828 45.9469 46.8179Z" fill="black"/>
</g>
<defs>
<clipPath id="clip0_2001_2102">
<rect width="58" height="58" fill="white"/>
</clipPath>
</defs>
</svg>
