<svg width="58" height="58" viewBox="0 0 58 58" fill="none" xmlns="http://www.w3.org/2000/svg">
<g clip-path="url(#clip0_2001_7093)">
<path d="M48.3333 0H4.83333C3.55145 0 2.32208 0.509225 1.41565 1.41565C0.509225 2.32208 0 3.55145 0 4.83333L0 47.125C0 47.4455 0.127306 47.7528 0.353913 47.9794C0.580519 48.206 0.887863 48.3333 1.20833 48.3333H21.75C22.0705 48.3333 22.3778 48.206 22.6044 47.9794C22.831 47.7528 22.9583 47.4455 22.9583 47.125C22.9583 46.8045 22.831 46.4972 22.6044 46.2706C22.3778 46.044 22.0705 45.9167 21.75 45.9167H2.41667V9.66667H50.75V27.7917C50.75 28.1121 50.8773 28.4195 51.1039 28.6461C51.3305 28.8727 51.6379 29 51.9583 29C52.2788 29 52.5862 28.8727 52.8128 28.6461C53.0394 28.4195 53.1667 28.1121 53.1667 27.7917V4.83333C53.1667 3.55145 52.6574 2.32208 51.751 1.41565C50.8446 0.509225 49.6152 0 48.3333 0ZM2.41667 7.25V4.83333C2.41667 4.19239 2.67128 3.5777 3.12449 3.12449C3.5777 2.67128 4.19239 2.41667 4.83333 2.41667H48.3333C48.9743 2.41667 49.589 2.67128 50.0422 3.12449C50.4954 3.5777 50.75 4.19239 50.75 4.83333V7.25H2.41667Z" fill="black"/>
<path d="M6.04159 3.625C5.72112 3.625 5.41377 3.75231 5.18716 3.97891C4.96056 4.20552 4.83325 4.51286 4.83325 4.83333C4.83325 5.1538 4.96056 5.46115 5.18716 5.68775C5.41377 5.91436 5.72112 6.04167 6.04159 6.04167C6.36206 6.04167 6.6694 5.91436 6.89601 5.68775C7.12261 5.46115 7.24992 5.1538 7.24992 4.83333C7.24992 4.51286 7.12261 4.20552 6.89601 3.97891C6.6694 3.75231 6.36206 3.625 6.04159 3.625ZM10.8749 3.625C10.5544 3.625 10.2471 3.75231 10.0205 3.97891C9.79389 4.20552 9.66659 4.51286 9.66659 4.83333C9.66659 5.1538 9.79389 5.46115 10.0205 5.68775C10.2471 5.91436 10.5544 6.04167 10.8749 6.04167C11.1954 6.04167 11.5027 5.91436 11.7293 5.68775C11.9559 5.46115 12.0833 5.1538 12.0833 4.83333C12.0833 4.51286 11.9559 4.20552 11.7293 3.97891C11.5027 3.75231 11.1954 3.625 10.8749 3.625ZM15.7083 3.625C15.3878 3.625 15.0804 3.75231 14.8538 3.97891C14.6272 4.20552 14.4999 4.51286 14.4999 4.83333C14.4999 5.1538 14.6272 5.46115 14.8538 5.68775C15.0804 5.91436 15.3878 6.04167 15.7083 6.04167C16.0287 6.04167 16.3361 5.91436 16.5627 5.68775C16.7893 5.46115 16.9166 5.1538 16.9166 4.83333C16.9166 4.51286 16.7893 4.20552 16.5627 3.97891C16.3361 3.75231 16.0287 3.625 15.7083 3.625ZM52.6349 31.6221C51.8616 31.1025 52.3208 31.175 39.6453 36.25H30.2083C28.7106 36.2659 27.2722 36.8375 26.1721 37.8539C25.0721 38.8703 24.3888 40.2592 24.2548 41.7509C24.1208 43.2427 24.5457 44.731 25.4471 45.9272C26.3484 47.1234 27.662 47.9421 29.1328 48.2246L30.2203 56.9367C30.2557 57.2293 30.3968 57.499 30.6172 57.6948C30.8375 57.8906 31.1218 57.9992 31.4166 58H36.2499C36.4216 58.0012 36.5915 57.9659 36.7484 57.8963C36.9054 57.8267 37.0457 57.7245 37.16 57.5965C37.2743 57.4684 37.3601 57.3175 37.4115 57.1537C37.4629 56.9899 37.4789 56.8171 37.4583 56.6467L36.407 48.3333H39.6453C52.6591 53.5413 51.6199 53.1667 51.9583 53.1667C52.2787 53.1667 52.5861 53.0394 52.8127 52.8128C53.0393 52.5862 53.1666 52.2788 53.1666 51.9583C53.1666 31.0783 53.3962 32.1417 52.6349 31.6221ZM38.6666 45.9167H31.4166V38.6667H38.6666V45.9167ZM28.9999 38.8721V45.7113C28.2918 45.4622 27.6786 44.9994 27.2447 44.3869C26.8109 43.7744 26.5779 43.0423 26.5779 42.2917C26.5779 41.5411 26.8109 40.809 27.2447 40.1964C27.6786 39.5839 28.2918 39.1212 28.9999 38.8721ZM34.8845 55.5833H32.4678L31.5616 48.3333H33.9783L34.8845 55.5833ZM50.7499 50.17L41.0833 46.3033V38.28L50.7499 34.4133V50.17ZM56.7916 41.0833H55.5833C55.2628 41.0833 54.9554 41.2106 54.7288 41.4372C54.5022 41.6639 54.3749 41.9712 54.3749 42.2917C54.3749 42.6121 54.5022 42.9195 54.7288 43.1461C54.9554 43.3727 55.2628 43.5 55.5833 43.5H56.7916C57.1121 43.5 57.4194 43.3727 57.646 43.1461C57.8726 42.9195 57.9999 42.6121 57.9999 42.2917C57.9999 41.9712 57.8726 41.6639 57.646 41.4372C57.4194 41.2106 57.1121 41.0833 56.7916 41.0833ZM55.5833 36.25C56.2237 36.25 56.3928 35.9358 57.6495 34.6912C57.7622 34.5786 57.8515 34.4448 57.9125 34.2976C57.9735 34.1504 58.0049 33.9927 58.0049 33.8333C58.0049 33.674 57.9735 33.5162 57.9125 33.369C57.8515 33.2218 57.7622 33.0881 57.6495 32.9754C57.5368 32.8628 57.4031 32.7734 57.2559 32.7124C57.1087 32.6514 56.9509 32.6201 56.7916 32.6201C56.6323 32.6201 56.4745 32.6514 56.3273 32.7124C56.1801 32.7734 56.0463 32.8628 55.9337 32.9754L54.7253 34.1838C54.5549 34.3528 54.4387 34.5687 54.3915 34.804C54.3443 35.0393 54.3682 35.2834 54.4603 35.505C54.5523 35.7267 54.7083 35.9159 54.9083 36.0486C55.1083 36.1813 55.3433 36.2514 55.5833 36.25ZM56.4412 48.6838C56.2136 48.4562 55.905 48.3284 55.5833 48.3284C55.2615 48.3284 54.9529 48.4562 54.7253 48.6838C54.4978 48.9113 54.37 49.2199 54.37 49.5417C54.37 49.8634 54.4978 50.1721 54.7253 50.3996C56.0062 51.6804 56.1633 51.9583 56.7916 51.9583C57.0316 51.9597 57.2666 51.8896 57.4666 51.7569C57.6666 51.6243 57.8225 51.435 57.9146 51.2134C58.0066 50.9917 58.0305 50.7477 57.9833 50.5123C57.9361 50.277 57.8199 50.0611 57.6495 49.8921L56.4412 48.6838ZM35.0416 27.7917C35.0416 26.8371 35.2833 27.2479 22.3662 19.5025C22.1827 19.3937 21.9737 19.3355 21.7605 19.3336C21.5472 19.3317 21.3372 19.3863 21.1519 19.4919C20.9666 19.5974 20.8125 19.7502 20.7053 19.9345C20.5981 20.1189 20.5416 20.3284 20.5416 20.5417C20.5416 36.0688 20.2999 35.6096 21.1578 36.0929C21.3415 36.199 21.5499 36.2548 21.762 36.2548C21.9741 36.2548 22.1825 36.199 22.3662 36.0929C35.2349 28.3596 35.0416 28.7583 35.0416 27.7917ZM22.9583 32.9029V22.6804L31.4891 27.7917L22.9583 32.9029Z" fill="black"/>
</g>
<defs>
<clipPath id="clip0_2001_7093">
<rect width="58" height="58" fill="white"/>
</clipPath>
</defs>
</svg>
