<svg width="58" height="58" viewBox="0 0 58 58" fill="none" xmlns="http://www.w3.org/2000/svg">
<path d="M24.8695 12.6545C23.1119 11.0726 20.7392 10.3696 18.3665 10.6333C14.4119 11.1605 11.3362 14.3242 11.3362 18.1029V18.2787C11.4241 19.7726 12.215 24.606 17.9271 25.5726C18.4544 25.6605 18.8938 25.7484 19.421 25.7484C21.3544 25.7484 23.1998 25.0454 24.6938 23.8151C26.4513 22.409 27.418 20.2999 27.418 18.1908C27.418 15.9939 26.5392 14.0605 24.8695 12.6545ZM23.5513 22.409C22.0574 23.6393 20.1241 24.1666 18.1907 23.8151C13.8847 23.112 13.1816 19.5969 13.0938 18.1029V18.0151C13.0938 15.1151 15.4665 12.6545 18.5422 12.3029C20.3877 12.0393 22.321 12.6545 23.7271 13.8848C24.9574 15.0272 25.6604 16.5211 25.6604 18.1029C25.6604 19.7726 24.8695 21.3545 23.5513 22.409Z" fill="black"/>
<path d="M30.6696 31.9001L34.0969 28.6486C34.4484 28.385 34.4484 27.8577 34.1847 27.5062L31.7241 24.0789C32.0757 23.3759 32.4272 22.6728 32.6029 21.9698L36.9969 21.1789C37.4363 21.091 37.6999 20.7395 37.6999 20.3001V15.7304C37.6999 15.291 37.3484 14.9395 36.9969 14.8516L32.515 14.0607C32.2514 13.3577 31.9878 12.6547 31.5484 11.9516L34.009 8.52436C34.2726 8.17285 34.1847 7.64557 33.9211 7.38194C33.8332 7.29406 30.6696 4.39406 30.406 4.2183C30.1423 4.04254 29.8787 3.95466 29.5272 4.04254C29.4393 4.04254 29.2635 4.13042 29.1757 4.2183L25.8363 6.32739C25.7484 6.41527 25.6605 6.41527 25.5726 6.50315C24.8696 6.15163 24.1666 5.888 23.4635 5.71224L22.5847 1.58194C22.4969 1.14254 22.1454 0.878906 21.706 0.878906H16.8726C16.4332 0.878906 16.0817 1.23042 15.9938 1.66982L15.115 5.71224C14.3241 5.97588 13.5332 6.23951 12.8302 6.59103C10.8969 5.36072 9.84232 4.74557 9.22717 4.39406L9.05141 4.2183V4.30618C8.52414 4.04254 8.43626 4.13042 8.17263 4.2183C8.17263 4.30618 7.99687 4.39406 7.99687 4.48194L4.65747 7.55769C4.30596 7.90921 4.30596 8.43648 4.65747 8.788C4.92111 9.13951 5.71202 10.1941 6.32717 11.0728L7.0302 12.2153C6.67869 12.9183 6.32717 13.6213 6.15141 14.3244L1.75747 15.1153C1.31808 15.2031 1.05444 15.5547 1.05444 15.9941V20.5638C1.05444 20.9153 1.2302 21.1789 1.49384 21.3547C1.66959 21.4425 1.75747 21.5304 1.93323 21.4425L6.23929 22.1456C6.41505 22.6728 6.67869 23.3759 7.20596 24.2547C5.97566 26.0122 5.27262 26.9789 4.92111 27.5941L4.74535 27.7698C4.48172 28.2971 4.48172 28.385 4.65747 28.6486C4.74535 28.8244 4.83323 28.9122 5.00899 29.0001C5.62414 29.5274 8.17263 31.9001 8.34838 32.0759C8.61202 32.2516 8.87566 32.3395 9.22717 32.2516C9.31505 32.2516 9.49081 32.1638 9.57869 32.0759L13.1817 29.7031C13.8847 30.0547 14.5878 30.3183 15.2908 30.4941L16.1696 34.6244C16.2575 35.0638 16.609 35.3274 17.0484 35.3274H21.8817C22.3211 35.3274 22.6726 35.0638 22.7605 34.6244L23.6393 30.4941C24.4302 30.2304 25.2211 29.9668 25.9241 29.6153L29.7029 31.988C29.8787 32.2516 30.3181 32.1638 30.6696 31.9001ZM25.4847 27.8577C24.606 28.385 23.6393 28.7365 22.5847 29.0001C22.2332 29.088 21.9696 29.3516 21.9696 29.7031L21.0908 33.5698H17.6635L16.8726 29.6153C16.7847 29.2638 16.5211 29.0001 16.2575 28.9122C15.2908 28.6486 14.3241 28.2971 13.5332 27.8577C13.2696 27.6819 12.9181 27.6819 12.6544 27.8577L9.05141 30.1425C8.52414 29.8789 7.73323 29.1759 6.59081 28.1213C7.38172 26.9789 8.87566 24.8698 8.87566 24.7819C9.05141 24.5183 9.05141 24.0789 8.87566 23.8153C8.2605 22.7607 7.99687 22.1456 7.73323 21.4425L7.64535 21.091C7.55747 20.8274 7.29384 20.5638 6.94232 20.5638L2.72414 19.8607V16.785L6.94232 15.9941C7.29384 15.9062 7.55747 15.6425 7.64535 15.3789C7.82111 14.7638 8.17263 13.7971 8.6999 12.9183C9.05141 12.6547 9.13929 12.391 8.6999 11.7759C8.6999 11.688 8.61202 11.688 8.61202 11.6001C8.43626 11.2486 8.08475 10.8971 7.73323 10.2819L6.41505 8.3486C6.85444 7.90921 7.55747 7.29406 8.52414 6.32739L8.78778 6.15163C9.9302 6.85466 12.3029 8.3486 12.3908 8.43648C12.6544 8.61224 13.006 8.61224 13.2696 8.43648C14.1484 7.99709 15.115 7.55769 16.1696 7.29406C16.5211 7.20618 16.7847 6.94254 16.7847 6.59103L17.6635 2.63648H21.0908L21.8817 6.59103C21.9696 6.94254 22.2332 7.20618 22.4969 7.29406C23.4635 7.55769 24.2544 7.82133 25.1332 8.26072C25.3969 8.43648 25.8363 8.52436 26.0999 8.26072L29.7029 5.97588C30.1423 6.41527 30.9332 7.1183 32.0757 8.17285L29.7029 11.5122C29.5272 11.7759 29.5272 12.2153 29.7029 12.4789C30.2302 13.3577 30.6696 14.2365 30.9332 15.1153C31.0211 15.4668 31.2847 15.6425 31.6363 15.7304L35.8544 16.4335V19.5092L31.6363 20.3001C31.2847 20.388 31.0211 20.5638 30.9332 20.9153C30.8454 21.9698 30.406 22.8486 29.8787 23.6395C29.7029 23.9031 29.7029 24.3425 29.8787 24.6062L32.2514 27.8577L29.8787 30.0547L26.3635 27.8577C26.0999 27.7698 25.7484 27.6819 25.4847 27.8577ZM49.4757 41.6547C48.8605 38.5789 46.0484 36.2941 42.9726 36.2941C39.2817 36.2941 36.2938 39.2819 36.2938 42.9728V43.0607C36.2938 45.0819 37.1726 46.8395 38.7544 48.1577C39.9847 49.1244 41.4787 49.6516 42.9726 49.6516C44.2029 49.6516 45.3454 49.3001 46.4878 48.685C48.8605 47.2789 50.0029 44.4668 49.4757 41.6547ZM45.5211 47.191C44.115 48.0698 41.8302 48.4213 39.8969 46.8395C38.7544 45.8728 38.1393 44.5547 38.1393 43.0607V42.9728C38.1393 40.2486 40.3363 38.0516 43.0605 38.0516C45.3454 38.0516 47.3666 39.7213 47.8938 41.9183C48.2453 44.5547 46.9272 46.3122 45.5211 47.191Z" fill="black"/>
<path d="M56.9452 41.0396C56.9452 40.6003 56.6816 40.2487 56.2422 40.1609L52.9907 39.5457C52.8149 39.0184 52.6392 38.4912 52.3755 38.0518L54.1331 35.3275C54.3967 34.976 54.3089 34.5366 54.0452 34.1851C52.7271 32.9548 52.024 32.1639 51.5846 31.8124C51.5846 31.7245 51.4967 31.6366 51.4089 31.6366C50.9695 31.2851 50.8816 31.2851 50.618 31.373C50.4422 31.373 50.3543 31.4609 50.2664 31.5487C49.8271 31.8124 48.5968 32.6912 47.8058 33.2184L47.718 33.3063C47.2786 33.0427 46.8392 32.8669 46.3119 32.779L45.6968 29.5275C45.6089 29.0881 45.2574 28.8245 44.818 28.8245H41.1271C40.6877 28.8245 40.3361 29.176 40.2483 29.6154L39.6331 32.779C39.1058 32.9548 38.5786 33.1305 38.1392 33.3942C37.3483 32.8669 35.5907 31.7245 35.4149 31.5487C34.9755 31.2851 34.4483 31.373 34.1846 31.7245L32.6907 33.3942L32.5149 33.5699L32.3392 33.7457L32.2513 33.8336L32.1634 33.9215L31.6361 34.4487C31.3725 34.7124 31.2846 35.2396 31.5483 35.5912C31.5483 35.679 32.7786 37.4366 33.3937 38.3154C33.1301 38.8427 32.9543 39.3699 32.7786 39.8972L29.6149 40.4245C29.1755 40.5124 28.9119 40.8639 28.9119 41.3033V44.9942C28.9998 45.5215 29.0877 45.6093 29.3513 45.7851C29.4392 45.873 29.6149 45.873 29.7907 45.873L32.8664 46.4002C33.0422 46.8396 33.218 47.279 33.4816 47.8942C33.0422 48.5093 32.3392 49.5639 31.9877 50.179L31.724 50.6184C31.4604 51.0578 31.5483 51.5851 31.9877 51.8487L34.5361 54.3093C34.7998 54.4851 35.0634 54.573 35.4149 54.573C35.5028 54.573 35.6786 54.4851 35.7664 54.3972L38.4028 52.5518C38.8422 52.7275 39.2816 52.9912 39.8089 53.079L40.424 56.3306C40.5119 56.7699 40.8634 57.0336 41.3028 57.0336H44.818C45.2574 57.0336 45.6089 56.7699 45.6968 56.3306L46.3119 53.079C46.8392 52.9033 47.3664 52.7275 47.8058 52.4639L50.5301 54.3093C50.8816 54.573 51.321 54.4851 51.6725 54.2215L54.221 51.5851C54.4846 51.3215 54.5725 50.7942 54.3089 50.4427L52.4634 47.7184C52.7271 47.1912 52.9028 46.7518 53.0786 46.1366L56.2422 45.5215C56.6816 45.4336 56.9452 45.0821 56.9452 44.6427V41.0396ZM52.1998 44.6427C51.8483 44.7306 51.5846 44.9942 51.4967 45.2578C51.321 46.0487 50.9695 46.7518 50.618 47.3669C50.4422 47.6306 50.4422 47.9821 50.618 48.3336L52.3755 50.8821L50.7937 52.4639L48.2452 50.7063C47.9816 50.5306 47.6301 50.5306 47.2786 50.7063C46.6634 51.0578 45.8725 51.4093 45.1695 51.5851C44.818 51.673 44.6422 51.9366 44.5543 52.2881L44.0271 55.3639H41.8301L41.2149 52.376C41.1271 52.0245 40.8634 51.7609 40.5998 51.673C39.8968 51.4972 39.1937 51.2336 38.5786 50.8821C38.3149 50.7063 37.9634 50.7063 37.6119 50.9699L35.0634 52.7275L33.4816 51.1457C34.0967 50.2669 35.1513 48.6851 35.1513 48.5972C35.3271 48.3336 35.3271 47.9821 35.1513 47.6306C34.7119 46.8396 34.5361 46.3124 34.3604 45.7851L34.2725 45.5215C34.2725 45.0821 34.0089 44.8184 33.6574 44.8184L30.6695 44.2912V42.0942L33.6574 41.479C34.0089 41.3912 34.2725 41.1275 34.3604 40.776C34.4483 40.3366 34.7998 39.4578 35.1513 38.7548C35.1513 38.6669 35.2392 38.6669 35.2392 38.579C35.3271 38.3154 35.4149 38.2275 35.1513 37.7002C35.1513 37.6124 35.0634 37.6124 34.9755 37.5245C34.7119 37.0851 34.2725 36.3821 33.3937 35.1518L33.4816 35.0639L33.5695 34.976L35.0634 33.4821C35.5907 33.9215 36.4695 34.4487 37.6119 35.2396C37.8755 35.4154 38.2271 35.4154 38.5786 35.2396C39.1937 34.8881 39.8967 34.5366 40.6877 34.3609C41.0392 34.273 41.2149 34.0093 41.3028 33.6578L41.918 30.6699H44.1149L44.7301 33.6578C44.818 34.0093 44.9937 34.273 45.3452 34.3609C46.0483 34.5366 46.5755 34.8002 47.1907 35.0639C47.5422 35.4154 47.8937 35.3275 48.2452 35.0639C48.5968 34.8002 48.3331 34.976 48.3331 34.976C48.5089 34.8881 48.5967 34.8002 48.7725 34.7124C49.2998 34.3609 50.1786 33.7457 50.7058 33.3063L52.2877 34.8881L50.618 37.4366C50.4422 37.7002 50.4422 38.0518 50.618 38.4033C50.9695 39.1063 51.321 39.8093 51.4967 40.5124C51.5846 40.8639 51.8483 41.0396 52.1998 41.1275L55.1877 41.6548V43.8518L52.1998 44.6427ZM24.6058 51.673C16.6967 51.4972 10.1058 45.6093 8.87554 37.9639L10.2816 39.3699C10.6331 39.7215 11.1604 39.7215 11.5119 39.3699C11.8634 39.0184 11.8634 38.4912 11.5119 38.1396L8.34826 35.0639C7.99675 34.7124 7.46947 34.7124 7.11796 35.0639L4.0422 38.2275C3.69069 38.579 3.69069 39.1063 4.0422 39.4578C4.39372 39.8093 4.92099 39.8093 5.2725 39.4578L7.03008 37.7002C8.1725 46.4002 15.4664 53.2548 24.6058 53.5184C25.1331 53.5184 25.4846 53.079 25.4846 52.6396C25.4846 52.0245 25.1331 51.673 24.6058 51.673ZM56.2422 23.7275C55.8907 23.376 55.3634 23.376 55.0119 23.7275L53.3422 25.3972C53.6058 16.6093 47.4543 8.78812 38.7543 7.03055C38.3149 6.94267 37.7877 7.29418 37.7877 7.82146C37.6998 8.26085 38.0513 8.70025 38.4907 8.78812C46.3119 10.3699 51.8483 17.4002 51.6725 25.3093L50.0028 23.7275C49.6513 23.376 49.124 23.376 48.7725 23.7275C48.421 24.079 48.421 24.6063 48.7725 24.9578L51.8483 28.0336C52.024 28.2093 52.1998 28.2972 52.4634 28.2972C52.7271 28.2972 52.9028 28.2093 53.0786 28.0336L56.1543 24.9578C56.5937 24.6063 56.5937 24.079 56.2422 23.7275Z" fill="black"/>
</svg>
