<svg width="58" height="58" viewBox="0 0 58 58" fill="none" xmlns="http://www.w3.org/2000/svg">
<g clip-path="url(#clip0_2001_5151)">
<path d="M33.7578 50.75H24.2422C24.0619 50.75 23.889 50.8216 23.7616 50.9491C23.6341 51.0765 23.5625 51.2494 23.5625 51.4297C23.5625 51.61 23.6341 51.7828 23.7616 51.9103C23.889 52.0378 24.0619 52.1094 24.2422 52.1094H33.7578C33.9381 52.1094 34.111 52.0378 34.2384 51.9103C34.3659 51.7828 34.4375 51.61 34.4375 51.4297C34.4375 51.2494 34.3659 51.0765 34.2384 50.9491C34.111 50.8216 33.9381 50.75 33.7578 50.75Z" fill="black"/>
<path d="M47.7481 28.1033C49.7082 28.0952 51.6243 27.5213 53.2661 26.4505C54.9079 25.3798 56.2056 23.8577 57.0032 22.0672C59.6281 16.259 56.0118 9.23741 49.7577 7.98542C48.7425 7.78074 47.702 7.73139 46.6719 7.83906V6.11719C46.6701 4.49536 46.0251 2.94048 44.8783 1.79367C43.7315 0.646864 42.1766 0.00179903 40.5548 0L17.4454 0C15.8235 0.00179903 14.2687 0.646864 13.1219 1.79367C11.9751 2.94048 11.33 4.49536 11.3282 6.11719V18.3865C4.41667 19.4078 -0.666483 26.4054 0.198532 33.3591C0.918548 39.15 5.58574 44.1557 11.3282 45.0764V51.8828C11.33 53.5046 11.9751 55.0595 13.1219 56.2063C14.2687 57.3531 15.8235 57.9982 17.4454 58H40.5548C41.7223 58.0011 42.8656 57.6669 43.8487 57.0373C44.8319 56.4076 45.6136 55.5089 46.101 54.448C47.2336 54.8022 48.4252 54.9284 49.6069 54.8193C50.7886 54.7101 51.9369 54.3678 52.9855 53.812C54.034 53.2563 54.962 52.4981 55.7157 51.5815C56.4694 50.6649 57.0339 49.6079 57.3766 48.4717C57.8283 46.947 57.8759 45.3311 57.5149 43.7824C57.1538 42.2337 56.3964 40.8055 55.317 39.6377C54.2376 38.47 52.8732 37.6028 51.3576 37.1213C49.8421 36.6398 48.2274 36.5605 46.6719 36.8912V28.0425C47.0293 28.0819 47.3886 28.1022 47.7481 28.1033ZM36.8391 1.35938L35.7516 3.38892C35.5193 3.85535 35.1648 4.25006 34.726 4.53101C34.2871 4.81196 33.7803 4.96864 33.2594 4.98438H24.7407C24.2206 4.96795 23.7148 4.81092 23.2768 4.53C22.8389 4.24908 22.4853 3.85475 22.2535 3.38892L21.1633 1.35938H36.8391ZM7.20792 42.0727C5.66383 41.1068 4.35456 39.8087 3.37544 38.273C2.39633 36.7373 1.77201 35.0025 1.54794 33.195C0.629454 26.0293 6.48247 19.5238 13.6495 19.5342C18.43 19.5415 23.1652 22.6608 24.9378 27.1395C25.0439 27.4011 25.203 27.6379 25.405 27.835C25.6071 28.0321 25.8477 28.1853 26.1118 28.285C27.4557 28.8281 28.8928 29.1034 30.3422 29.0956C30.4961 29.0964 30.6467 29.1405 30.7766 29.2229C30.9066 29.3054 31.0107 29.4228 31.0769 29.5617C31.1431 29.7006 31.1689 29.8554 31.1511 30.0083C31.1334 30.1612 31.0729 30.3059 30.9766 30.426C29.4292 32.2385 27.9139 33.5607 26.2378 34.3831C25.9991 34.5002 25.786 34.6634 25.6109 34.8634C25.4357 35.0633 25.302 35.2961 25.2174 35.5481C24.639 37.2994 23.6706 38.8965 22.3852 40.2191C21.0999 41.5418 19.5311 42.5554 17.7971 43.1837C16.063 43.8119 14.209 44.0384 12.3748 43.846C10.5405 43.6536 8.77386 43.047 7.20792 42.0727ZM40.5548 56.6406H17.4454C16.184 56.6392 14.9746 56.1375 14.0827 55.2455C13.1907 54.3536 12.689 53.1442 12.6876 51.8828V45.2504C13.0079 45.2731 13.3283 45.2858 13.6482 45.2853C16.4977 45.2793 19.273 44.3768 21.581 42.7057C23.889 41.0347 25.6127 38.6797 26.5079 35.9745C26.5355 35.894 26.5788 35.8197 26.6352 35.756C26.6917 35.6923 26.7602 35.6405 26.8368 35.6034C28.8489 34.543 30.617 33.0735 32.0274 31.2892C32.2836 30.969 32.4446 30.5833 32.4921 30.176C32.5395 29.7687 32.4715 29.3563 32.2958 28.9858C32.1201 28.6153 31.8437 28.3017 31.4983 28.0807C31.1528 27.8598 30.7522 27.7404 30.3422 27.7362C29.0597 27.7375 27.7888 27.4927 26.5985 27.0149C26.5092 26.9812 26.4277 26.9297 26.359 26.8633C26.2904 26.797 26.236 26.7174 26.1993 26.6293C24.162 21.3055 18.3063 17.7004 12.6876 18.222V6.11719C12.689 4.85578 13.1907 3.64645 14.0827 2.7545C14.9746 1.86254 16.184 1.36081 17.4454 1.35938H19.6204L21.0541 4.03281C21.4021 4.71546 21.9287 5.29092 22.5779 5.69788C23.2272 6.10484 23.9746 6.32806 24.7407 6.34375H33.2594C34.0252 6.32788 34.7724 6.10457 35.4213 5.69761C36.0702 5.29065 36.5965 4.71529 36.9443 4.03281L38.3798 1.35938H40.5548C41.8162 1.36081 43.0255 1.86254 43.9174 2.7545C44.8094 3.64645 45.3111 4.85578 45.3126 6.11719V8.07378C42.7467 8.7005 40.526 10.3023 39.1217 12.5393C37.7174 14.7764 37.2399 17.4725 37.7907 20.0558C37.7999 20.1005 37.7997 20.1467 37.7902 20.1914C37.7807 20.236 37.762 20.2783 37.7354 20.3154C37.2209 21.0818 36.5626 21.7411 35.7969 22.2566C35.5222 22.4487 35.3067 22.7138 35.1749 23.0221C35.0431 23.3303 35.0003 23.6693 35.0513 24.0006C35.1023 24.332 35.245 24.6424 35.4634 24.8967C35.6818 25.1511 35.967 25.3392 36.2868 25.4398C37.9094 25.9478 39.6193 26.1153 41.3097 25.9319C41.3481 25.9262 41.3872 25.9282 41.4248 25.9377C41.4625 25.9472 41.4979 25.964 41.529 25.9872C42.6494 26.8508 43.9383 27.4702 45.3126 27.8056V37.3062C43.5034 38.0091 41.9751 39.2867 40.9626 40.9426C40.9475 40.9663 40.9276 40.9867 40.9042 41.0023C40.8808 41.0179 40.8544 41.0284 40.8266 41.0332C40.0371 41.2009 39.2225 41.2134 38.4282 41.0699C38.1207 41.02 37.8053 41.0578 37.5182 41.179C37.2311 41.3002 36.984 41.4999 36.8053 41.7551C36.6265 42.0103 36.5233 42.3107 36.5075 42.6219C36.4917 42.9331 36.5639 43.2425 36.7159 43.5145C37.4542 44.8479 38.4564 46.017 39.6612 46.9505C39.7038 46.9803 39.7328 47.0258 39.7418 47.077C39.9778 48.5468 40.5637 49.9383 41.4501 51.1343C42.3365 52.3303 43.4974 53.2957 44.835 53.9491C44.4482 54.7559 43.8411 55.4368 43.0837 55.9131C42.3262 56.3894 41.4495 56.6416 40.5548 56.6406ZM55.0045 41.4156C55.6715 42.3752 56.1141 43.4725 56.2993 44.6264C56.4846 45.7802 56.4078 46.961 56.0747 48.0811C55.7442 49.1681 55.1758 50.1679 54.4108 51.0078C53.6457 51.8478 52.7033 52.5069 51.6518 52.9372C47.1554 54.8236 41.7913 51.6934 41.0826 46.8685C41.0506 46.6663 40.979 46.4724 40.8717 46.2979C40.7645 46.1235 40.6238 45.972 40.4578 45.8522C39.3843 45.057 38.5073 44.0266 37.894 42.8398C37.8619 42.7932 37.8446 42.7379 37.8446 42.6813C37.8445 42.6247 37.8617 42.5694 37.8938 42.5227C37.9258 42.476 37.9713 42.4402 38.0242 42.42C38.0771 42.3997 38.1349 42.396 38.1899 42.4093C39.149 42.5659 40.1283 42.5523 41.0826 42.369C41.2957 42.3282 41.4979 42.2436 41.6764 42.1205C41.855 41.9974 42.006 41.8385 42.1199 41.654C42.9673 40.272 44.2373 39.1997 45.7417 38.5958C47.3768 37.948 49.1835 37.8741 50.866 38.3863C52.5486 38.8986 54.0076 39.9665 55.0045 41.4156ZM45.666 26.4933C44.4642 26.2045 43.337 25.665 42.3582 24.9101C42.1835 24.777 41.9841 24.6798 41.7717 24.6242C41.5592 24.5685 41.3378 24.5556 41.1203 24.5861C39.6223 24.7714 38.1019 24.6177 36.6715 24.1362C36.593 24.1155 36.5224 24.0724 36.4682 24.012C36.4141 23.9517 36.3788 23.8768 36.3668 23.7966C36.3548 23.7164 36.3666 23.6344 36.4007 23.5608C36.4348 23.4872 36.4897 23.4253 36.5586 23.3826C37.452 22.7623 38.2276 21.9877 38.8492 21.0952C38.9828 20.905 39.0759 20.6892 39.1227 20.4615C39.1695 20.2337 39.1689 19.9987 39.1211 19.7712C38.8168 18.343 38.8729 16.8615 39.2842 15.4603C39.6954 14.0591 40.449 12.7823 41.4769 11.7451C42.5048 10.7079 43.7747 9.94277 45.1721 9.51883C46.5694 9.09489 48.0504 9.02543 49.4813 9.3167C50.6253 9.55095 51.7113 10.0106 52.6758 10.6688C53.6404 11.327 54.4643 12.1706 55.0995 13.1505C55.7347 14.1304 56.1685 15.2269 56.3756 16.3762C56.5827 17.5254 56.559 18.7044 56.3058 19.8443C56.0526 20.9843 55.5751 22.0625 54.9009 23.016C54.2268 23.9695 53.3696 24.7793 52.3794 25.3982C51.3891 26.017 50.2855 26.4326 49.133 26.6206C47.9805 26.8086 46.8016 26.7654 45.666 26.4933Z" fill="black"/>
<path d="M53.2109 16.7262C53.2125 15.839 52.8624 14.9874 52.2373 14.3578C51.6122 13.7282 50.7631 13.372 49.8759 13.3672C49.123 13.3653 48.3921 13.6211 47.8047 14.0922C47.2173 13.6211 46.4864 13.3653 45.7335 13.3672C44.8491 13.3702 44.0018 13.7232 43.377 14.3491C42.7521 14.975 42.4005 15.8228 42.3989 16.7072C42.3282 19.2198 43.8249 21.3644 46.8463 23.0827C47.1387 23.2478 47.4687 23.3345 47.8045 23.3345C48.1402 23.3345 48.4702 23.2478 48.7626 23.0827C51.784 21.3635 53.2812 19.2198 53.2109 16.7262ZM47.5183 21.9014C44.9314 20.4305 43.7012 18.744 43.7574 16.7262C43.7547 16.1992 43.9613 15.6927 44.3316 15.3178C44.702 14.9429 45.206 14.7303 45.733 14.7266C46.0293 14.7263 46.3217 14.7933 46.5882 14.9227C46.8547 15.0521 47.0883 15.2404 47.2714 15.4733C47.3374 15.55 47.4192 15.6115 47.5111 15.6537C47.6031 15.6958 47.7031 15.7177 47.8042 15.7177C47.9054 15.7177 48.0054 15.6958 48.0973 15.6537C48.1893 15.6115 48.2711 15.55 48.3371 15.4733C48.5201 15.2404 48.7537 15.0521 49.0203 14.9227C49.2868 14.7933 49.5792 14.7263 49.8755 14.7266C50.1379 14.7289 50.3973 14.783 50.6388 14.8858C50.8803 14.9886 51.0991 15.138 51.2827 15.3256C51.4663 15.5131 51.611 15.7351 51.7087 15.9787C51.8063 16.2223 51.8548 16.4828 51.8515 16.7452C51.9077 18.744 50.6775 20.4305 48.0906 21.9014C48.0033 21.9507 47.9047 21.9767 47.8045 21.9767C47.7042 21.9767 47.6056 21.9507 47.5183 21.9014ZM16.5391 38.3471C17.8005 38.3456 19.0098 37.8439 19.9018 36.952C20.7937 36.06 21.2954 34.8507 21.2969 33.5893V32.2299C21.2955 31.1137 20.9024 30.0335 20.1861 29.1775C19.4698 28.3215 18.4758 27.7441 17.3773 27.5459C17.4956 27.0475 17.6361 26.4806 17.7181 26.2319C18.1404 24.9418 17.2564 22.9834 16.0293 22.4895C15.375 22.2258 14.4796 22.3536 13.9268 23.5032C13.2358 24.9776 12.5135 27.1041 11.3209 28.2369C11.1318 27.9994 10.8917 27.8074 10.6185 27.675C10.3453 27.5426 10.0458 27.4733 9.74219 27.4721H7.92969C7.38889 27.4721 6.87025 27.6869 6.48785 28.0693C6.10545 28.4517 5.89062 28.9703 5.89062 29.5111V36.308C5.89122 36.8486 6.10625 37.3669 6.48851 37.7492C6.87078 38.1315 7.38908 38.3465 7.92969 38.3471H9.74219C10.074 38.3467 10.4007 38.2654 10.694 38.1102C10.9873 37.9549 11.2382 37.7304 11.4251 37.4562L12.489 37.9882C12.9613 38.2236 13.4816 38.3464 14.0093 38.3471H16.5391ZM10.4219 36.308C10.4219 36.4883 10.3503 36.6612 10.2228 36.7886C10.0953 36.9161 9.92245 36.9877 9.74219 36.9877H7.92969C7.74942 36.9877 7.57654 36.9161 7.44908 36.7886C7.32161 36.6612 7.25 36.4883 7.25 36.308V29.5111C7.25 29.3309 7.32161 29.158 7.44908 29.0305C7.57654 28.9031 7.74942 28.8314 7.92969 28.8314H9.74219C9.92245 28.8314 10.0953 28.9031 10.2228 29.0305C10.3503 29.158 10.4219 29.3309 10.4219 29.5111V36.308ZM11.7812 36.1141V29.6036C13.4719 28.4223 14.3151 25.9056 15.1516 24.0922C15.3496 23.6812 15.4688 23.7297 15.5218 23.7501C16.0375 23.9626 16.6378 25.162 16.428 25.8082C16.2468 26.3547 15.8929 27.9379 15.878 28.0027C15.8564 28.1019 15.8572 28.2046 15.8804 28.3035C15.9035 28.4023 15.9483 28.4948 16.0116 28.5741C16.0749 28.6535 16.1551 28.7177 16.2463 28.7622C16.3376 28.8068 16.4376 28.8304 16.5391 28.8314C17.4401 28.8324 18.3039 29.1908 18.9411 29.8279C19.5782 30.465 19.9365 31.3289 19.9375 32.2299V33.5893C19.9365 34.4903 19.5782 35.3541 18.9411 35.9913C18.3039 36.6284 17.4401 36.9867 16.5391 36.9877H14.0093C13.6926 36.9875 13.3803 36.9136 13.0971 36.772L11.7812 36.1141ZM44.8594 44.1797C44.8594 44.36 44.931 44.5328 45.0584 44.6603C45.1859 44.7878 45.3588 44.8594 45.5391 44.8594H46.8749L46.3896 46.6719H45.0859C44.9057 46.6719 44.7328 46.7435 44.6053 46.871C44.4779 46.9984 44.4062 47.1713 44.4062 47.3516C44.4062 47.5318 44.4779 47.7047 44.6053 47.8322C44.7328 47.9597 44.9057 48.0313 45.0859 48.0313H46.0253L45.68 49.32C45.6569 49.4062 45.651 49.4962 45.6626 49.5848C45.6743 49.6733 45.7033 49.7587 45.7479 49.8361C45.7926 49.9135 45.8521 49.9813 45.9229 50.0356C45.9938 50.09 46.0747 50.1299 46.161 50.153C46.2473 50.1761 46.3372 50.182 46.4258 50.1704C46.5144 50.1587 46.5998 50.1297 46.6771 50.0851C46.7545 50.0404 46.8223 49.9809 46.8767 49.9101C46.931 49.8392 46.9709 49.7583 46.994 49.672L47.4336 48.0313H49.2289L48.889 49.3C48.8659 49.3863 48.86 49.4763 48.8717 49.5648C48.8833 49.6534 48.9123 49.7388 48.957 49.8162C49.0016 49.8935 49.0611 49.9613 49.132 50.0157C49.2028 50.0701 49.2837 50.11 49.37 50.1331C49.4563 50.1562 49.5463 50.1621 49.6348 50.1504C49.7234 50.1388 49.8088 50.1098 49.8862 50.0651C49.9635 50.0205 50.0313 49.961 50.0857 49.8901C50.1401 49.8193 50.18 49.7384 50.2031 49.6521L50.6376 48.0313H52.3359C52.5162 48.0313 52.6891 47.9597 52.8166 47.8322C52.944 47.7047 53.0156 47.5318 53.0156 47.3516C53.0156 47.1713 52.944 46.9984 52.8166 46.871C52.6891 46.7435 52.5162 46.6719 52.3359 46.6719H51.0001L51.4854 44.8594H52.7891C52.9693 44.8594 53.1422 44.7878 53.2697 44.6603C53.3971 44.5328 53.4688 44.36 53.4688 44.1797C53.4688 43.9994 53.3971 43.8266 53.2697 43.6991C53.1422 43.5716 52.9693 43.5 52.7891 43.5H51.8497L52.195 42.2113C52.2181 42.125 52.224 42.035 52.2124 41.9465C52.2007 41.8579 52.1717 41.7725 52.1271 41.6952C52.0824 41.6178 52.0229 41.55 51.9521 41.4956C51.8812 41.4413 51.8003 41.4014 51.714 41.3783C51.6277 41.3551 51.5378 41.3492 51.4492 41.3609C51.3606 41.3726 51.2752 41.4016 51.1979 41.4462C51.1205 41.4909 51.0527 41.5503 50.9983 41.6212C50.944 41.6921 50.9041 41.773 50.881 41.8592L50.4423 43.5H48.647L48.9869 42.2313C49.01 42.145 49.0159 42.055 49.0042 41.9664C48.9926 41.8779 48.9636 41.7925 48.9189 41.7151C48.8743 41.6378 48.8148 41.5699 48.7439 41.5156C48.6731 41.4612 48.5922 41.4213 48.5059 41.3982C48.4196 41.3751 48.3296 41.3692 48.2411 41.3808C48.1525 41.3925 48.0671 41.4215 47.9897 41.4662C47.9124 41.5108 47.8446 41.5703 47.7902 41.6411C47.7358 41.712 47.6959 41.7929 47.6728 41.8792L47.2392 43.5H45.5391C45.3588 43.5 45.1859 43.5716 45.0584 43.6991C44.931 43.8266 44.8594 43.9994 44.8594 44.1797ZM48.2827 44.8594H50.078L49.5923 46.6719H47.797L48.2827 44.8594Z" fill="black"/>
</g>
<defs>
<clipPath id="clip0_2001_5151">
<rect width="58" height="58" fill="white"/>
</clipPath>
</defs>
</svg>
